<svg width="65" height="65" viewBox="0 0 65 65" fill="none" xmlns="http://www.w3.org/2000/svg">
<g clip-path="url(#clip0_142_5330)">
<g clip-path="url(#clip1_142_5330)">
<rect x="-0.234375" y="9.96466" width="54.9996" height="54.9996" rx="27.4998" transform="rotate(-10.3928 -0.234375 9.96466)" fill="#0078FF"/>
<g clip-path="url(#clip2_142_5330)">
<path d="M9.18733 60.9054C8.66043 58.0326 9.21559 55.0664 10.7458 52.5785C12.1186 50.3466 12.711 47.7218 12.43 45.1165L11.5626 37.0748C11.201 33.7223 11.661 30.3323 12.903 27.1974C14.5525 23.034 17.5035 19.5152 21.316 17.1658L21.5039 17.05C24.4114 15.2582 27.705 14.1872 31.1104 13.9261L33.1248 13.7717C36.3648 13.5233 39.6115 14.1572 42.5202 15.6059C45.2217 16.9515 47.5412 18.9551 49.2652 21.4322L49.3791 21.5959C50.4792 23.1765 51.3295 24.9171 51.9001 26.7563L54.5329 35.2431C55.3608 37.9115 56.877 40.3146 58.929 42.2106C61.456 44.5455 63.1575 47.6371 63.7782 51.0212L64.6626 55.8432L65.5828 60.861C66.4088 65.3642 63.4277 69.6844 58.9244 70.5103L28.8282 76.0301C19.816 77.6829 11.1702 71.717 9.51734 62.7048L9.18733 60.9054Z" fill="white"/>
<path d="M17.7979 30.0777L18.7457 30.8924C19.7188 31.7288 21.0179 32.0804 22.28 31.8489C23.1773 31.6844 23.9977 31.2353 24.6198 30.5681L26.5789 28.4672" stroke="black" stroke-width="1.27536" stroke-linecap="round"/>
<path d="M27.105 43.4048C26.787 43.2535 26.4065 43.3886 26.2552 43.7066C26.1039 44.0246 26.2391 44.4051 26.5571 44.5564L26.8311 43.9806L27.105 43.4048ZM38.5392 41.8333C38.878 43.6808 40.6504 44.9038 42.4979 44.5649C44.3453 44.2261 45.5683 42.4537 45.2295 40.6062C44.8907 38.7587 43.1183 37.5357 41.2708 37.8746C39.4233 38.2134 38.2003 39.9858 38.5392 41.8333ZM26.8311 43.9806L26.5571 44.5564L27.2525 44.8873L27.5265 44.3115L27.8004 43.7356L27.105 43.4048L26.8311 43.9806ZM38.4654 43.5104L38.8203 44.0402L42.2393 41.7495L41.8843 41.2198L41.5294 40.69L38.1105 42.9806L38.4654 43.5104ZM34.2927 45.2054L34.4077 45.8326C35.9857 45.5432 37.4875 44.9331 38.8203 44.0402L38.4654 43.5104L38.1105 42.9806C36.9226 43.7765 35.584 44.3202 34.1776 44.5782L34.2927 45.2054ZM27.5265 44.3115L27.2525 44.8873C29.4789 45.9466 31.9825 46.2774 34.4077 45.8326L34.2927 45.2054L34.1776 44.5782C32.0162 44.9746 29.7848 44.6798 27.8004 43.7356L27.5265 44.3115Z" fill="black"/>
<path d="M36.6133 26.6268L37.5612 27.4416C38.5343 28.278 39.8333 28.6295 41.0954 28.3981C41.9927 28.2335 42.8131 27.7844 43.4352 27.1173L45.3944 25.0163" stroke="black" stroke-width="1.27536" stroke-linecap="round"/>
</g>
</g>
</g>
<defs>
<clipPath id="clip0_142_5330">
<rect width="55" height="54.9996" fill="white" transform="translate(0 9.92175) rotate(-10.3928)"/>
</clipPath>
<clipPath id="clip1_142_5330">
<rect x="-0.234375" y="9.96466" width="54.9996" height="54.9996" rx="27.4998" transform="rotate(-10.3928 -0.234375 9.96466)" fill="white"/>
</clipPath>
<clipPath id="clip2_142_5330">
<rect x="-1.62695" y="9.00421" width="57.3913" height="57.3913" rx="28.6957" transform="rotate(-10.3928 -1.62695 9.00421)" fill="white"/>
</clipPath>
</defs>
</svg>
