<svg width="28" height="28" viewBox="0 0 28 28" fill="none" xmlns="http://www.w3.org/2000/svg">
<g clip-path="url(#clip0_143_6367)">
<g clip-path="url(#clip1_143_6367)">
<rect x="-0.121094" width="27.9998" height="27.9998" rx="13.9999" fill="black"/>
<g clip-path="url(#clip2_143_6367)">
<path d="M-0.0820312 26.3734C-0.0820312 24.8865 0.468365 23.4522 1.46307 22.347C2.35547 21.3554 2.89319 20.0955 2.99173 18.7651L3.29592 14.6586C3.42272 12.9467 3.96442 11.2914 4.87422 9.83576C6.08254 7.90245 7.88338 6.41147 10.0082 5.58515L10.1129 5.54442C11.7334 4.91424 13.481 4.68041 15.2102 4.86243L16.233 4.9701C17.8782 5.14328 19.4458 5.75885 20.7693 6.75143C21.9984 7.67329 22.9759 8.88958 23.6117 10.2883L23.6537 10.3807C24.0594 11.2733 24.3253 12.2229 24.4421 13.1963L24.9811 17.6877C25.1505 19.0999 25.6891 20.4425 26.5424 21.5804C27.5934 22.9816 28.1615 24.6859 28.1615 26.4375V28.9333V31.5304C28.1615 33.8612 26.272 35.7507 23.9412 35.7507H8.36393C3.69935 35.7507 -0.0820312 31.9693 -0.0820312 27.3048V26.3734Z" fill="white"/>
<path d="M7.06152 11.7275L7.46135 12.2226C7.8718 12.7307 8.49001 13.0261 9.14325 13.0261C9.60765 13.0261 10.0597 12.8766 10.4325 12.5996L11.6065 11.7275" stroke="black" stroke-width="0.649276" stroke-linecap="round"/>
<path d="M10.4977 19.2556C10.3523 19.1506 10.1494 19.1834 10.0444 19.3287C9.93947 19.4741 9.9722 19.677 10.1175 19.782L10.3076 19.5188L10.4977 19.2556ZM16.3675 19.5188C16.3675 20.475 17.1427 21.2502 18.0989 21.2502C19.0552 21.2502 19.8303 20.475 19.8303 19.5188C19.8303 18.5626 19.0552 17.7874 18.0989 17.7874C17.1427 17.7874 16.3675 18.5626 16.3675 19.5188ZM10.3076 19.5188L10.1175 19.782L10.4354 20.0115L10.6254 19.7483L10.8155 19.4852L10.4977 19.2556L10.3076 19.5188ZM16.1766 20.3518L16.3056 20.6497L18.228 19.8167L18.0989 19.5188L17.9699 19.2209L16.0475 20.054L16.1766 20.3518ZM13.9315 20.8174V21.142C14.7482 21.142 15.5562 20.9744 16.3056 20.6497L16.1766 20.3518L16.0475 20.054C15.3796 20.3434 14.6594 20.4927 13.9315 20.4927V20.8174ZM10.6254 19.7483L10.4354 20.0115C11.4529 20.7464 12.6762 21.142 13.9315 21.142V20.8174V20.4927C12.8127 20.4927 11.7224 20.1402 10.8155 19.4852L10.6254 19.7483Z" fill="black"/>
<path d="M16.7998 11.7275L17.1996 12.2226C17.6101 12.7307 18.2283 13.0261 18.8815 13.0261C19.3459 13.0261 19.798 12.8766 20.1708 12.5996L21.3447 11.7275" stroke="black" stroke-width="0.649276" stroke-linecap="round"/>
</g>
<rect x="-0.230469" y="-0.108643" width="28.2174" height="28.2174" rx="14.1087" stroke="black"/>
</g>
</g>
<defs>
<clipPath id="clip0_143_6367">
<rect width="28" height="27.9998" fill="white"/>
</clipPath>
<clipPath id="clip1_143_6367">
<rect x="-0.121094" width="27.9998" height="27.9998" rx="13.9999" fill="white"/>
</clipPath>
<clipPath id="clip2_143_6367">
<rect x="-0.730469" y="-0.608643" width="29.2174" height="29.2174" rx="14.6087" fill="white"/>
</clipPath>
</defs>
</svg>
