<svg width="218" height="20" viewBox="0 0 218 20" fill="none" xmlns="http://www.w3.org/2000/svg">
<path d="M16.8688 19.8403C17.0036 19.8149 17.5458 19.8766 17.7804 19.8659C17.5146 20.1342 16.3825 19.9324 16.8688 19.8403ZM40.9621 0.35833C40.7673 0.424657 40.5723 0.490985 40.3772 0.557312C40.9316 0.600409 41.6755 0.551726 42.1883 0.614687C42.2722 0.62526 42.0546 0.817302 42.253 0.825877C42.4515 0.834397 42.4132 0.571956 42.7018 0.543883C43.0279 0.513193 44.516 0.69603 45.0294 0.691594C46.952 0.673878 48.8915 0.524002 50.8246 0.632999C48.8293 0.827161 50.8409 1.02477 51.3978 0.940628C51.5219 0.921145 51.5001 0.433243 53.4977 0.556092C54.7693 0.634051 53.5977 1.33157 55.7137 0.982134C54.0882 0.494167 55.6836 0.528366 56.9634 0.512145C57.1851 0.509272 58.9641 0.582586 59.7447 0.560976C60.0147 0.55346 60.4256 0.297896 60.7826 0.29119C61.0283 0.286766 61.214 0.426484 61.5781 0.419368C63.2679 0.387876 64.9502 0.377013 66.6442 0.424253C65.646 1.08099 67.4279 0.704146 67.5067 0.735543C67.9134 0.913853 66.0747 0.964608 66.8021 1.07613C67.8197 1.05579 68.8282 1.03544 69.8399 1.0151C69.0046 0.93446 70.9457 0.46206 71.2995 0.676948C71.1416 0.0966296 75.9137 1.18203 76.6411 0.988239C76.7917 0.947304 75.8028 0.660491 78.1012 0.791699C78.3495 0.806277 78.2555 0.981366 78.3857 0.965045C78.4647 0.955231 78.9315 0.398733 79.4387 0.706247C79.6222 0.818485 78.4453 1.18398 81.0348 1.03707C80.0029 0.470665 84.6253 0.730327 85.4654 0.872269C85.2937 0.796176 85.1275 0.720082 84.9582 0.643988C85.7927 0.849262 85.952 0.656688 86.1401 0.667183C86.9069 0.709336 87.9453 0.903408 88.6575 0.885697C89.4926 0.865321 89.496 0.513072 90.4626 0.650093C90.2335 0.572372 90.004 0.494651 89.7741 0.416929C90.4456 0.435648 91.1012 0.454366 91.7779 0.473084C90.2243 0.939365 92.1131 0.49533 92.2383 0.485292C92.4367 0.468321 92.1517 0.659214 92.4834 0.635444C92.5175 0.631532 92.4686 0.451768 92.9784 0.431579C94.0421 0.39001 93.8715 0.616027 94.3175 0.613471C94.3586 0.612305 94.2151 0.450359 94.9921 0.412047C97.4507 0.290082 94.9821 0.536152 94.8852 0.558537C94.7635 0.588061 95.5983 1.26484 93.5176 1.02486C94.2151 1.10126 94.283 1.40074 94.3636 1.40818C94.4352 1.41429 95.6539 1.37211 95.7197 1.36179C96.3159 1.26009 95.7914 1.05543 95.9075 1.01876C96.0044 0.989195 97.4558 1.2559 97.8062 0.640327C98.5122 1.20812 97.3912 1.1561 96.2312 1.24338C96.0626 1.35989 97.3384 1.47319 97.4129 1.47288C99.0832 1.47184 98.1578 1.0048 98.5224 0.706248C98.7137 0.55004 99.3889 0.868674 98.7652 0.449891C100.268 0.405686 99.3563 0.64836 99.4537 0.684275C99.5999 0.73704 100.124 0.617015 100.193 0.633003C100.29 0.656672 99.9507 0.801666 100.336 0.852739C100.4 0.860164 101.02 0.610656 100.22 0.491396C101.289 0.526866 101.198 0.31411 101.559 0.742871C102.288 -0.0682923 102.087 1.22234 102.373 1.26779C103.132 1.3876 102.918 0.750733 102.956 0.719676C103.187 0.557097 104.648 0.67333 105.449 0.671305C105.633 0.670851 105.784 0.664457 105.881 0.647652C105.821 0.777927 105.659 0.83461 105.449 0.851031C104.931 0.892431 104.111 0.677934 103.874 0.74165C102.775 1.03772 105.42 0.970989 104.623 1.54734C104.899 1.4161 105.175 1.28485 105.449 1.1536C105.507 1.12656 105.564 1.09952 105.622 1.07247C106.239 1.44305 105.369 1.60464 107.021 1.46922C107.292 1.14936 105.853 1.51974 106.141 1.26779C106.313 1.11993 107.269 1.08817 107.287 1.01022C107.306 0.916377 106.443 1.02759 106.579 0.883258C106.877 0.571793 110.023 0.868306 107.626 1.03829C108.283 1.03297 108.645 1.65248 109.224 1.45945C109.597 1.33416 107.495 0.478546 110.649 0.635446C110.717 0.927982 109.391 0.721829 109.354 0.744092C109.306 0.776499 109.547 1.43663 109.589 1.46922C109.731 1.5765 112.971 1.22301 113.653 1.55467C113.39 1.17314 116.087 1.48659 116.395 1.37034C116.475 1.33824 116.179 1.10454 116.263 1.0798C116.797 0.932572 118.197 1.34976 118.869 1.36057C119.608 1.37282 119.513 1.17097 119.555 1.17136C119.878 1.18261 119.62 1.31945 119.817 1.31907C120.105 1.31841 122.183 1.3464 122.279 1.31785C122.309 1.30895 121.975 1.07837 122.421 1.03463C122.499 1.02705 122.444 1.30043 123.782 1.18234C125.381 1.04032 122.668 0.842384 123.333 0.556098C124.366 0.963723 124.329 0.559782 124.606 0.5915C124.699 0.603053 125.424 0.946492 126.205 0.924764C125.647 0.980512 125.072 1.03626 124.522 1.09201C125.06 1.15223 126.151 1.07769 126.597 1.14572C126.817 1.17884 126.636 1.46097 127.113 1.45335C127.213 1.4502 127.617 0.762829 126.365 1.07125C126.265 0.825818 126.862 0.985644 127.136 0.916219C127.176 0.905402 127.346 0.495371 127.703 0.750198C127.785 0.812893 126.868 2.00899 129.251 1.14328C129.327 1.11538 129.062 0.965583 129.136 0.934531C129.184 0.913502 129.801 0.974094 129.868 0.952843C129.938 0.930039 129.641 0.766506 129.724 0.734328C130.148 0.568516 130.702 1.21711 129.83 1.16769C130.122 1.24786 130.413 1.32802 130.703 1.40818C130.394 0.919354 131.156 1.27064 131.557 1.25559C134.142 1.15938 132.41 0.841447 132.855 0.676953C133.565 0.41284 133.013 1.24937 134.08 0.99801C134.175 0.97451 132.904 0.619415 135.392 0.819781C135.027 0.833616 134.66 0.847452 134.291 0.861286C134.507 1.33409 135.612 0.828854 135.704 0.822222C136.689 0.757304 136.029 0.927749 137.475 0.684278C137.606 0.662419 137.892 0.779105 138.171 0.7209C139.325 0.481108 136.647 0.57539 136.578 0.383974C136.54 0.290181 139.418 0.313803 139.512 0.358338C139.928 0.555757 138.215 0.445291 138.541 0.690382C138.651 0.777406 142.76 0.59867 143.578 0.694044C144.53 0.805029 144.947 1.44606 144.956 0.725785C145.226 1.4328 145.463 0.950416 145.585 0.955285C147.044 1.02073 147.06 1.02787 148.308 0.960168C148.585 0.945453 148.823 1.15997 148.921 1.12375C148.979 1.10187 148.872 0.872303 149.152 0.801471C149.539 0.704571 151.876 0.940692 152.051 1.06759C152.223 1.1945 151.065 1.12263 151.273 1.33128C152.109 1.35237 152.919 1.30074 153.764 1.32273C154.117 1.33249 153.936 1.47852 154.088 1.48143C154.154 1.48322 155.361 1.35462 155.313 1.30076C155.192 1.1755 151.448 1.2597 152.434 1.00412C152.625 0.954731 153.295 1.29125 153.188 0.882041C156.54 0.974818 159.883 1.0676 163.231 1.16037C161.308 1.46644 159.144 1.19271 157.129 1.22141C156.85 1.22495 155.921 1.18548 156.034 1.39231C157.747 1.44586 159.876 1.3381 161.52 1.47288C161.573 1.47734 161.379 1.66317 161.577 1.69262C161.947 1.74758 163.144 1.44788 163.348 1.52538C163.383 1.54343 162.698 1.78841 162.906 1.94409C163.441 2.34362 163.576 1.45874 164.032 1.46922C164.336 1.47647 166.121 1.78976 167 1.7124C167.151 1.69921 167.276 1.67464 167.363 1.63524C167.622 1.51706 167.373 1.46769 167 1.4343C166.469 1.38629 165.679 1.37134 165.783 1.2324C166.19 1.17297 166.596 1.14439 167 1.13445C168.216 1.10479 169.412 1.24106 170.559 1.21897C170.586 1.21822 170.353 1.03361 170.693 1.00778C171.282 0.962828 171.441 1.22469 171.729 1.26658C172.04 1.31117 173.14 1.27365 173.287 1.36912C173.306 1.38164 173.083 1.64137 173.049 1.64867C172.568 1.75572 172.398 1.41862 172.355 1.41429C172.192 1.40151 172.032 1.53063 171.883 1.52294C171.637 1.51011 171.501 1.39065 171.174 1.38011C170.952 1.37239 171.167 1.60179 170.952 1.5913C170.874 1.58652 170.019 1.0627 169.937 1.5974C169.912 1.76599 176.906 1.98249 177.602 1.84766C177.006 1.78336 176.402 1.71907 175.805 1.65478C177.02 1.81128 178.485 1.38405 178.588 2.01612C183.101 2.0678 187.616 2.11948 192.127 2.17116C192.934 2.22501 192.489 2.63118 193.818 2.51297C193.475 2.38357 193.131 2.25417 192.79 2.12477C193.47 2.21554 196.481 2.39289 196.967 2.3091C197.032 2.29812 197.116 1.93051 197.871 1.89893C198.533 1.87104 198.65 2.14647 199.001 2.19923C199.301 2.24277 199.641 2.1706 199.727 2.18581C199.793 2.19798 199.82 2.3664 199.987 2.39577C200.508 2.48658 200.085 2.01236 200.599 2.55691C200.469 2.57767 200.351 2.59842 200.225 2.61917C200.593 2.66674 201.068 2.77563 201.164 2.88131C201.191 2.909 201.194 2.93648 201.164 2.96256C201.119 3.0019 201.004 3.03811 200.784 3.06719C200.624 3.08824 200.762 2.9253 200.642 2.92558C196.168 2.95487 199.476 3.2522 201.164 3.04261C201.222 3.03552 201.278 3.02785 201.332 3.01958C201.748 3.26102 204.084 3.11361 204.16 3.16118C204.268 3.2301 203.87 3.42306 204.391 3.58967C204.497 3.62494 207.626 3.48974 206.497 3.81062C206.264 3.87682 204.77 3.80727 204.409 3.81673C205.26 4.32846 207.248 3.59529 207.471 3.61408C208.374 3.69383 205.739 4.05757 207.77 4.11703C209.329 4.16266 207.869 3.82097 208.466 3.67512C208.805 3.59328 210.573 3.9697 210.525 3.48224C211.132 3.43019 210.776 3.6883 210.852 3.70686C210.865 3.70988 210.917 3.70734 210.995 3.70185C211.339 3.67767 212.19 3.59628 212.506 3.68C212.553 3.69278 212.406 3.94615 212.454 3.96688C212.549 4.00238 213.7 3.95173 213.746 3.93026C213.776 3.91534 213.501 3.69352 213.614 3.63972C213.746 3.57769 214.853 3.62989 214.915 3.56647C215.001 3.4706 213.633 3.53376 213.861 3.2857C214.492 3.34816 215.519 3.18265 215.935 2.98296C215.833 3.04005 215.222 3.04825 215.01 3.02812C215.11 2.66482 216.422 2.66977 215.973 2.95732C216.258 2.80289 216.064 2.72097 216.225 2.57523C216.266 2.53831 216.672 2.5307 216.75 2.4678C216.76 2.45527 216.342 2.31819 216.426 2.2444C216.578 2.11106 217.806 2.14106 217.907 2.17604C218.19 2.27518 217.188 2.39513 217.104 2.54837C217.093 2.5719 217.944 2.8722 217.958 2.89872C218.007 3.18328 217.06 2.97821 217.168 3.23443C217.402 3.28855 217.637 3.34267 217.871 3.39679C216.967 3.65625 215.293 3.52283 214.862 3.81795C216.202 3.73013 217.606 3.74051 217.603 4.40513C217.603 4.68503 217.023 4.84912 217.046 4.92029C217.132 5.17493 217.934 4.89829 217.964 4.91174C217.989 4.92726 218 4.94237 218 4.95708C218 4.95708 218 4.95709 218 4.9571C217.999 5.10619 216.855 5.21355 216.797 5.28163C216.701 5.40256 217.211 5.90031 217.21 6.01041C217.192 6.03253 216.377 6.15033 216.652 6.34246C216.93 6.53652 217.644 6.54081 217.669 6.56097C217.805 6.67707 216.557 6.78295 216.52 6.85151C216.5 6.88617 217.17 7.09914 217.19 7.16036C217.206 7.2218 216.697 7.35586 216.497 7.54978C216.347 7.69385 216.783 7.80431 216.706 7.82689C216.652 7.84186 215.471 7.8394 215.414 7.86473C215.327 7.90219 215.604 8.07438 215.563 8.11743C215.506 8.17935 215.125 8.1172 215.175 8.18091C215.212 8.22839 216.689 8.82195 216.679 8.9805C216.663 9.25092 215.099 8.62871 216.554 9.69586C216.564 9.70287 216.918 9.62702 216.928 9.6336C217.146 9.82994 216.011 10.132 217.4 10.0792C214.817 10.4202 217.078 10.4857 216.696 10.941C216.549 11.116 215.547 11.1882 215.543 11.2145C215.64 11.4365 215.959 11.2643 216.067 11.3732C216.127 11.434 215.231 11.6688 215.433 11.8212C215.537 11.8997 216.488 11.8718 216.527 11.8871C216.904 12.0316 216.442 12.1873 216.525 12.2899C216.58 12.3588 217.153 12.3642 217.168 12.3766C217.192 12.4024 216.414 12.6805 216.251 12.7782C216.128 12.8535 216.591 12.9713 216.505 13.0041C215.986 13.2002 214.883 12.7001 215.946 13.4008C216.011 13.4438 216.413 13.4264 216.425 13.435C216.674 13.6337 215.933 13.6508 215.8 13.8134C215.573 14.0937 216.637 13.9374 215.752 14.1345C216.416 14.3178 216.786 14.3101 217.563 14.259C215.412 14.4015 214.652 15.1269 217.041 15.1087C216.281 15.0974 216.366 15.5068 216.139 15.5139C215.998 15.5179 214.897 15.1109 215.401 16.0242C215.465 16.1383 216.134 15.9934 215.924 16.2269C214.318 16.1673 215.89 16.3754 215.892 16.4063C215.871 16.9443 211.947 16.5037 211.271 16.565C211.178 16.5735 211.085 16.5871 210.995 16.6043C210.33 16.7315 209.773 17.0602 209.624 17.0606C209.065 17.0608 209.529 16.8456 209.404 16.7664C209.275 16.688 207.686 17.1004 207.607 17.0777C207.297 16.9868 207.612 16.7317 207.58 16.7188C207.197 16.5625 205.065 16.7622 204.46 16.703C204.484 16.8684 205.684 16.8816 204.931 17.1473C204.057 17.4572 204.008 16.7277 203.984 16.6956C203.051 16.6973 202.105 16.6989 201.164 16.7005C198.11 16.7058 195.036 16.7111 191.98 16.7164C192.027 17.1045 194.642 16.8118 194.706 16.8629C195.048 17.1654 190.637 17.1598 190.092 17.0228C190.498 17.1066 190.921 17.1904 191.326 17.2743C190.627 17.7204 189.069 17.1408 188.05 17.3377C187.724 17.4016 188.35 17.5738 188.338 17.5856C187.972 17.7588 187.378 17.6253 187.822 17.3927C186.914 17.6156 187.054 17.3696 186.359 17.3512C186.323 17.3504 186.622 17.5304 186.071 17.6051C185.82 17.6399 184.448 17.6405 184.265 17.798C184.191 17.8643 184.884 18.5625 184.967 17.9615C186.461 18.2545 185.445 17.6877 186.022 17.7015C186.108 17.7047 185.911 18.0401 187.363 17.8822C187.086 18.4871 185.413 18.0348 185.121 18.108C184.528 18.2586 186.974 18.571 187.42 18.0995C187.208 18.5715 187.597 18.1631 188.137 18.1825C188.733 18.2035 188.475 18.3441 188.797 18.3449C189.673 18.3484 189.315 18.0152 190.04 18.3156C189.334 17.3857 191.28 18.1929 191.854 18.4364C190.925 18.4836 190.004 18.5308 189.075 18.578C189.128 18.6269 189.18 18.6757 189.233 18.7245C188.991 18.7176 188.747 18.7107 188.502 18.7038C188.541 18.657 188.581 18.6102 188.62 18.5634C187.364 18.8676 187.052 18.5257 186.952 18.5219C185.631 18.4822 184.104 18.4851 182.77 18.484C182.567 18.4839 182.712 18.7882 181.248 18.55C180.784 18.4741 181.223 18.2373 180.695 18.2728C180.029 18.9162 180.048 18.4031 179.851 18.4022C179.289 18.4023 178.94 18.5617 178.89 18.5634C178.197 18.5882 177.178 18.5616 176.41 18.5854C176.395 18.5878 176.791 18.7854 176.297 18.727C176.126 18.7061 174.558 17.8623 173.192 18.1373C173.549 18.1943 173.9 18.2513 174.259 18.3082C173.84 18.2286 170.911 18.4413 171.627 18.6671C172.067 18.8052 173.138 18.2613 173.256 18.7843C172.434 18.6523 168.471 18.7982 167 18.7742C166.728 18.7697 166.541 18.7594 166.476 18.7404C166.418 18.723 166.774 18.5533 166.694 18.5316C166.634 18.5151 165.395 18.5553 165.235 18.4901C165.138 18.4514 165.68 18.3474 165.637 18.2863C165.599 18.2427 164.057 18.17 163.97 18.3827C164.348 18.2973 165.413 18.3719 164.855 18.5512C164.784 18.5734 164.411 18.4362 164.324 18.4645C163.514 18.7251 165.93 18.6626 166.306 18.6647C164.788 18.9357 162.441 18.6162 160.682 18.7929C159.974 18.6158 161.731 18.5221 160.931 18.3754C159.265 18.0714 160.488 18.6202 160.437 18.6427C160.02 18.8213 158.613 17.8641 158.61 18.5927C158.002 18.483 158.201 18.3911 157.348 18.4865C157.461 18.5369 157.573 18.5874 157.685 18.6378C156.736 19.0599 154.73 17.9952 154.881 17.9139C155.286 17.6966 156.332 18.0356 156.418 18.0275C156.546 18.0154 156.921 17.2761 158.361 17.9371C158.95 17.4413 156.072 17.6025 157.383 17.2645C156.496 17.32 152.851 16.9748 152.331 17.1925C152.268 17.2209 152.56 17.7149 151.657 17.4635C151.231 17.3437 152.261 17.338 152.066 17.2254C151.463 16.88 143.287 17.101 141.73 17.1192C141.628 17.1198 141.666 16.9664 141.566 16.9679C141.254 16.9721 140.159 17.2008 139.606 17.1302C140.738 17.414 138.546 17.4361 137.986 17.4049C137.13 17.3573 137.194 17.0875 136.827 17.0301C135.409 16.8089 133.232 17.4496 132.138 16.8507C132.192 17.4451 130.252 16.5592 129.349 16.554C128.662 16.5498 127.649 16.9431 128.588 17.1827C127.38 17.1553 126.129 17.2662 124.988 17.3023C124.803 17.3084 125.057 17.1326 124.743 17.1485C124.714 17.1512 124.675 17.3235 124.403 17.3414C122.148 17.4915 123.242 17.1255 122.819 17.0179C122.584 16.9576 122.413 16.9277 122.285 16.9178C123.604 16.8841 125.103 16.8165 125.52 16.8116C125.17 16.4312 122.599 16.8846 121.858 16.7823C121.832 16.7786 121.923 16.5689 121.896 16.5674C121.896 16.5674 121.895 16.5674 121.895 16.5674C121.616 16.5514 119.811 16.6288 120.185 16.8787C120.276 16.9455 121.118 16.9454 122.092 16.9227C121.828 16.9696 122.025 17.2044 121.978 17.2144C121.414 17.3305 120.015 17.1013 119.529 17.0704C119.416 17.0636 119.424 17.2141 119.406 17.2144C118.958 17.1803 119.142 16.7506 118.68 17.1937C117.865 16.6582 120.205 17.1142 120.036 16.7664C119.92 16.4987 114.715 16.6425 114.745 17.0643C114.727 17.0192 114.656 16.9632 114.51 16.8995C114.187 16.7579 112.735 16.8022 112.493 16.88C112.451 16.8953 112.468 17.3047 112.416 17.3084C112.292 17.3178 110.509 16.9969 109.864 17.2389C110.22 17.2962 110.564 17.3536 110.927 17.411C108.788 17.4145 109.116 17.5364 109.831 17.6588C109.867 17.6599 109.901 17.6754 109.935 17.6771C110.484 17.7676 111.199 17.8548 111.21 17.8871C111.239 18.0103 107.611 18.0789 108.305 17.6991C108.407 17.6472 110.095 17.8163 109.26 17.5453C109.116 17.4978 108.02 17.5751 107.968 17.5453C107.58 17.3467 109.963 17.0828 109.668 16.8006C109.1 17.0693 108.345 16.9278 107.697 16.9972C107.4 17.0285 107.326 17.2338 107.289 17.2376C106.739 17.2912 107.048 17.076 106.864 17.0814C106.766 17.0851 105.673 17.5431 105.879 16.9117C105.725 16.9315 105.582 16.9505 105.449 16.9687C103.297 17.2688 104.063 17.3468 105.449 17.3535C105.954 17.3559 106.537 17.3491 107.09 17.3402C106.682 17.4757 106.039 17.4927 105.449 17.4948C105.047 17.4962 104.671 17.4904 104.42 17.5123C104.201 17.5317 104.331 17.7424 103.961 17.7845C103.189 17.8712 99.5488 17.6292 98.6081 17.5721C99.1898 17.4977 99.02 17.2682 98.5707 17.284C98.1207 17.3 98.4987 17.6063 98.4109 17.6393C98.3158 17.6734 96.2042 17.5288 95.856 17.5685C97.4384 17.4575 97.083 17.2286 95.738 17.2047C95.9329 17.1388 96.1273 17.0728 96.3215 17.0069C95.5367 17.0996 93.8619 16.7504 93.4133 16.8543C93.3419 16.871 93.5983 17.0635 93.5582 17.0728C93.1609 17.1546 91.7944 16.9583 91.7294 17.024C91.6755 17.0787 92.2597 17.24 92.0429 17.3194C91.9994 17.3362 91.4287 17.076 90.884 17.14C90.6803 17.1635 90.803 17.3455 90.7516 17.356C90.3232 17.4436 90.577 17.1371 89.7916 17.1864C89.2172 17.2228 88.7784 17.5224 87.9878 17.4232C90.608 17.8051 88.3952 17.6456 87.3143 17.7613C87.1392 17.7798 87.291 18.1102 86.2427 17.9493C88.4723 17.3519 85.6047 17.6336 85.0202 17.6271C84.9882 17.625 84.9775 17.4071 84.6916 17.4037C84.6675 17.4039 84.7023 17.5511 84.4364 17.5624C81.9064 17.6688 83.5238 17.5025 83.0429 17.3573C82.8353 17.2954 81.6068 17.5036 81.2771 17.5086C81.2011 17.5092 81.2362 17.3562 80.9417 17.3622C80.4206 17.3731 79.9519 17.536 79.6059 17.5489C79.5666 17.5497 79.5605 17.3083 78.9107 17.3866C78.7282 17.4085 78.523 17.4942 78.7824 17.5636C79.644 17.7919 81.2935 17.3968 82.2606 17.6246C83.1487 17.8321 80.3512 17.8517 80.201 17.8529C80.1473 17.8537 80.697 17.7338 80.1385 17.7101C79.66 17.6903 78.7899 18.1073 78.0837 18.0165C78.0299 18.0097 77.4635 17.6562 77.4895 17.6356C77.5136 17.6205 78.3827 17.5438 78.2563 17.4415C78.2414 17.4298 77.6892 17.4322 77.6168 17.356C77.5284 17.2633 77.2899 16.3534 77.1715 16.3306C76.8678 16.2743 77.0655 16.4818 76.8689 16.4673C76.4438 16.4369 74.991 16.1678 74.9433 16.4832C75.1838 16.5019 75.4239 16.5206 75.6637 16.5394C74.328 16.5718 74.8967 16.7061 74.7075 16.7652C74.5031 16.8292 74.5609 16.552 74.1086 16.5259C74.0102 16.5202 72.1156 16.5781 72.1529 16.6944C73.1938 16.5093 72.8082 16.8519 72.8559 16.858C73.0401 16.8803 73.2752 16.6881 73.5218 16.692C75.2537 16.722 73.5075 17.0254 73.9162 17.1034C74.057 17.1296 74.337 16.9656 74.3966 16.974C74.5903 17.0011 74.5934 17.2159 74.7225 17.1986C75.0235 17.1582 74.672 16.8543 74.6959 16.8384C74.9655 16.6482 76.0167 16.8849 75.3622 17.2157C75.7554 17.3349 75.8 16.9329 76.1129 17.0936C76.738 17.4118 75.8016 17.3301 75.5527 17.3829C74.6502 17.5735 74.3829 17.4192 73.0959 17.472C72.6314 17.4906 72.0906 17.6859 71.8759 17.6966C71.742 17.7034 70.4676 17.024 70.4293 18.0873C69.9311 17.9844 69.1558 17.2837 68.6474 17.3158C68.1902 17.345 68.3355 17.7212 68.2929 17.7357C68.2276 17.7586 67.6737 17.7289 67.4859 17.7821C67.266 17.8449 67.3759 17.9885 67.0266 18.047C66.1557 18.1922 66.1813 17.8083 66.092 17.7833C65.0614 17.4949 65.5124 18.041 65.2835 18.0848C65.0722 18.1251 62.0738 17.9149 61.4468 18.0531C61.7032 17.9762 61.9593 17.8993 62.2151 17.8224C61.7574 17.5829 61.2707 17.9735 61.2621 17.544C61.1692 18.2374 60.2204 17.7739 59.9343 17.7919C59.8219 17.7992 59.8301 17.9174 59.6901 17.9225C59.1448 17.9432 57.9099 17.8491 57.6117 17.909C56.3253 18.167 59.6135 18.596 59.87 18.622C59.3549 18.6143 56.4224 18.7696 57.7707 19.1029C57.9793 19.1544 58.3482 18.8441 58.465 18.8319C59.2557 18.752 58.6339 19.0301 58.6959 19.0566C58.8014 19.0992 59.3212 18.8304 59.4581 18.8625C59.5044 18.8727 59.2076 19.1245 59.9636 19.1298C59.5914 19.3739 57.474 19.175 57.1927 19.2323C57.0941 19.2528 57.7139 19.7744 55.8978 19.2677C55.9188 19.3162 55.9398 19.3646 55.9608 19.413C54.9526 19.4329 53.9395 19.4529 52.925 19.4728C53.0345 19.3613 53.6041 19.1372 52.8877 19.1847C52.4773 19.2122 52.7809 19.4607 52.7435 19.4679C52.381 19.5363 45.8281 19.4536 44.5674 19.4814C44.1367 19.4904 42.9325 19.6901 42.8403 19.6938C42.293 19.7138 40.3548 19.5838 39.9659 19.612C39.7237 19.6301 39.9539 19.8378 39.7376 19.8281C39.5364 19.8187 39.7448 19.6179 39.6851 19.6095C39.1918 19.5368 35.4364 19.8001 34.5498 19.6108C35.0913 19.6676 37.8127 19.2665 37.7568 19.1249C37.7451 19.1055 37.0848 18.9528 36.9484 19.0273C36.7236 18.8534 35.9484 19.3827 35.5288 19.2787C35.4813 19.2669 35.6683 18.97 34.9194 18.9162C34.6614 18.8977 33.9855 19.1292 33.304 18.8698C32.3153 18.9944 27.1353 18.6094 26.7799 18.9284C26.7694 18.9452 27.499 19.055 27.006 19.1859C26.3505 19.3599 26.9394 18.7738 26.175 18.7233C26.0591 18.7156 23.934 18.7749 23.8647 18.8112C23.2214 19.1401 25.0774 19.2735 25.051 19.3117C24.9866 19.408 23.4447 19.4662 23.3817 19.4435C23.322 19.4199 24.5804 18.9841 23.0681 19.1493C23.2414 19.2014 23.4147 19.2535 23.5879 19.3056C22.8767 19.407 22.8087 19.1055 22.6363 19.0871C22.1004 19.0287 21.5195 19.4868 20.6626 18.921C20.4359 18.7709 20.8124 18.6042 20.784 18.5817C20.5116 18.3796 20.1639 18.9202 19.754 18.517C19.7231 18.4869 20.6774 18.2454 19.0095 18.2447C19.1243 18.2834 19.2391 18.3221 19.3539 18.3607C19.1188 18.447 17.4291 18.4983 17.2029 18.4779C16.5398 18.4183 17.1182 18.1408 16.4514 18.1739C16.8793 18.5542 14.8509 18.6039 14.9674 18.2765C14.683 18.6877 12.9622 18.3705 12.1518 18.3607C11.6408 18.3549 10.5975 18.5343 10.4357 18.5133C10.238 18.4876 10.2981 18.2071 9.94107 18.1446C9.83928 18.1268 8.77641 18.3325 7.84282 18.0421C7.6619 17.9862 7.28189 17.5104 7.61819 17.3914C8.19387 17.188 9.28235 17.5713 9.26843 17.2901C9.25219 16.9894 7.78595 17.1682 7.39105 17.129C5.56954 16.9474 6.62139 16.6277 6.57451 16.5308C6.45308 16.2956 5.45778 16.3029 5.41621 16.2818C5.24408 16.1879 5.94943 16.0017 5.96006 15.8582C5.97294 15.6713 5.01347 15.334 5.23159 15.271C5.54387 15.1815 6.42552 15.4627 6.48139 15.4492C7.20893 15.2679 6.2117 14.8361 5.93678 14.624C5.85345 14.5587 6.18547 14.4515 6.11639 14.4323C5.06169 14.1419 5.89408 15.0392 5.1925 14.9792C4.56651 14.9258 5.37194 14.6421 5.34802 14.6264C5.31713 14.6093 4.56864 14.5938 4.45144 14.4934C4.39377 14.4431 6.33905 13.8912 6.25774 13.6437C5.63719 13.6983 5.0165 13.7528 4.39571 13.8073C4.34706 13.4847 5.2399 13.7222 5.33222 13.6889C5.51811 13.6222 4.99977 13.4589 5.02201 13.3569C5.03395 13.292 5.64232 13.0604 5.0927 12.965C4.90381 12.932 4.50739 13.1583 3.81926 12.9272C6.21383 12.632 4.55445 12.4506 4.48388 12.3363C4.41474 12.222 5.5579 11.953 4.1703 12.0006C4.11013 11.3727 4.20022 11.8021 4.59451 11.6918C5.07748 11.5561 3.96131 11.3493 5.7264 11.5062C5.62604 11.2122 4.2072 11.233 4.13203 11.2096C4.06716 11.1883 4.38258 11.0437 4.27011 10.9947C2.9398 10.4267 3.85349 10.6861 3.46828 10.3233C3.43404 10.2909 2.17712 10.1564 3.13401 10.1036C4.87764 10.0075 5.60646 10.4241 5.89936 9.53348C4.60989 9.14659 3.04685 9.72149 2.65505 9.73124C2.05504 9.74527 2.67659 9.56363 2.60266 9.51273C2.57698 9.49628 2.05993 9.51128 2.05298 9.49686C1.68428 8.81755 4.35481 9.48558 5.19583 9.36746C4.97045 9.26573 4.74506 9.164 4.51965 9.06227C4.82546 9.0582 5.13125 9.05413 5.43701 9.05006C3.98027 8.84557 5.38569 8.97264 5.74885 8.4226C5.83039 8.29901 4.87349 8.51096 5.96505 8.16746C5.15997 8.08817 5.41678 7.97579 4.68766 8.13084C4.70653 7.91037 6.34688 7.66167 6.99352 7.54854C4.70843 7.30078 6.01168 8.10947 4.03554 7.6816C3.66905 7.9546 4.61239 7.90145 4.53545 7.9465C4.25952 8.10853 3.61237 7.85126 2.83217 8.41893C2.70511 8.51214 3.24275 8.79902 2.44715 8.78516C2.35916 8.78319 1.85219 8.53803 1.85921 8.52026C1.92643 8.32825 2.42811 8.4002 2.44882 8.32005C2.46826 8.24418 1.90855 8.28981 1.90661 8.26878C1.88942 8.02823 2.37362 8.17685 2.30329 8.10154C2.15142 7.93776 0.138135 7.42012 2.76564 7.57173C0.583224 7.84369 2.4863 7.83734 3.33607 7.73287C3.55278 7.70668 3.60766 7.563 3.91659 7.51314C4.31397 7.44856 4.77901 7.51753 4.98459 7.49117C5.20567 7.4621 3.94945 7.12247 5.76631 7.22382C4.84179 6.88599 3.20801 7.24617 2.29996 7.00897C0.46754 6.52965 3.57749 6.42674 3.90162 6.38028C3.98796 6.3677 3.69849 6.17366 3.75604 6.16177C3.85023 6.14353 5.61564 6.23323 5.7896 6.07265C5.96317 5.91222 5.14308 6.08004 5.08855 5.91274C5.05169 5.8001 7.1808 5.6003 6.02825 5.52332C5.23392 5.47054 3.76903 5.92327 3.52232 5.43664C4.69105 5.39636 5.85963 5.35607 7.0276 5.31579C6.38833 5.13064 5.74889 4.9455 5.10934 4.76035C6.42076 4.70163 7.55426 4.91066 8.80023 4.6456C5.80643 4.05232 9.7724 4.17213 9.81553 4.09992C9.83017 4.05674 8.65221 3.57519 8.46255 3.48711C9.50641 3.30186 12.6787 3.21133 10.8222 2.61671C11.1593 2.75097 11.9754 2.41955 11.9646 2.39454C11.861 2.13185 10.0812 2.30219 10.3717 2.06493C10.7075 1.78961 11.1792 2.16313 11.6967 2.1333C14.3519 1.97779 13.622 0.606432 16.2851 0.823432C16.2322 0.774602 16.1793 0.725773 16.1263 0.676943C19.0175 0.754664 21.9144 0.832385 24.8052 0.910107C25.9394 0.491321 28.9484 0.236309 30.4308 0.282642C30.7293 0.291666 32.1894 0.511455 32.3003 0.549987C32.5041 0.623835 31.3819 0.652012 31.889 0.790474C31.9947 0.818894 34.4754 0.911245 34.2971 0.676945C34.0199 0.649778 33.1509 0.767554 33.0084 0.712346C32.0116 0.318291 39.6434 0.633099 40.0233 0.474301C39.854 0.398207 39.6845 0.322114 39.515 0.24602C39.998 0.283456 40.4803 0.320893 40.9621 0.35833ZM18.8223 19.1762C18.533 19.4113 17.8073 19.2347 17.3799 19.3007C16.7889 19.3931 15.7831 20.2984 16.2161 19.391C17.0851 19.3194 17.9519 19.2478 18.8223 19.1762ZM31.5195 19.5265C30.9376 19.4003 31.3891 18.8935 31.8658 19.1042C31.9186 19.1281 32.3065 19.6965 31.5195 19.5265ZM25.4115 19.286C25.4361 19.2793 25.9402 19.2928 25.9578 19.3007C26.4098 19.5042 24.89 19.4626 25.4115 19.286ZM54.9173 19.026C54.2755 19.0479 54.7405 19.5086 55.1392 19.319C55.1643 19.307 54.9595 19.025 54.9173 19.026ZM54.4608 19.0138C53.9622 18.6013 52.955 19.4374 53.7554 19.3532C53.8331 19.3447 54.4839 19.0339 54.4608 19.0138ZM29.4431 19.3251C29.5088 19.167 30.1102 19.2433 30.3668 19.2812C30.3599 19.4255 29.6952 19.3074 29.4431 19.3251ZM44.6804 19.2812C44.7073 19.1569 42.6138 19.1637 42.4729 19.3276C42.8017 19.2581 44.6576 19.3929 44.6804 19.2812ZM50.0355 19.1066C49.982 19.0851 49.2599 19.1178 49.2816 19.2275C49.6309 19.3713 50.2752 19.2039 50.0355 19.1066ZM60.6834 19.1139C60.7224 19.0864 60.1821 18.3884 61.4634 18.8478C61.6514 18.9151 60.9799 19.0974 61.0466 19.1225C61.1866 19.1713 61.2972 19.1941 61.3861 19.1982C60.7898 19.256 60.1682 19.2832 60.108 19.2409C59.8257 19.0409 60.6663 19.1254 60.6834 19.1139ZM66.27 18.5939C66.3917 18.48 67.1809 18.5409 67.3593 18.5878C67.39 18.5966 67.2561 18.8958 67.61 18.8734C67.8939 18.855 67.47 18.5485 68.0227 18.5975C68.5809 18.6468 67.8352 18.8652 67.8838 18.8808C67.9495 18.9012 68.8122 18.7636 68.7851 18.9418C68.7655 19.0738 67.8412 18.9846 67.6117 19.0126C67.3182 19.0487 67.6742 19.2686 67.1834 19.2214C66.8748 19.1918 67.0458 18.8051 66.9807 18.7855C66.9253 18.7698 65.8487 18.9924 66.2716 18.5951C66.2711 18.5947 66.2705 18.5943 66.27 18.5939ZM61.5474 19.1811C61.5025 19.1941 61.4498 19.2011 61.3861 19.1982C61.4402 19.1929 61.4941 19.1868 61.5474 19.1811ZM20.5056 19.0065C20.8082 19.1258 19.9099 19.2787 19.5694 19.1225C19.5635 18.9965 20.4575 18.9879 20.5056 19.0065ZM62.0997 18.8661C62.9831 18.963 62.3343 19.0963 61.5474 19.1811C61.7972 19.1083 61.8028 18.8337 62.0997 18.8661ZM36.9484 19.0273C36.9857 19.0561 37.0095 19.1011 37.0124 19.175C36.9142 19.0941 36.9054 19.0507 36.9484 19.0273ZM39.0133 19.1591C39.72 18.934 38.284 18.9431 38.2928 19.1042C38.2971 19.165 38.9851 19.168 39.0133 19.1591ZM55.7394 19.048C55.6746 19.026 56.6792 18.3463 55.2206 18.8563C55.9994 18.9364 55.1778 19.0105 55.1899 19.07C55.2229 19.241 56.5264 19.0766 56.8208 19.1505C57.0481 18.8445 55.9515 19.1206 55.741 19.048C55.7405 19.048 55.7399 19.048 55.7394 19.048ZM76.3445 18.7587C76.164 18.938 75.6046 18.8803 75.2254 18.8698C75.4038 18.6904 75.9593 18.7481 76.3445 18.7587ZM175.816 18.7843C173.211 18.9502 172.872 18.2198 175.255 18.5084C175.303 18.5145 175.975 18.7103 175.816 18.7843ZM153.461 18.5951C153.213 18.2768 154.033 18.2256 154.563 18.3571C154.683 18.3866 155.127 18.7091 154.62 18.7721C154.637 18.3863 153.85 18.2389 153.461 18.5951ZM62.599 18.6622C62.8542 18.45 63.6518 18.6011 64.0709 18.633C63.8158 18.8077 62.9651 18.7287 62.599 18.6622ZM167.256 18.4035C167.157 18.3948 167.069 18.4251 167 18.4686C166.878 18.5458 166.813 18.6646 166.843 18.6793C166.886 18.7009 166.941 18.7087 167 18.7063C167.231 18.6967 167.506 18.529 167.256 18.4035ZM60.0354 18.6293C59.9993 18.5024 61.0536 18.3803 61.1265 18.694C60.9018 18.6713 60.0617 18.7089 60.0354 18.6293ZM75.6281 18.6635C75.4651 18.599 76.308 18.4835 76.5667 18.5475C76.5456 18.6825 75.7329 18.7054 75.6281 18.6635ZM162.836 18.4975C162.587 18.4734 161.978 18.4661 161.909 18.578C161.826 18.718 162.721 18.6703 162.836 18.4975ZM208.58 18.2558C208.608 18.306 207.66 18.6685 207.237 18.5768C206.431 18.4013 208.545 18.2202 208.58 18.2558ZM169.854 18.2606C170.633 18.524 169.768 18.2689 169.802 18.5463C170.329 18.5563 171.62 18.57 170.731 18.2973C170.558 18.2445 170.099 18.2786 169.854 18.2606ZM169.141 18.1679C169.058 18.2577 168.498 18.5409 168.982 18.5207C169.205 18.5108 169.565 18.1961 169.141 18.1679ZM202.688 18.379C201.991 18.1335 205.18 18.2652 205.268 18.3082C205.315 18.331 205.347 18.3524 205.366 18.3705C205.487 18.2927 206.085 18.2787 206.154 18.4755C205.976 18.4592 205.484 18.4765 205.425 18.4547C205.4 18.4454 205.381 18.4367 205.368 18.4279C205.154 18.5987 202.822 18.4256 202.688 18.379ZM197.409 18.1264C198.207 17.7641 198.342 18.38 198.275 18.3998C197.414 18.6519 197.975 18.1977 197.95 18.1764C197.889 18.141 197.272 18.3517 197.411 18.1264C197.41 18.1264 197.41 18.1264 197.409 18.1264ZM201.606 18.2777C201.633 18.2697 202.31 18.2888 202.331 18.2985C202.875 18.5054 200.995 18.4524 201.606 18.2777ZM70.486 18.163C70.965 18.2242 70.4953 18.4508 70.1765 18.3693C70.1502 18.3612 70.0631 18.1089 70.486 18.163ZM168.758 18.2289C168.693 18.2048 167.773 18.143 167 18.1549C166.409 18.1641 165.909 18.2175 165.983 18.3668C166.066 18.353 166.498 18.3645 167 18.3747C167.974 18.3943 169.21 18.4089 168.758 18.2289ZM147.577 18.1459C148.076 18.1485 147.533 18.4713 147.265 18.351C147.166 18.3063 147.452 18.1454 147.577 18.1459ZM58.6195 18.3363C58.1011 18.5136 58.2083 17.9188 58.6577 18.1227C58.6753 18.1307 58.6399 18.3294 58.6195 18.3363ZM151.568 18.3314C149.848 18.527 150.254 17.5038 152.496 17.8492C152.426 17.8948 152.355 17.9404 152.285 17.986C154.862 18.1395 152.469 18.0581 151.826 18.1154C151.585 18.1371 151.786 18.3079 151.57 18.3327C151.569 18.3322 151.569 18.3318 151.568 18.3314ZM144.945 18.1263C143.292 17.4001 146.453 17.873 147.367 17.7784C146.475 18.0783 145.342 18.0329 146.896 18.34C144.621 18.3994 145.565 18.1101 145.476 18.0861C145.368 18.0591 145.016 18.1575 144.945 18.1263ZM149.328 18.1215C149.425 18.1003 150.139 18.2481 150.405 18.224C150.037 18.4721 148.693 18.2655 149.328 18.1215ZM191.876 18.2948C191.938 18.1004 192.077 17.9573 192.655 18.0299C192.476 18.1276 192.114 18.2116 191.876 18.2948ZM18.2729 18.1532C17.8789 18.1393 17.098 18.066 17.3375 18.2704C17.3638 18.2878 18.2712 18.2679 18.2729 18.1532ZM160.526 18.0714C160.442 18.0475 158.282 18.0315 159.028 18.246C159.25 18.3107 161.221 18.2832 160.526 18.0714ZM171.719 18.0958C171.538 18.0938 170.803 18.1304 170.788 18.1764C170.737 18.3353 171.64 18.248 171.719 18.0958ZM16.291 17.9542C16.2393 17.934 15.0385 17.9698 15.1705 18.0641C15.4212 18.2424 16.4684 18.0237 16.291 17.9542ZM72.2242 17.7076C72.3242 17.7004 72.4563 17.9116 72.4909 17.9139C72.5668 17.9169 74.4146 17.8357 73.7095 18.1068C73.5869 18.1522 70.9533 18.0481 70.606 18.0214C70.4732 17.7315 71.6033 18.0072 71.8767 17.9774C71.925 17.9717 71.956 17.7292 72.2234 17.7088C72.2236 17.7084 72.2239 17.708 72.2242 17.7076ZM194.848 18.0897C194.93 17.9054 197.083 17.7834 197.064 18.0067C196.325 18.0344 195.588 18.0621 194.848 18.0897ZM193.752 18.0592C193.293 17.9288 194.367 17.8857 194.689 17.9432C194.692 18.0672 193.818 18.0783 193.752 18.0592ZM167.624 17.4073C167.407 17.4524 168.074 17.7213 167.925 17.7736C167.829 17.8061 167.344 17.7053 167.188 17.7894C167.145 17.8161 167.641 18.0689 167.783 18.058C167.986 18.0434 167.79 17.8445 168.011 17.8431C168.745 17.8389 169.4 17.9807 170.09 17.9774C170.152 17.9767 169.667 17.8363 170.201 17.8383C170.284 17.8383 170.775 18.0475 171.412 18.0165C172.814 17.3685 173.85 18.0047 175.63 17.7711C175.56 17.7101 174.232 17.5464 174.151 17.5404C172.662 17.4338 169.991 17.4221 168.431 17.4208C168.032 17.4202 168.226 17.5573 168.054 17.5624C167.918 17.5661 168.08 17.3121 167.624 17.4073ZM18.4818 18.0128C18.2941 17.7592 17.6371 17.9197 17.2179 17.9066C17.3656 18.1354 18.0708 17.9566 18.4818 18.0128ZM184.056 17.8627C183.841 17.8725 183.197 17.7961 183.14 17.8724C183.073 17.9722 184.007 18.0351 184.056 17.8627ZM82.58 17.7796C82.6006 17.7727 83.1089 17.7863 83.128 17.7943C83.5822 17.9979 82.0572 17.9561 82.58 17.7796ZM94.687 17.8285C95.0732 17.7972 95.4609 17.7179 95.5899 17.9237C95.3457 17.8922 94.6419 17.9718 94.687 17.8285ZM111.391 17.8224C111.313 17.5529 112.469 17.7274 112.684 17.7516C112.605 17.8713 111.451 18.0166 111.391 17.8224ZM191.793 17.4488C192.496 17.4648 192.349 17.0566 192.798 17.2413C192.87 17.2725 193.112 18.1226 192.329 17.8041C192.189 17.7468 192.734 17.5448 191.793 17.4488ZM152.86 17.8578C153.039 17.6795 153.599 17.7324 153.981 17.7467C153.895 17.8792 153.127 17.8451 152.86 17.8578ZM14.1222 17.7503C13.7914 17.4987 12.2614 17.6854 12.64 17.8517C12.6939 17.8734 13.9078 17.7408 14.1222 17.7503ZM64.3965 17.8492C65.0267 17.651 63.7217 17.5896 63.3076 17.7833C63.4951 17.7706 64.3543 17.8623 64.3965 17.8492ZM107.38 17.6759C107.41 17.6678 108.072 17.6869 108.101 17.6966C108.645 17.9036 106.77 17.8506 107.38 17.6759ZM90.707 17.5013C90.9409 17.3382 92.533 17.4698 92.8854 17.6332C92.5446 17.8716 90.4056 17.705 90.707 17.5013ZM188.887 17.5648C189.384 17.5564 189.874 17.6066 190.329 17.6771C190.237 17.8144 188.937 17.6674 188.887 17.5648ZM109.831 17.6588C109.867 17.6599 109.901 17.6754 109.935 17.6771C109.9 17.6713 109.865 17.6646 109.831 17.6588ZM177.61 17.4684C177.189 17.4141 177.276 17.6657 177.302 17.6735C177.619 17.7549 178.085 17.5296 177.61 17.4684ZM17.999 17.6393C17.8526 17.4122 17.1434 17.5883 16.735 17.5343C16.8535 17.7136 17.6702 17.6631 17.999 17.6393ZM143.167 17.6612C142.637 17.415 144.796 17.129 145.252 17.2877C145.278 17.4398 143.253 17.6949 143.167 17.6612ZM62.4399 17.5086C62.398 17.3307 61.4932 17.5454 61.6853 17.6295C61.8073 17.683 62.4653 17.6192 62.4399 17.5086ZM146.337 17.3915C146.536 17.3372 147.012 17.5127 146.845 17.6197C146.626 17.7569 146.286 17.407 146.337 17.3915ZM164.527 17.2486C164.436 17.2214 163.248 17.4041 163.739 17.5856C164.079 17.7117 164.133 17.4545 164.214 17.4537C164.307 17.4545 166.218 17.7693 164.527 17.2486ZM131.083 17.5062C131.524 17.4378 132.082 17.5172 132.55 17.5123C132.361 17.6223 131.267 17.6524 131.083 17.5062ZM65.9338 17.461C65.8278 17.3891 62.8489 17.3457 64.5414 17.5672C64.641 17.5798 66.2649 17.679 65.9338 17.461ZM191.793 17.4488C191.704 17.4468 191.6 17.4383 191.48 17.4208C191.6 17.4277 191.703 17.4397 191.793 17.4488ZM183.77 17.422C183.932 17.2925 183.118 17.2578 182.873 17.3268C182.8 17.485 183.75 17.4401 183.77 17.422ZM132.586 17.3316C132.858 17.2575 133.342 17.3366 133.681 17.328C133.618 17.4484 132.706 17.454 132.586 17.3316ZM113.535 17.1961C114.079 17.2677 114.741 17.2348 114.751 17.0875C114.762 17.1105 114.788 17.1349 114.831 17.1595C114.875 17.1838 115.449 17.1153 115.696 17.1656C117.201 17.4642 109.902 17.341 114.136 16.9251C113.936 17.0155 113.736 17.1058 113.535 17.1961ZM88.5646 17.1546C88.2559 16.9753 87.4075 17.2 87.6277 17.2706C87.781 17.319 88.8701 17.3351 88.5646 17.1546ZM100.33 17.0484C100.235 17.0164 99.4038 17.142 99.3826 17.2364C99.8559 17.3359 100.75 17.1971 100.33 17.0484ZM86.2177 16.9447C86.0253 16.9176 85.7791 17.2067 85.8018 17.2193C85.998 17.3249 86.5409 17.1056 86.2177 16.9447ZM190.327 16.67C190.048 16.5872 189.129 16.7965 188.936 16.9874C188.899 16.9505 188.8 16.9023 188.617 16.8446C188.618 16.8446 188.618 16.8446 188.619 16.8446C188.37 16.7674 181.019 16.6832 185.95 17.0509C186.104 17.0627 185.89 16.8913 186.523 16.9215C186.565 16.9237 186.586 17.0636 186.714 17.0704C187.005 17.0852 188.58 17.1732 188.898 17.0606C188.901 17.0866 188.921 17.1112 188.964 17.1339C189.346 17.3357 190.551 16.7338 190.327 16.67ZM101.99 17.0228C101.823 16.9709 101.291 17.0202 101.235 17.1436C101.5 17.2042 102.379 17.1437 101.99 17.0228ZM65.8418 16.9544C65.5005 16.8529 64.6325 17.0427 64.8948 17.1436C65.0563 17.2057 66.2359 17.071 65.8418 16.9544ZM96.6542 17.0887C98.6192 17.2347 97.1221 17.0769 97.423 16.8958C97.1625 16.9601 96.9097 17.0244 96.6542 17.0887ZM199.427 17.1375C199.111 17.0959 199.485 16.7386 199.823 16.9325C199.93 16.994 199.603 17.1602 199.427 17.1375ZM213.574 17.0265C213.307 16.7096 214.613 16.8958 214.104 17.1131C214.08 17.1205 213.594 17.0385 213.574 17.0265ZM203.689 16.8971C203.471 17.1128 203.339 17.1384 202.739 17.0851C203.626 17.0243 202.803 16.8335 203.689 16.8971ZM114.745 17.0643C114.748 17.073 114.751 17.0795 114.751 17.0875C114.747 17.0796 114.745 17.072 114.745 17.0643ZM84.37 17.0008C84.125 16.8181 83.435 16.8315 83.6405 17.0155C83.6605 17.0325 84.2697 17.1358 84.37 17.0008ZM188.936 16.9874C188.969 17.0201 188.952 17.0413 188.898 17.0606C188.895 17.0362 188.909 17.0132 188.936 16.9874ZM88.0696 16.8519C88.0418 16.9882 89.0969 17.0412 89.139 17.0252C89.745 16.7888 88.4982 16.8437 88.0696 16.8519ZM58.9034 16.7628C58.8494 16.777 59.1977 17.1289 59.4109 16.991C59.576 16.8841 59.1058 16.7086 58.9034 16.7628ZM205.721 16.8092C206.06 16.8094 206.517 16.8092 206.61 16.9764C206.385 16.9507 205.718 16.9318 205.721 16.8092ZM213.063 16.797C212.67 16.9935 211.773 16.9929 211.2 16.9605C211.189 16.7019 212.694 16.8578 213.063 16.797ZM191.23 16.7664C191.205 16.7559 190.37 16.6787 190.483 16.8519C190.653 17.1058 191.463 16.8606 191.23 16.7664ZM60.5217 16.9495C60.8956 16.8303 60.0347 16.4638 59.6412 16.7469C59.438 16.8919 60.459 16.9695 60.5217 16.9495ZM82.2127 16.7615C81.7214 16.8618 82.9422 17.0403 83.1138 16.8592C82.8871 16.8447 82.3866 16.7261 82.2127 16.7615ZM98.9511 16.5784C97.4015 16.0562 98.2453 17.0089 98.5208 16.9251C98.5597 16.9132 98.989 16.5907 98.9511 16.5784ZM10.2769 16.7066C10.0577 16.7792 10.8748 17.042 10.9811 16.869C11.0464 16.7607 10.4171 16.6604 10.2769 16.7066ZM122.285 16.9178C122.22 16.9195 122.156 16.9212 122.092 16.9227C122.14 16.9142 122.203 16.9114 122.285 16.9178ZM77.7532 16.0621C78.8425 16.7994 78.7266 16.2311 78.8213 16.2342C79.0237 16.2421 79.5022 16.4415 79.8899 16.4087C79.4454 16.4918 79.0022 16.5748 78.563 16.6578C78.9034 16.711 81.9528 16.9824 82.0086 16.8629C82.0995 16.6926 81.1486 16.746 81.1203 16.731C81.0803 16.7097 80.9313 16.2363 80.8428 16.2183C80.6974 16.1895 78.1568 16.1797 77.7532 16.0621ZM95.7106 16.6602C95.9597 16.7165 96.0303 16.904 96.1458 16.8592C96.1851 16.8439 96.1915 16.665 96.3256 16.6187C96.121 16.6326 95.916 16.6464 95.7106 16.6602ZM75.7961 16.7249C75.4859 16.5063 76.8741 16.5893 76.9189 16.6138C77.1577 16.762 76.0447 16.9035 75.7961 16.7249ZM87.5482 16.6932C87.4985 16.6804 86.4357 16.6122 86.4437 16.7335C86.7269 16.8259 88.1439 16.8529 87.5482 16.6932ZM96.4912 16.6065C96.8612 16.6274 97.5687 16.8075 97.4883 16.5381C97.4877 16.5381 97.4872 16.5381 97.4866 16.5381C97.1493 16.5609 96.8226 16.5837 96.4912 16.6065ZM61.7983 16.3807C61.1064 15.9517 61.4346 16.4937 62.0466 16.6321C62.232 16.4395 61.9117 16.4505 61.7983 16.3807ZM59.5799 16.0608C59.3895 15.9836 57.4061 16.0682 57.7083 16.2952C57.8165 16.3761 58.9568 16.1721 59.0088 16.1878C59.0883 16.211 58.7253 16.4622 59.3322 16.4124C59.2967 16.3273 59.6456 16.0866 59.5799 16.0608ZM61.2255 16.106C60.5369 15.7797 60.3816 16.3815 60.9 16.3831C61.1025 16.3842 61.3237 16.1531 61.2255 16.106ZM64.0351 16.1573C63.7882 16.1002 63.122 16.017 62.672 16.2171C63.2757 16.2342 63.8916 16.2513 64.4989 16.2684C64.5691 16.155 64.2521 16.2074 64.0334 16.1573C64.0339 16.1573 64.0345 16.1573 64.0351 16.1573ZM217.197 15.2552C216.65 15.0845 217.91 15.0191 217.963 15.0611C218.121 15.2002 217.441 15.3314 217.197 15.2552ZM6.00746 11.2401C5.8556 11.1721 5.75632 10.9483 5.42204 11.0655C5.75829 11.2307 6.0945 11.3959 6.43068 11.5611C6.69193 11.1826 6.17345 11.3151 6.00746 11.2401ZM4.72343 9.85698C4.77093 9.84781 4.51145 9.26572 5.12514 9.65433C5.5399 9.91673 3.28459 10.1725 2.8779 9.91435C3.32744 9.79442 4.3145 9.93171 4.72343 9.85698ZM0.773914 7.33735C0.747918 7.29093 1.60455 7.22284 1.7037 7.25556C2.22432 7.42806 0.914583 7.58604 0.773914 7.33735ZM3.50653 7.44844C3.10481 7.3354 3.9948 7.26254 4.26013 7.32758C4.28589 7.43593 3.56852 7.46491 3.50653 7.44844ZM211.661 6.82465C211.227 6.42905 210.838 7.28067 211.507 7.10909C211.539 7.10102 211.68 6.84403 211.661 6.82465ZM1.61139 6.75017C2.01312 6.86321 1.12316 6.93607 0.857912 6.87102C0.833248 6.7628 1.55022 6.73364 1.61139 6.75017ZM211.356 5.88224C211.151 5.78136 211.044 5.8362 210.995 5.95078C210.937 6.08662 210.959 6.30643 210.995 6.45027C211.014 6.52749 211.037 6.58281 211.053 6.59149C211.351 6.74354 212.37 6.36854 212.578 6.27532C211.053 6.4187 211.627 6.01638 211.356 5.88224ZM208.693 6.45599C208.16 6.55792 209.526 6.75286 209.788 6.48651C209.522 6.49925 208.844 6.42653 208.693 6.45599ZM205.444 6.14958C205.159 6.11536 204.297 6.03343 204.157 6.18376C204.465 6.15654 205.324 6.30427 205.444 6.14958ZM204.793 5.69912C204.342 5.49485 204.23 6.09002 204.754 5.91275C204.774 5.90589 204.809 5.71048 204.793 5.69912ZM202.262 5.48427C201.971 5.24758 201.626 5.82397 202.11 5.83951C202.251 5.84306 202.293 5.5114 202.262 5.48427ZM210.633 4.85436C210.21 4.75273 209.666 5.16549 210.568 5.21082C210.251 5.2739 209.934 5.33697 209.617 5.40004C210.729 5.61757 210.718 5.12457 210.995 5.08449C211.013 5.08195 211.032 5.08123 211.052 5.08264C211.527 5.11628 211.489 5.58864 211.394 5.73697C211.784 5.44757 213.435 5.44294 214.391 5.38783C213.551 5.26638 212.189 5.05583 211.361 4.97888C211.235 4.96714 211.112 4.99759 210.995 5.02689C210.889 5.05316 210.788 5.07851 210.693 5.07166C210.37 5.04773 210.657 4.86121 210.635 4.85436C210.634 4.85436 210.633 4.85436 210.633 4.85436ZM198.936 5.47572C198.066 5.20761 198.622 5.78648 199.104 5.68325C199.125 5.67531 198.957 5.48228 198.936 5.47572ZM0.460375 4.99107C1.62006 5.23303 0.777246 5.55372 3.20303 5.06676C2.18393 5.4115 3.14668 5.31468 2.94775 5.45373C2.78818 5.56375 2.19021 5.47264 2.5378 5.69422C2.08096 5.45305 0.0972231 5.51975 0.00877647 5.48059C0.00960815 5.48059 0.0104398 5.48059 0.0112715 5.48059C-0.0418462 5.45739 0.090309 4.91412 0.460375 4.99107ZM205.44 4.63585C205.149 3.93347 205.039 5.0483 204.466 4.46617C203.708 5.31151 206.563 4.46629 206.906 5.1803C203.811 5.09734 208.953 5.8878 206.789 4.81896C208.572 5.2069 207.373 4.68659 207.648 4.5504C207.939 4.40532 208.951 4.56299 208.897 4.30137C208.896 4.30137 208.896 4.30137 208.895 4.30137C208.279 4.31968 207.666 4.33799 207.049 4.3563C207.652 4.92066 206.392 4.75144 205.967 4.2916C205.79 4.40635 205.617 4.5211 205.44 4.63585ZM208.925 5.16566C208.862 5.15273 207.526 5.23183 207.612 5.34511C207.789 5.41735 209.691 5.33073 208.925 5.16566ZM214.82 5.04236C214.339 5.04098 213.595 4.93088 213.333 5.14368C213.814 5.14511 214.558 5.25528 214.82 5.04236ZM190.053 5.00207C189.441 5.1767 191.329 5.22843 190.782 5.02161C190.755 5.01187 190.082 4.99392 190.053 5.00207ZM204.045 4.74206C203.427 4.5274 203.715 5.21064 204.18 5.03259C204.207 5.0221 204.075 4.75184 204.045 4.74206ZM1.40015 4.90806C1.44188 4.74066 3.12439 4.85824 3.42255 4.85679C3.25317 5.01239 1.35234 5.09996 1.40015 4.90806ZM215.666 4.41612C214.709 3.8142 213.41 4.50944 213.268 4.49424C213.126 4.47876 213.349 4.21565 213.316 4.20859C213.243 4.19383 211.734 4.21591 211.661 4.23422C211.609 4.2485 211.883 4.61826 211.571 4.73473C212.178 4.52463 214.936 4.65607 215.079 4.6151C215.19 4.58238 214.354 4.1941 215.665 4.41612C215.665 4.41612 215.666 4.41612 215.666 4.41612ZM212.912 4.41367C213.288 4.56866 212.233 4.58806 211.976 4.53087C211.409 4.40288 212.864 4.39531 212.912 4.41367ZM210.371 4.27085C210.251 4.23608 209.161 4.20451 209.069 4.37705C209.585 4.60089 210.644 4.35185 210.371 4.27085ZM198.255 4.29404C197.976 4.31615 197.194 4.18355 197.151 4.33432C197.43 4.31233 198.214 4.44483 198.255 4.29404ZM7.14065 3.59209C6.67078 3.46593 7.75965 3.41439 8.07742 3.4749C8.0947 3.57548 7.18059 3.60293 7.14065 3.59209ZM203.939 3.30035C203.831 3.2703 202.331 3.30908 201.164 3.35925C200.56 3.38564 200.045 3.41518 199.876 3.43951C200.042 3.47917 200.56 3.5061 201.164 3.52201C202.317 3.55184 203.783 3.54295 203.885 3.50666C203.929 3.48999 203.96 3.30756 203.939 3.30035ZM211.326 3.23077C211.64 3.00874 211.843 3.27503 211.884 3.27838C212.27 3.31235 213.075 3.26229 212.898 3.47614C212.215 3.38986 210.702 3.67169 211.326 3.23077ZM198.014 3.28936C196.849 3.37176 199.083 3.60568 198.79 3.37359C198.772 3.35956 198.131 3.28071 198.014 3.28936ZM204.322 3.23565C204.579 3.05624 207.991 3.21097 208.543 3.21124C208.05 3.54215 207.653 3.2908 206.996 3.30767C206.818 3.31262 206.864 3.45029 206.845 3.4505C206.539 3.45688 206.769 3.29788 206.579 3.29547C206.455 3.29438 203.96 3.48843 204.322 3.23565ZM211.505 3.07695C211.696 2.94967 213.83 2.89542 213.916 2.92924C214.558 3.18081 211.671 3.12126 211.505 3.07695ZM204.007 2.94145C204.373 2.55686 206.072 2.81442 204.909 3.00615C204.803 3.02359 204.334 2.85688 204.007 2.94145ZM198.137 2.92314C198.081 2.91183 196.873 2.83495 196.847 2.95732C197.028 3.00487 198.783 3.04753 198.137 2.92314ZM198.765 2.5093C198.735 2.51224 199.021 2.74792 198.45 2.71805C198.398 2.71524 198.322 2.45008 197.6 2.54715C197.457 2.56714 197.235 2.74255 197.251 2.75345C197.995 3.16958 200.226 2.37259 198.765 2.5093ZM211.544 2.8621C211.43 2.75018 211.706 2.41798 211.957 2.58621C212.064 2.65885 211.864 2.85822 211.544 2.8621ZM194.3 2.81571C195.005 2.61424 192.795 2.57615 192.685 2.62772C192.756 2.75321 194.23 2.83539 194.3 2.81571ZM8.24129 2.03686C8.24074 2.03686 8.24018 2.03686 8.23963 2.03686C8.83122 2.08251 8.46479 2.25011 8.4925 2.25537C9.75245 2.50154 9.41815 2.12194 9.61516 2.07714C10.0375 1.98026 9.9695 2.44188 10.6817 2.25049C9.5044 2.53312 10.576 2.41464 10.6094 2.57887C10.7414 3.24908 9.0418 2.26505 8.45424 2.40552C8.3724 2.42498 8.97664 2.63887 8.76697 2.69972C8.08536 2.89689 5.97077 1.86228 8.24129 2.03686ZM212.149 2.55691C212.424 2.36005 214.505 2.55099 213.953 2.71317C213.864 2.73917 211.747 2.84386 212.149 2.55691ZM114.933 2.26637C115.431 2.096 114.277 1.89572 114.059 2.02832C113.953 2.09438 114.715 2.34114 114.933 2.26637ZM106.807 1.53758C106.212 1.57216 105.58 2.28262 106.324 2.17237C106.403 2.16032 106.875 1.63613 106.807 1.53758ZM145.832 1.90259C145.211 1.64869 145.247 2.12043 145.704 2.11378C145.865 2.1115 145.852 1.91062 145.832 1.90259ZM122.145 1.96362C122.084 1.94716 121.368 1.97728 121.393 2.0857C121.66 2.15075 122.545 2.07666 122.145 1.96362ZM146.029 1.83545C145.662 1.92047 146.293 2.26167 146.741 1.92822C146.512 1.95557 146.067 1.82676 146.029 1.83545ZM202.727 1.89893C202.435 2.07786 201.683 2.04157 201.164 2.06122C201.122 2.06285 201.083 2.06485 201.045 2.06739C201.035 2.01701 201.081 1.98191 201.164 1.9576C201.512 1.86083 202.432 1.93529 202.727 1.89893ZM109.329 1.82323C108.766 2.00011 109.972 2.14491 109.861 1.91113C109.846 1.89843 109.352 1.81569 109.329 1.82323ZM165.852 1.80981C165.443 1.95951 166.743 2.16083 166.385 1.89771C166.368 1.88698 165.875 1.80148 165.852 1.80981ZM171.524 1.89649C171.209 1.84599 169.892 1.86152 170.406 2.00757C170.486 2.03002 171.498 2.0336 171.524 1.89649ZM9.65008 1.89647C9.48295 1.63867 10.4531 1.70004 10.5919 1.7451C10.6465 1.76384 9.86814 2.23188 9.65008 1.89647ZM141.801 1.8623C141.474 1.89456 140.648 1.83326 140.501 1.96851C140.891 1.94051 141.906 2.13171 141.801 1.8623ZM111.895 1.82201C111.405 1.54188 110.559 1.56953 110.768 1.93554C111.7 1.91102 110.656 1.60656 111.895 1.82201ZM148.095 1.53392C147.839 1.51255 147.642 1.86405 147.671 1.88061C147.95 2.03817 148.349 1.67068 148.095 1.53392ZM128.774 1.82324C128.76 1.67302 127.935 1.7412 128.045 1.83789C128.081 1.87034 128.786 1.9448 128.774 1.82324ZM191.916 1.81348C191.538 1.67637 192.693 1.54232 193.034 1.70239C193.202 1.93303 191.961 1.82923 191.916 1.81348ZM155.236 1.62181C155.27 1.39889 153.988 1.52493 154.493 1.70971C154.62 1.75594 155.22 1.69635 155.236 1.62181ZM167.588 1.35447C166.723 1.62031 170.356 1.80904 169.401 1.47777C169.334 1.45417 167.663 1.33202 167.588 1.35447ZM173.523 1.52049C173.374 1.4912 173.447 0.742117 174.065 1.03097C174.147 1.06844 173.765 1.26646 173.832 1.31175C173.873 1.33756 175.216 1.44276 175.277 1.42528C175.344 1.40542 175.265 1.16533 175.333 1.1384C175.411 1.1083 176.237 1.31921 176.67 1.32151C177.49 1.32547 177.574 1.12563 177.641 1.12497C177.833 1.12365 178.167 1.26553 178.56 1.26536C180.549 1.26376 183.599 1.09438 185.179 1.51805C183.774 1.34792 182.436 1.52843 181.036 1.58397C181.446 1.16685 178.979 1.90537 180.42 1.42406C179.754 1.52846 174.014 1.61195 173.525 1.52049C173.524 1.52049 173.523 1.52049 173.523 1.52049ZM104.459 1.32761C104.825 1.07185 102.95 1.12938 102.786 1.42527C103.038 1.46633 104.416 1.3566 104.459 1.32761ZM113.098 0.703808C113.267 0.659661 113.442 0.159727 114.355 0.41327C114.356 0.41327 114.357 0.41327 114.358 0.41327C114.625 0.487314 114.321 0.609129 114.369 0.652537C114.388 0.670261 115.218 0.918951 114.528 0.958945C113.473 1.0203 114.43 0.587026 113.865 0.581733C113.795 0.581323 112.729 0.851935 112.794 0.911335C112.8 0.918255 113.117 0.861009 113.169 0.8857C113.369 0.97851 113.272 1.13463 113.3 1.14206C113.397 1.1611 115.083 0.895128 115.321 1.12741C115.41 1.20231 112.632 1.3751 112.535 1.33616C112.468 1.31162 112.496 0.878269 112.426 0.835649C112.391 0.81442 111.28 0.976809 111.133 0.936971C111.091 0.925448 111.059 0.913027 111.035 0.90279C111.202 1.03686 110.197 1.02721 110.229 0.875934C110.246 0.816476 110.934 0.850891 110.962 0.861284C110.973 0.865685 110.983 0.871749 110.991 0.875934C110.852 0.712543 113.194 0.719913 112.687 0.476749C113.361 0.34354 112.592 0.833462 113.098 0.703808ZM116.367 0.436464C116.297 0.482039 116.226 0.527613 116.155 0.573187C117.349 0.461638 118.721 0.681028 120.086 0.679394C120.43 0.679311 120.034 0.400583 120.485 0.476749C120.855 0.537788 121.26 0.796317 121.061 0.853961C121.012 0.868343 120.263 0.699956 119.897 0.717237C118.803 0.768396 119.077 1.00742 119.014 1.01388C118.945 1.02067 118.242 0.852579 117.871 0.860064C116.933 0.879411 116.485 1.02616 115.194 0.834428C115.936 0.676896 115.529 0.33467 116.367 0.436464ZM160.686 0.94552C160.73 0.795071 161.508 0.928553 161.792 0.906457C161.748 1.05728 160.966 0.923412 160.686 0.94552ZM44.7303 0.750191C44.492 0.997076 46.2801 1.05821 45.8088 0.852734C45.7048 0.807132 44.9554 0.751947 44.7303 0.750191ZM52.7758 0.900343C53.0148 0.832085 52.0526 0.654332 52.0541 0.845409C52.0557 0.906683 52.7452 0.90922 52.7758 0.900343ZM131.735 0.679395C131.781 0.671664 132.443 0.726651 132.463 0.739211C132.903 1.00136 130.719 0.849843 131.735 0.679395ZM62.5601 0.596377C61.7256 0.758199 64.2388 0.828338 63.4704 0.622013C63.4308 0.611964 62.5995 0.588513 62.5601 0.596377ZM66.0539 0.55121C65.8548 0.559883 64.9674 0.479535 64.9555 0.554872C64.9381 0.676413 65.9537 0.759459 66.0539 0.55121ZM148.268 0.601268C148.166 0.323093 149.351 0.533755 149.753 0.498726C149.851 0.777093 148.677 0.566139 148.268 0.601268ZM140.87 0.396181C145.815 0.176894 144.714 0.771229 140.577 0.531685C140.57 0.353227 140.559 0.409992 140.87 0.396181ZM147.199 0.429142C147.018 0.607351 146.456 0.554507 146.079 0.54023C146.147 0.41633 146.922 0.461171 147.199 0.429142ZM42.5948 0.368095C42.9051 0.142977 44.2805 0.420509 44.0358 0.513365C43.9797 0.533418 42.4797 0.491896 42.5948 0.368095ZM132.151 0.441348C132.039 0.170815 133.515 0.281166 133.63 0.341247C134.085 0.58291 132.275 0.381638 132.151 0.441348ZM155.284 0.363222C155.549 0.151317 156.289 0.260309 156.769 0.263121C156.547 0.444316 155.695 0.367035 155.284 0.363222ZM151.827 0.197201C151.857 0.189067 152.528 0.208198 152.557 0.217953C153.107 0.424925 151.209 0.371919 151.827 0.197201ZM7.42101 0.00186794C7.44327 -0.00496132 7.94916 0.00855134 7.96678 0.0165164C8.41832 0.219966 6.89998 0.178394 7.42101 0.00186794Z" fill="#383838"/>
</svg>
