<svg width="222" height="8" viewBox="0 0 222 8" fill="none" xmlns="http://www.w3.org/2000/svg">
<path d="M17.1783 7.93611C17.3156 7.92596 17.8678 7.95064 18.1066 7.94636C17.8359 8.05368 16.6831 7.97295 17.1783 7.93611ZM41.7137 0.14333C41.5153 0.169861 41.3167 0.196392 41.1181 0.222923C41.6827 0.240162 42.4402 0.220689 42.9624 0.245873C43.0478 0.250103 42.8262 0.326919 43.0283 0.330349C43.2305 0.333758 43.1914 0.228781 43.4853 0.217552C43.8174 0.205276 45.3327 0.27841 45.8556 0.276636C47.8135 0.26955 49.7886 0.209599 51.7571 0.253198C49.7252 0.330863 51.7738 0.409908 52.3409 0.376249C52.4672 0.368456 52.4451 0.173295 54.4794 0.222435C55.7742 0.253618 54.5811 0.532628 56.7359 0.392852C55.0807 0.197665 56.7053 0.211344 58.0086 0.204856C58.2344 0.203707 60.046 0.233032 60.841 0.224388C61.1159 0.221382 61.5343 0.119156 61.8979 0.116474C62.1481 0.114704 62.3372 0.170591 62.708 0.167745C64.4288 0.155149 66.1419 0.150803 67.8671 0.169698C66.8505 0.432394 68.6651 0.281656 68.7454 0.294215C69.1594 0.365539 67.2871 0.385841 68.0278 0.430451C69.0641 0.422312 70.0911 0.414174 71.1213 0.406036C70.2707 0.373782 72.2474 0.184821 72.6077 0.270777C72.4469 0.0386493 77.3066 0.472811 78.0473 0.395293C78.2007 0.378919 77.1937 0.264194 79.5342 0.316677C79.7871 0.322508 79.6914 0.392544 79.8239 0.386015C79.9044 0.38209 80.3797 0.159491 80.8963 0.282496C81.0831 0.327391 79.8846 0.473589 82.5216 0.414825C81.4708 0.188263 86.1781 0.292128 87.0336 0.348905C86.8587 0.318467 86.6894 0.28803 86.517 0.257592C87.3669 0.339702 87.529 0.262672 87.7206 0.26687C88.5016 0.283731 89.5589 0.36136 90.2843 0.354276C91.1346 0.346125 91.1381 0.205226 92.1224 0.260034C91.8892 0.228945 91.6554 0.197857 91.4213 0.166769C92.1052 0.174256 92.7728 0.181743 93.4619 0.18923C91.8798 0.375743 93.8032 0.198129 93.9307 0.194113C94.1328 0.187325 93.8425 0.263683 94.1803 0.254174C94.2151 0.252609 94.1652 0.180704 94.6845 0.172628C95.7676 0.156001 95.5939 0.246408 96.0481 0.245385C96.0899 0.244919 95.9438 0.18014 96.7351 0.164815C99.2388 0.116029 96.7249 0.214457 96.6262 0.223412C96.5022 0.235221 97.3524 0.505932 95.2336 0.409942C95.9438 0.4405 96.0129 0.560294 96.095 0.563268C96.1679 0.565713 97.409 0.548839 97.476 0.544713C98.0831 0.504033 97.549 0.42217 97.6673 0.407501C97.7659 0.395674 99.244 0.502357 99.6008 0.256128C100.32 0.483246 99.1781 0.462438 97.9969 0.497348C97.8252 0.543954 99.1244 0.589272 99.2003 0.589148C100.901 0.588734 99.9588 0.401916 100.33 0.282496C100.525 0.220013 101.213 0.347466 100.577 0.179953C102.108 0.162271 101.179 0.259341 101.279 0.273706C101.427 0.294812 101.961 0.246803 102.031 0.253198C102.131 0.262665 101.785 0.320663 102.177 0.341092C102.242 0.344062 102.874 0.244259 102.059 0.196555C103.147 0.210743 103.055 0.12564 103.422 0.297145C104.165 -0.0273204 103.96 0.488933 104.252 0.507114C105.025 0.555037 104.806 0.30029 104.845 0.287867C105.081 0.222835 106.568 0.269329 107.384 0.268518C107.571 0.268337 107.725 0.265779 107.823 0.259057C107.763 0.311166 107.598 0.333839 107.384 0.340408C106.857 0.35697 106.021 0.27117 105.78 0.296656C104.661 0.415082 107.354 0.388392 106.543 0.618934C106.824 0.566434 107.104 0.513935 107.384 0.461435C107.443 0.450618 107.501 0.439802 107.56 0.428986C108.188 0.577215 107.302 0.641851 108.985 0.587683C109.26 0.459741 107.795 0.607891 108.089 0.507114C108.264 0.447968 109.237 0.435265 109.255 0.404083C109.275 0.366547 108.396 0.411031 108.534 0.353299C108.838 0.228714 112.042 0.347319 109.601 0.415313C110.27 0.413184 110.638 0.660988 111.228 0.583777C111.607 0.53366 109.467 0.191415 112.679 0.254174C112.749 0.371189 111.398 0.288728 111.361 0.297633C111.311 0.310596 111.557 0.574649 111.6 0.587683C111.744 0.630594 115.043 0.489199 115.738 0.621864C115.471 0.469251 118.217 0.594632 118.531 0.548131C118.612 0.535293 118.31 0.44181 118.397 0.431916C118.94 0.373025 120.366 0.539901 121.05 0.544225C121.803 0.549124 121.706 0.468385 121.748 0.468538C122.078 0.473042 121.815 0.527776 122.016 0.527622C122.309 0.52736 124.425 0.538554 124.522 0.527134C124.553 0.523575 124.213 0.431344 124.667 0.413848C124.746 0.410817 124.69 0.520168 126.053 0.472933C127.682 0.416122 124.919 0.336949 125.596 0.222435C126.648 0.385485 126.61 0.223909 126.893 0.236596C126.987 0.241217 127.725 0.378592 128.52 0.369901C127.953 0.3922 127.367 0.4145 126.807 0.436799C127.354 0.460886 128.465 0.431072 128.92 0.458284C129.144 0.47153 128.96 0.584384 129.445 0.581335C129.547 0.580074 129.959 0.305128 128.684 0.428497C128.581 0.330323 129.19 0.394253 129.469 0.366483C129.51 0.362156 129.682 0.198144 130.046 0.300075C130.129 0.325153 129.195 0.80359 131.622 0.457307C131.7 0.446147 131.43 0.386229 131.506 0.373808C131.554 0.365396 132.182 0.389633 132.251 0.381132C132.322 0.372011 132.02 0.306598 132.104 0.293727C132.536 0.227401 133.101 0.486841 132.212 0.467073C132.51 0.499138 132.806 0.531203 133.101 0.563268C132.786 0.367737 133.562 0.508253 133.971 0.502231C136.603 0.463746 134.84 0.336574 135.292 0.270777C136.016 0.165131 135.453 0.499743 136.54 0.399199C136.637 0.389799 135.343 0.247761 137.876 0.327908C137.505 0.333442 137.131 0.338976 136.755 0.34451C136.975 0.533632 138.1 0.331537 138.194 0.328884C139.197 0.302917 138.525 0.371095 139.997 0.273706C140.131 0.264963 140.422 0.311637 140.706 0.288355C141.882 0.192438 139.154 0.230151 139.084 0.153585C139.045 0.116068 141.976 0.125516 142.072 0.14333C142.496 0.222298 140.751 0.178112 141.083 0.276148C141.195 0.310958 145.38 0.239463 146.212 0.277613C147.182 0.322006 147.606 0.57842 147.615 0.290308C147.891 0.573116 148.132 0.380161 148.256 0.382109C149.742 0.408288 149.758 0.411142 151.03 0.384062C151.312 0.378176 151.554 0.463984 151.654 0.449494C151.712 0.440743 151.603 0.348916 151.889 0.320583C152.283 0.281823 154.662 0.376271 154.841 0.427032C155.016 0.477794 153.837 0.449046 154.048 0.532505C154.9 0.540942 155.724 0.520292 156.586 0.529087C156.945 0.532991 156.76 0.591404 156.915 0.592566C156.983 0.593284 158.212 0.541844 158.163 0.520298C158.04 0.470195 154.227 0.503874 155.231 0.401641C155.426 0.381887 156.107 0.516496 155.999 0.352811C159.412 0.389922 162.816 0.427032 166.226 0.464143C164.268 0.586572 162.064 0.47708 160.013 0.488558C159.728 0.489975 158.781 0.474188 158.897 0.55692C160.641 0.578339 162.81 0.535233 164.484 0.589148C164.538 0.590932 164.34 0.665263 164.542 0.677042C164.919 0.699027 166.138 0.579145 166.345 0.610145C166.38 0.617367 165.683 0.715358 165.895 0.777632C166.44 0.937442 166.577 0.58349 167.042 0.587683C167.352 0.590582 169.169 0.715897 170.064 0.684956C170.218 0.679677 170.345 0.66985 170.434 0.654092C170.698 0.606819 170.444 0.587069 170.064 0.573715C169.524 0.554512 168.719 0.548532 168.825 0.492953C169.239 0.469183 169.653 0.457751 170.064 0.453774C171.303 0.441909 172.52 0.496417 173.689 0.487582C173.716 0.487281 173.479 0.413438 173.825 0.403106C174.425 0.385126 174.587 0.489869 174.88 0.506625C175.197 0.524463 176.317 0.509453 176.467 0.547642C176.486 0.55265 176.259 0.656543 176.224 0.659463C175.735 0.702282 175.562 0.56744 175.518 0.56571C175.352 0.560597 175.188 0.612244 175.036 0.609168C174.786 0.604039 174.647 0.556256 174.315 0.552037C174.088 0.548949 174.307 0.640709 174.089 0.636513C174.009 0.634601 173.138 0.425075 173.056 0.638955C173.03 0.70639 180.152 0.792989 180.861 0.739056C180.254 0.713339 179.638 0.687622 179.031 0.661905C180.268 0.724506 181.76 0.553614 181.865 0.806442C186.461 0.827113 191.058 0.847784 195.652 0.868455C196.474 0.889996 196.021 1.05246 197.374 1.00518C197.025 0.95342 196.674 0.90166 196.327 0.8499C197.019 0.886211 200.086 0.957148 200.581 0.923633C200.648 0.919241 200.733 0.772198 201.502 0.759565C202.175 0.74841 202.295 0.858582 202.653 0.879686C202.958 0.897099 203.304 0.868233 203.391 0.874315C203.459 0.879185 203.487 0.946555 203.657 0.958303C204.187 0.994625 203.756 0.804935 204.28 1.02276C204.147 1.03106 204.027 1.03936 203.899 1.04766C204.273 1.06669 204.757 1.11024 204.855 1.15252C204.883 1.16359 204.886 1.17458 204.855 1.18502C204.81 1.20075 204.692 1.21524 204.468 1.22687C204.305 1.23529 204.445 1.17011 204.324 1.17022C199.767 1.18194 203.136 1.30087 204.855 1.21704C204.914 1.2142 204.972 1.21113 205.026 1.20782C205.45 1.3044 207.829 1.24544 207.906 1.26447C208.016 1.29203 207.611 1.36922 208.141 1.43586C208.249 1.44997 211.436 1.39589 210.286 1.52424C210.049 1.55072 208.528 1.5229 208.159 1.52668C209.026 1.73138 211.051 1.43811 211.278 1.44563C212.197 1.47753 209.514 1.62302 211.583 1.64681C213.17 1.66506 211.683 1.52838 212.291 1.47004C212.637 1.43731 214.436 1.58787 214.388 1.39289C215.006 1.37207 214.644 1.47531 214.72 1.48274C214.734 1.48395 214.787 1.48293 214.867 1.48073C215.217 1.47106 216.083 1.4385 216.406 1.47199C216.453 1.4771 216.303 1.57845 216.352 1.58674C216.449 1.60094 217.621 1.58068 217.668 1.5721C217.699 1.56613 217.418 1.4774 217.533 1.45588C217.668 1.43107 218.796 1.45195 218.858 1.42658C218.946 1.38823 217.553 1.4135 217.785 1.31427C218.427 1.33926 219.474 1.27305 219.897 1.19317C219.794 1.21601 219.171 1.21929 218.955 1.21124C219.057 1.06592 220.393 1.0679 219.936 1.18292C220.226 1.12115 220.028 1.08838 220.192 1.03008C220.235 1.01532 220.647 1.01227 220.727 0.987112C220.737 0.982099 220.312 0.92727 220.397 0.897753C220.552 0.844416 221.803 0.856416 221.905 0.870409C222.193 0.910063 221.173 0.958044 221.088 1.01934C221.076 1.02875 221.943 1.14887 221.957 1.15948C222.007 1.2733 221.042 1.19128 221.152 1.29376C221.391 1.31541 221.63 1.33706 221.869 1.35871C220.948 1.46249 219.243 1.40912 218.804 1.52717C220.169 1.49204 221.599 1.4962 221.596 1.76204C221.595 1.87401 221.006 1.93964 221.029 1.96811C221.116 2.06997 221.933 1.95931 221.964 1.96469C221.989 1.9709 222 1.97694 222 1.98282C222 1.98283 222 1.98283 222 1.98283C221.999 2.04247 220.834 2.08541 220.775 2.11264C220.677 2.16102 221.196 2.36012 221.196 2.40416C221.177 2.41301 220.347 2.46012 220.627 2.53698C220.911 2.6146 221.638 2.61632 221.663 2.62438C221.802 2.67082 220.531 2.71317 220.493 2.7406C220.472 2.75446 221.155 2.83965 221.175 2.86414C221.192 2.88871 220.673 2.94234 220.469 3.0199C220.317 3.07753 220.76 3.12172 220.682 3.13075C220.627 3.13674 219.425 3.13575 219.366 3.14589C219.278 3.16087 219.56 3.22974 219.519 3.24696C219.461 3.27173 219.073 3.24687 219.123 3.27236C219.161 3.29135 220.665 3.52877 220.655 3.59219C220.638 3.70036 219.046 3.45148 220.527 3.87834C220.538 3.88114 220.898 3.8508 220.908 3.85343C221.131 3.93197 219.975 4.05278 221.389 4.03166C218.759 4.16807 221.061 4.19427 220.672 4.3764C220.522 4.44641 219.502 4.47528 219.498 4.48578C219.596 4.57459 219.922 4.50571 220.032 4.54926C220.093 4.57359 219.18 4.66749 219.386 4.72847C219.492 4.75989 220.46 4.7487 220.5 4.75483C220.883 4.81264 220.413 4.87491 220.498 4.91597C220.553 4.9435 221.138 4.94568 221.153 4.95064C221.178 4.96095 220.385 5.07219 220.219 5.11129C220.093 5.14138 220.565 5.18851 220.477 5.20163C219.949 5.28006 218.826 5.08003 219.908 5.36033C219.974 5.37751 220.384 5.37057 220.396 5.374C220.649 5.45346 219.895 5.46032 219.76 5.52537C219.528 5.63746 220.612 5.57497 219.711 5.65379C220.387 5.72709 220.764 5.72403 221.555 5.7036C219.365 5.7606 218.591 6.05076 221.024 6.04346C220.249 6.03893 220.336 6.2027 220.105 6.20557C219.961 6.20717 218.84 6.04435 219.353 6.40968C219.418 6.45532 220.1 6.39733 219.886 6.49074C218.251 6.4669 219.851 6.55017 219.853 6.56252C219.832 6.77772 215.835 6.60146 215.148 6.626C215.053 6.6294 214.958 6.63482 214.867 6.64173C214.189 6.69259 213.623 6.82406 213.47 6.82425C212.901 6.82432 213.373 6.73822 213.246 6.70657C213.115 6.6752 211.497 6.84014 211.416 6.83108C211.101 6.7947 211.422 6.69267 211.388 6.68752C210.998 6.62501 208.828 6.70489 208.212 6.68118C208.236 6.74736 209.458 6.75261 208.691 6.85892C207.801 6.98285 207.752 6.69109 207.726 6.67825C206.776 6.6789 205.814 6.67955 204.855 6.6802C201.745 6.68231 198.615 6.68443 195.502 6.68655C195.55 6.84178 198.214 6.72471 198.279 6.74514C198.627 6.86615 194.135 6.86392 193.58 6.80911C193.993 6.84264 194.425 6.87617 194.837 6.9097C194.125 7.08816 192.538 6.8563 191.501 6.93509C191.169 6.96063 191.805 7.02951 191.794 7.03422C191.421 7.10353 190.817 7.05013 191.268 6.95707C190.344 7.04623 190.487 6.94785 189.778 6.94046C189.742 6.94015 190.046 7.01217 189.485 7.04203C189.229 7.05596 187.832 7.05619 187.646 7.11918C187.57 7.1457 188.276 7.42498 188.361 7.18461C189.882 7.30178 188.848 7.07508 189.435 7.08061C189.523 7.08186 189.323 7.21603 190.801 7.15287C190.519 7.39482 188.815 7.2139 188.518 7.24321C187.914 7.30345 190.405 7.42839 190.859 7.23979C190.643 7.42859 191.039 7.26523 191.589 7.273C192.196 7.28141 191.933 7.33763 192.261 7.33794C193.154 7.33935 192.789 7.20607 193.527 7.32622C192.808 6.95427 194.79 7.27714 195.375 7.37456C194.428 7.39344 193.49 7.41232 192.544 7.4312C192.598 7.45074 192.651 7.47027 192.705 7.4898C192.459 7.48703 192.211 7.48427 191.961 7.4815C192.001 7.46278 192.041 7.44406 192.081 7.42534C190.802 7.54705 190.484 7.41026 190.382 7.40874C189.037 7.39288 187.482 7.39405 186.124 7.39361C185.917 7.39354 186.064 7.51528 184.574 7.41997C184.101 7.38962 184.549 7.29492 184.011 7.30913C183.333 7.56648 183.352 7.36121 183.151 7.36089C182.579 7.36092 182.223 7.42467 182.172 7.42534C181.466 7.43529 180.429 7.42465 179.647 7.43413C179.632 7.43511 180.035 7.51417 179.532 7.49078C179.358 7.48242 177.761 7.14491 176.37 7.25493C176.733 7.27772 177.091 7.3005 177.456 7.32329C177.03 7.29145 174.047 7.3765 174.776 7.46685C175.224 7.52207 176.315 7.30452 176.435 7.51373C175.598 7.46091 171.562 7.51928 170.064 7.50966C169.787 7.50788 169.597 7.50376 169.53 7.49615C169.471 7.48921 169.834 7.42133 169.752 7.41265C169.692 7.40603 168.43 7.42212 168.266 7.39605C168.168 7.38056 168.72 7.33895 168.676 7.3145C168.638 7.29707 167.068 7.268 166.979 7.35308C167.364 7.31892 168.448 7.34875 167.88 7.42046C167.807 7.42937 167.428 7.37449 167.339 7.38579C166.515 7.49004 168.974 7.46501 169.358 7.46587C167.812 7.57427 165.422 7.44649 163.631 7.51715C162.909 7.44633 164.699 7.40882 163.884 7.35015C162.187 7.22854 163.433 7.44807 163.38 7.45708C162.956 7.52853 161.523 7.14564 161.52 7.43706C160.901 7.3932 161.103 7.35645 160.236 7.39458C160.35 7.41477 160.464 7.43495 160.578 7.45513C159.612 7.62394 157.569 7.19806 157.722 7.16557C158.135 7.07862 159.2 7.21424 159.289 7.21098C159.418 7.20616 159.8 6.91044 161.266 7.17485C161.867 6.97651 158.936 7.04098 160.271 6.90579C159.368 6.92798 155.656 6.78993 155.126 6.87698C155.062 6.88835 155.36 7.08597 154.44 6.98539C154.006 6.93749 155.055 6.93519 154.856 6.89017C154.242 6.752 145.916 6.84038 144.33 6.84769C144.227 6.84791 144.265 6.78657 144.163 6.78714C143.846 6.78885 142.731 6.88031 142.167 6.85208C143.321 6.96561 141.088 6.97444 140.518 6.96195C139.646 6.94293 139.711 6.83499 139.337 6.81204C137.894 6.72357 135.676 6.97982 134.562 6.74026C134.617 6.97802 132.642 6.62369 131.723 6.6216C131.023 6.6199 129.991 6.77724 130.948 6.87308C129.717 6.86213 128.443 6.90649 127.281 6.92093C127.093 6.92336 127.352 6.85305 127.031 6.85941C127.002 6.86049 126.962 6.92939 126.686 6.93656C124.39 6.99661 125.504 6.8502 125.073 6.80716C124.833 6.78305 124.659 6.77107 124.529 6.76712C125.871 6.75365 127.398 6.72659 127.823 6.72463C127.466 6.57249 124.848 6.75385 124.094 6.71292C124.067 6.71143 124.16 6.62757 124.133 6.62697C124.132 6.62697 124.132 6.62697 124.131 6.62697C123.847 6.62055 122.01 6.6515 122.39 6.75149C122.483 6.77821 123.34 6.77815 124.332 6.76907C124.063 6.78783 124.264 6.88177 124.216 6.88577C123.642 6.93221 122.217 6.84052 121.722 6.82815C121.608 6.82544 121.616 6.88563 121.597 6.88577C121.14 6.8721 121.328 6.70025 120.858 6.87747C120.028 6.66329 122.41 6.84567 122.239 6.70657C122.121 6.59947 116.819 6.65699 116.85 6.82571C116.832 6.80767 116.76 6.78527 116.611 6.75979C116.282 6.70317 114.804 6.72089 114.557 6.75198C114.515 6.7581 114.532 6.92186 114.479 6.92337C114.353 6.92713 112.537 6.79874 111.88 6.89554C112.242 6.91849 112.593 6.94144 112.962 6.96439C110.784 6.96581 111.118 7.01455 111.846 7.06351C111.882 7.06396 111.918 7.07017 111.952 7.07084C112.511 7.10704 113.239 7.14191 113.251 7.15483C113.28 7.20412 109.586 7.23156 110.292 7.07963C110.396 7.05886 112.115 7.12651 111.264 7.0181C111.118 6.99911 110.002 7.03005 109.949 7.0181C109.554 6.93866 111.98 6.83312 111.681 6.72024C111.101 6.82771 110.333 6.77111 109.673 6.79886C109.37 6.8114 109.295 6.8935 109.258 6.89505C108.698 6.91649 109.012 6.8304 108.825 6.83255C108.725 6.83403 107.611 7.01725 107.822 6.76468C107.665 6.77261 107.519 6.7802 107.384 6.78746C105.192 6.90751 105.973 6.93872 107.384 6.94139C107.898 6.94235 108.492 6.93965 109.055 6.93607C108.639 6.99027 107.985 6.99709 107.384 6.99791C106.974 6.99849 106.591 6.99615 106.336 7.00492C106.113 7.01267 106.246 7.09695 105.868 7.11381C105.082 7.14848 101.375 7.05167 100.417 7.02885C101.01 6.99907 100.837 6.90726 100.379 6.91361C99.921 6.91999 100.306 7.04253 100.217 7.0557C100.12 7.06934 97.9694 7.0115 97.6148 7.02738C99.2262 6.983 98.8643 6.89145 97.4947 6.88187C97.6931 6.8555 97.8911 6.82913 98.0889 6.80276C97.2897 6.83982 95.5841 6.70016 95.1272 6.74173C95.0546 6.7484 95.3157 6.82538 95.2749 6.82913C94.8703 6.86184 93.4787 6.78334 93.4125 6.8096C93.3576 6.83146 93.9525 6.896 93.7318 6.92777C93.6875 6.93446 93.1063 6.83041 92.5516 6.85599C92.3441 6.8654 92.4691 6.93819 92.4168 6.94242C91.9805 6.97743 92.239 6.85484 91.4391 6.87454C90.8542 6.88912 90.4074 7.00897 89.6022 6.96927C92.2706 7.12205 90.0171 7.05824 88.9164 7.10453C88.738 7.11192 88.8927 7.24407 87.8252 7.17973C90.0956 6.94077 87.1754 7.05343 86.5802 7.05082C86.5476 7.05001 86.5367 6.96286 86.2456 6.96146C86.221 6.96154 86.2565 7.02043 85.9857 7.02494C83.4093 7.06752 85.0564 7.00098 84.5666 6.9429C84.3552 6.91816 83.1042 7.00144 82.7685 7.00345C82.691 7.00366 82.7267 6.94246 82.4269 6.94486C81.8962 6.94925 81.4188 7.0144 81.0666 7.01957C81.0265 7.01987 81.0203 6.92331 80.3586 6.95462C80.1727 6.96338 79.9638 6.99766 80.228 7.02543C81.1054 7.11674 82.7851 6.95871 83.77 7.04984C84.6743 7.13284 81.8255 7.14067 81.6726 7.14115C81.6179 7.14146 82.1776 7.09351 81.6089 7.08402C81.1217 7.07612 80.2356 7.2429 79.5164 7.20659C79.4616 7.20389 78.8849 7.06248 78.9113 7.05424C78.9359 7.04821 79.8208 7.01752 79.6922 6.9766C79.677 6.97194 79.1146 6.97288 79.0409 6.94242C78.9509 6.90533 78.708 6.54137 78.5875 6.53224C78.2782 6.5097 78.4795 6.59271 78.2793 6.58693C77.8464 6.57476 76.367 6.46713 76.3184 6.59328C76.5633 6.60077 76.8078 6.60826 77.052 6.61574C75.6918 6.62872 76.271 6.68242 76.0783 6.70608C75.8701 6.73167 75.929 6.62079 75.4684 6.61037C75.3682 6.60808 73.4388 6.63123 73.4768 6.67776C74.5368 6.60371 74.1441 6.74074 74.1927 6.74319C74.3803 6.75212 74.6197 6.67525 74.8708 6.67678C76.6345 6.68881 74.8562 6.81014 75.2725 6.84134C75.4158 6.85184 75.701 6.78622 75.7617 6.78958C75.9589 6.80045 75.9621 6.88638 76.0935 6.87943C76.4001 6.8633 76.0421 6.7417 76.0664 6.73538C76.341 6.65928 77.4115 6.75396 76.745 6.88626C77.1454 6.93394 77.1908 6.77315 77.5094 6.83743C78.146 6.96472 77.1925 6.93202 76.939 6.95316C76.0199 7.0294 75.7477 6.96768 74.437 6.9888C73.9641 6.99626 73.4134 7.07436 73.1947 7.07865C73.0584 7.08135 71.7605 6.80959 71.7215 7.23491C71.2142 7.19375 70.4247 6.91348 69.907 6.9263C69.4414 6.93799 69.5894 7.08846 69.5459 7.09428C69.4794 7.10342 68.9154 7.09157 68.7242 7.11283C68.5002 7.13795 68.6121 7.19539 68.2564 7.21879C67.3695 7.27689 67.3956 7.1233 67.3047 7.11332C66.2552 6.99795 66.7144 7.21641 66.4814 7.23393C66.2662 7.25003 63.2127 7.16595 62.5742 7.22124C62.8353 7.19047 63.0961 7.15971 63.3567 7.12895C62.8905 7.03315 62.3949 7.1894 62.3862 7.01761C62.2916 7.29496 61.3253 7.10957 61.034 7.11674C60.9195 7.11969 60.9279 7.16695 60.7853 7.16899C60.23 7.17727 58.9724 7.13965 58.6688 7.16362C57.3588 7.26679 60.7073 7.43842 60.9686 7.44878C60.444 7.44572 57.4576 7.50784 58.8307 7.64117C59.0431 7.66174 59.4188 7.53763 59.5378 7.53277C60.343 7.50082 59.7098 7.61204 59.7729 7.62262C59.8803 7.63969 60.4097 7.53217 60.5491 7.54498C60.5963 7.54908 60.294 7.6498 61.0638 7.65192C60.6848 7.74955 58.5286 7.67001 58.2421 7.69293C58.1417 7.70112 58.7728 7.90975 56.9234 7.70709C56.9448 7.72646 56.9662 7.74583 56.9876 7.7652C55.9609 7.77318 54.9292 7.78115 53.8961 7.78913C54.0076 7.7445 54.5877 7.65487 53.8581 7.67389C53.4402 7.6849 53.7494 7.78429 53.7113 7.78717C53.3421 7.81453 46.669 7.78146 45.3851 7.79255C44.9465 7.79615 43.7202 7.87603 43.6263 7.87751C43.069 7.88551 41.0952 7.83351 40.6992 7.84479C40.4526 7.85203 40.687 7.93512 40.4667 7.93122C40.2619 7.92749 40.4741 7.84718 40.4132 7.84382C39.9109 7.81472 36.0866 7.92005 35.1837 7.84431C35.7352 7.86704 38.5065 7.70659 38.4496 7.64996C38.4377 7.6422 37.7652 7.58111 37.6263 7.6109C37.3974 7.54137 36.608 7.75307 36.1807 7.71149C36.1323 7.70677 36.3228 7.58802 35.5602 7.56646C35.2974 7.5591 34.6091 7.65166 33.915 7.54791C32.9082 7.59776 27.6332 7.44376 27.2712 7.57135C27.2606 7.57808 28.0036 7.62202 27.5016 7.67438C26.834 7.74398 27.4337 7.50954 26.6553 7.48931C26.5373 7.48624 24.3731 7.50996 24.3026 7.52447C23.6475 7.65605 25.5375 7.70938 25.5107 7.72467C25.4451 7.76319 23.8749 7.78649 23.8107 7.77741C23.7499 7.76796 25.0314 7.59362 23.4914 7.65973C23.6679 7.68056 23.8443 7.7014 24.0207 7.72223C23.2965 7.76281 23.2272 7.64219 23.0517 7.63483C22.506 7.6115 21.9144 7.7947 21.0418 7.56842C20.8108 7.50836 21.1942 7.44167 21.1653 7.43267C20.8879 7.35184 20.5339 7.56807 20.1165 7.40679C20.085 7.39476 21.0568 7.29814 19.3583 7.2979C19.4752 7.31336 19.5921 7.32882 19.709 7.34429C19.4696 7.37881 17.7489 7.39932 17.5186 7.39116C16.8432 7.36731 17.4323 7.25631 16.7533 7.26958C17.189 7.4217 15.1234 7.44155 15.242 7.31059C14.9524 7.47507 13.2 7.34819 12.3748 7.34429C11.8544 7.34195 10.7919 7.41372 10.6271 7.40532C10.4258 7.39504 10.487 7.28284 10.1235 7.25786C10.0198 7.25073 8.93745 7.33298 7.98673 7.21684C7.80248 7.19446 7.4155 7.00414 7.75798 6.95658C8.34422 6.87518 9.45267 7.0285 9.43849 6.91605C9.42195 6.79575 7.92881 6.86729 7.52667 6.85159C5.67173 6.77898 6.74288 6.65109 6.69515 6.61233C6.57149 6.51825 5.55792 6.52117 5.51559 6.51271C5.3403 6.47514 6.05859 6.40069 6.06942 6.34327C6.08253 6.26852 5.10546 6.1336 5.32758 6.1084C5.64559 6.07261 6.54342 6.18506 6.60032 6.17969C7.34121 6.10716 6.32568 5.93445 6.04571 5.8496C5.96085 5.8235 6.29897 5.7806 6.22861 5.77294C5.15456 5.65676 6.00223 6.01567 5.28778 5.9917C4.6503 5.97033 5.47051 5.85684 5.44615 5.85058C5.41469 5.8437 4.65247 5.83751 4.53312 5.79735C4.47439 5.77724 6.45536 5.55648 6.37256 5.4575C5.74062 5.47931 5.10855 5.50112 4.47637 5.52293C4.42683 5.39387 5.33605 5.48887 5.43006 5.47556C5.61936 5.44886 5.0915 5.38355 5.11416 5.34275C5.12632 5.31679 5.74584 5.22418 5.18615 5.186C4.99378 5.17282 4.5901 5.26331 3.88934 5.17086C6.32784 5.0528 4.63802 4.98025 4.56616 4.93453C4.49575 4.88881 5.65988 4.78122 4.24682 4.80025C4.18554 4.54908 4.27729 4.72085 4.67881 4.67671C5.17064 4.62244 4.03399 4.53973 5.83147 4.60248C5.72927 4.48489 4.2844 4.49321 4.20785 4.48383C4.14179 4.47532 4.463 4.41748 4.34847 4.39789C2.99374 4.17066 3.9242 4.27442 3.53192 4.12932C3.49705 4.11636 2.21707 4.06256 3.19152 4.04143C4.96714 4.00301 5.70933 4.16965 6.00761 3.81339C4.69447 3.65864 3.10276 3.8886 2.70376 3.8925C2.09275 3.89811 2.72571 3.82545 2.65041 3.80509C2.62426 3.79851 2.09772 3.80451 2.09065 3.79874C1.71518 3.52702 4.43471 3.79423 5.29117 3.74698C5.06165 3.70629 4.83212 3.6656 4.60258 3.62491C4.914 3.62328 5.2254 3.62165 5.53677 3.62002C4.05331 3.53823 5.48451 3.58905 5.85433 3.36904C5.93737 3.3196 4.96291 3.40438 6.0745 3.26698C5.25465 3.23527 5.51617 3.19032 4.77367 3.25234C4.79289 3.16415 6.46334 3.06467 7.12184 3.01942C4.79483 2.92031 6.12198 3.24379 4.10959 3.07264C3.73637 3.18184 4.69702 3.16058 4.61867 3.1786C4.33768 3.24341 3.67865 3.14051 2.88413 3.36757C2.75474 3.40485 3.30225 3.51961 2.49206 3.51406C2.40245 3.51328 1.88617 3.41521 1.89333 3.4081C1.96177 3.3313 2.47266 3.36008 2.49375 3.32802C2.51354 3.29767 1.94357 3.31592 1.9416 3.30751C1.92409 3.21129 2.41717 3.27074 2.34555 3.24062C2.19089 3.1751 0.140669 2.96805 2.81639 3.02869C0.593925 3.13748 2.53192 3.13494 3.39728 3.09315C3.61796 3.08267 3.67385 3.0252 3.98845 3.00526C4.39312 2.97942 4.86669 3.00701 5.07604 2.99647C5.30119 2.98484 4.02192 2.84899 5.87212 2.88953C4.93063 2.7544 3.26687 2.89847 2.34216 2.80359C0.476118 2.61186 3.64313 2.57069 3.97321 2.55211C4.06114 2.54708 3.76635 2.46946 3.82496 2.46471C3.92088 2.45741 5.71868 2.49329 5.89583 2.42906C6.07259 2.36489 5.23745 2.43202 5.18191 2.36509C5.14438 2.32004 7.31255 2.24012 6.13886 2.20933C5.32995 2.18822 3.83819 2.36931 3.58695 2.17466C4.77712 2.15854 5.96715 2.14243 7.15655 2.12632C6.50555 2.05226 5.85438 1.9782 5.20309 1.90414C6.53857 1.88065 7.69287 1.96426 8.96171 1.85824C5.91297 1.62093 9.95171 1.66885 9.99563 1.63997C10.0105 1.6227 8.81096 1.43008 8.61783 1.39484C9.68084 1.32074 12.9114 1.28453 11.0207 1.04668C11.3641 1.10039 12.1951 0.967821 12.1842 0.957814C12.0786 0.852738 10.2662 0.920876 10.562 0.825974C10.904 0.715842 11.3844 0.86525 11.9114 0.853318C14.6153 0.791115 13.8719 0.242572 16.584 0.329373C16.53 0.309841 16.4761 0.290308 16.4222 0.270777C19.3664 0.301865 22.3165 0.332953 25.2604 0.364042C26.4153 0.196527 29.4796 0.0945227 30.9892 0.113056C31.2932 0.116665 32.7801 0.204581 32.893 0.219993C33.1005 0.249533 31.9577 0.260804 32.4741 0.316189C32.5817 0.327557 35.108 0.364496 34.9264 0.270777C34.6441 0.25991 33.7591 0.30702 33.6141 0.284937C32.599 0.127315 40.3708 0.253238 40.7577 0.189719C40.5852 0.159281 40.4127 0.128844 40.2401 0.0984068C40.7319 0.113381 41.2231 0.128356 41.7137 0.14333ZM19.1676 7.67047C18.873 7.76451 18.134 7.69388 17.6988 7.72028C17.0969 7.75724 16.0727 8.11936 16.5137 7.75641C17.3986 7.72777 18.2813 7.69912 19.1676 7.67047ZM32.0979 7.81061C31.5053 7.7601 31.965 7.5574 32.4504 7.64166C32.5043 7.65124 32.8992 7.8786 32.0979 7.81061ZM25.8778 7.71442C25.9029 7.71173 26.4162 7.7171 26.4341 7.72028C26.8944 7.80167 25.3467 7.78503 25.8778 7.71442ZM55.925 7.61041C55.2714 7.61916 55.7449 7.80344 56.1509 7.7276C56.1765 7.72279 55.968 7.60998 55.925 7.61041ZM55.46 7.60553C54.9523 7.44051 53.9266 7.77495 54.7417 7.74127C54.8209 7.73787 55.4836 7.61356 55.46 7.60553ZM29.9834 7.73004C30.0503 7.6668 30.6627 7.69734 30.924 7.71247C30.9169 7.77021 30.24 7.72298 29.9834 7.73004ZM45.5002 7.71247C45.5276 7.66274 43.3957 7.66549 43.2522 7.73102C43.5871 7.70322 45.477 7.75715 45.5002 7.71247ZM50.9536 7.64264C50.8991 7.63404 50.1637 7.64711 50.1859 7.69098C50.5416 7.74853 51.1977 7.68154 50.9536 7.64264ZM61.7969 7.64557C61.8366 7.63455 61.2864 7.35537 62.5912 7.53912C62.7826 7.56602 62.0988 7.63897 62.1667 7.64899C62.3093 7.66852 62.4219 7.67763 62.5124 7.67926C61.9052 7.7024 61.2722 7.71329 61.2109 7.69635C60.9233 7.61637 61.7794 7.65017 61.7969 7.64557ZM67.4859 7.43755C67.6099 7.39202 68.4136 7.41636 68.5952 7.43511C68.6265 7.43864 68.4902 7.55832 68.8505 7.54937C69.1397 7.54198 68.7079 7.4194 69.2708 7.43902C69.8393 7.45871 69.0798 7.54607 69.1294 7.5523C69.1963 7.56048 70.0748 7.50543 70.0472 7.57672C70.0272 7.62952 69.086 7.59382 68.8522 7.60504C68.5534 7.61946 68.9159 7.70744 68.4161 7.68854C68.1018 7.67674 68.276 7.52203 68.2097 7.51422C68.1533 7.50792 67.0569 7.59695 67.4876 7.43804C67.4871 7.43788 67.4865 7.43772 67.4859 7.43755ZM62.6767 7.67242C62.631 7.67765 62.5773 7.68043 62.5124 7.67926C62.5675 7.67716 62.6224 7.67472 62.6767 7.67242ZM20.8818 7.6026C21.19 7.65031 20.2752 7.71149 19.9284 7.64899C19.9225 7.59858 20.8328 7.59517 20.8818 7.6026ZM63.2392 7.54644C64.1387 7.5852 63.478 7.6385 62.6767 7.67242C62.9311 7.64331 62.9368 7.5335 63.2392 7.54644ZM37.6263 7.6109C37.6644 7.62244 37.6885 7.64043 37.6916 7.66998C37.5915 7.63766 37.5825 7.6203 37.6263 7.6109ZM39.7291 7.66364C40.4488 7.57361 38.9865 7.57724 38.9954 7.64166C38.9998 7.66598 39.7004 7.66722 39.7291 7.66364ZM56.7621 7.6192C56.6962 7.61039 57.7192 7.33853 56.2338 7.54254C57.0269 7.57458 56.1902 7.60418 56.2025 7.62799C56.2361 7.69642 57.5635 7.63064 57.8634 7.66022C58.0948 7.53779 56.9781 7.64823 56.7638 7.6192C56.7632 7.6192 56.7627 7.6192 56.7621 7.6192ZM77.7453 7.50347C77.5615 7.57521 76.9919 7.55213 76.6057 7.54791C76.7874 7.47617 77.353 7.49925 77.7453 7.50347ZM179.042 7.51373C176.39 7.58006 176.044 7.2879 178.471 7.40337C178.519 7.4058 179.204 7.48411 179.042 7.51373ZM156.276 7.43804C156.024 7.31071 156.859 7.29023 157.399 7.34282C157.522 7.35465 157.973 7.48362 157.457 7.50884C157.474 7.35451 156.673 7.29555 156.276 7.43804ZM63.7476 7.4649C64.0075 7.37998 64.8197 7.44043 65.2465 7.45318C64.9867 7.5231 64.1204 7.49148 63.7476 7.4649ZM170.325 7.36138C170.224 7.35791 170.135 7.37004 170.064 7.38742C169.94 7.41833 169.874 7.46583 169.904 7.47173C169.948 7.48033 170.005 7.48348 170.064 7.4825C170.299 7.47867 170.58 7.41161 170.325 7.36138ZM61.1369 7.45171C61.1001 7.40097 62.1738 7.35212 62.2481 7.47759C62.0192 7.46851 61.1638 7.48356 61.1369 7.45171ZM77.0157 7.46539C76.8498 7.43958 77.7081 7.39339 77.9716 7.419C77.9502 7.47301 77.1224 7.48216 77.0157 7.46539ZM165.824 7.39898C165.571 7.38935 164.951 7.38642 164.88 7.4312C164.796 7.48718 165.706 7.4681 165.824 7.39898ZM212.407 7.30229C212.435 7.32241 211.47 7.46741 211.04 7.43072C210.218 7.36051 212.371 7.28808 212.407 7.30229ZM172.97 7.30425C173.764 7.40961 172.883 7.30757 172.918 7.41851C173.454 7.4225 174.769 7.42798 173.864 7.3189C173.688 7.29779 173.22 7.31143 172.97 7.30425ZM172.244 7.26714C172.16 7.30307 171.589 7.41637 172.082 7.40825C172.31 7.40433 172.676 7.27844 172.244 7.26714ZM206.407 7.35161C205.698 7.2534 208.945 7.30609 209.035 7.32329C209.083 7.33238 209.115 7.34094 209.134 7.34819C209.257 7.31707 209.867 7.31146 209.937 7.39019C209.756 7.38369 209.254 7.39061 209.194 7.38189C209.169 7.37817 209.15 7.37469 209.136 7.37114C208.918 7.43949 206.544 7.37023 206.407 7.35161ZM201.031 7.25053C201.844 7.10565 201.981 7.35198 201.913 7.35991C201.036 7.46073 201.608 7.27906 201.582 7.27055C201.52 7.2564 200.892 7.34069 201.033 7.25053C201.033 7.25053 201.032 7.25053 201.031 7.25053ZM205.305 7.31108C205.333 7.30787 206.022 7.3155 206.044 7.31938C206.597 7.40217 204.683 7.38097 205.305 7.31108ZM71.7793 7.26518C72.267 7.28967 71.7888 7.3803 71.4641 7.34771C71.4374 7.34449 71.3487 7.24355 71.7793 7.26518ZM171.855 7.29155C171.788 7.2819 170.851 7.25718 170.064 7.26193C169.462 7.26562 168.953 7.28698 169.029 7.34673C169.113 7.3412 169.553 7.34581 170.064 7.34989C171.056 7.35772 172.315 7.36357 171.855 7.29155ZM150.285 7.25835C150.793 7.25941 150.24 7.3885 149.967 7.34038C149.866 7.3225 150.157 7.25816 150.285 7.25835ZM59.6951 7.33452C59.1671 7.40544 59.2764 7.16751 59.734 7.24907C59.7519 7.25226 59.7158 7.33175 59.6951 7.33452ZM154.349 7.33257C152.598 7.4108 153.011 7.00152 155.294 7.13969C155.222 7.15792 155.151 7.17615 155.079 7.19438C157.704 7.25577 155.266 7.22323 154.611 7.24614C154.366 7.25485 154.572 7.32317 154.351 7.33306C154.35 7.33289 154.35 7.33273 154.349 7.33257ZM147.604 7.25053C145.921 6.96004 149.14 7.14921 150.071 7.11137C149.163 7.23133 148.009 7.21317 149.592 7.33599C147.274 7.35974 148.236 7.24404 148.145 7.23442C148.035 7.22363 147.677 7.26301 147.604 7.25053ZM152.068 7.24858C152.167 7.24011 152.894 7.29924 153.165 7.2896C152.789 7.38883 151.421 7.30621 152.068 7.24858ZM195.397 7.31792C195.46 7.24017 195.602 7.1829 196.19 7.21196C196.008 7.25103 195.639 7.28463 195.397 7.31792ZM18.6082 7.26128C18.2069 7.2557 17.4117 7.2264 17.6557 7.30815C17.6824 7.31512 18.6065 7.30716 18.6082 7.26128ZM163.472 7.22856C163.386 7.219 161.186 7.21258 161.946 7.29839C162.172 7.32426 164.179 7.31327 163.472 7.22856ZM174.87 7.23833C174.685 7.23751 173.937 7.25216 173.921 7.27055C173.87 7.33413 174.789 7.29918 174.87 7.23833ZM16.5899 7.18168C16.5373 7.17362 15.3144 7.18791 15.4488 7.22563C15.7041 7.29697 16.7706 7.20947 16.5899 7.18168ZM73.5494 7.08305C73.6512 7.08017 73.7858 7.16463 73.821 7.16557C73.8983 7.16678 75.78 7.13429 75.0619 7.24272C74.9371 7.26089 72.2552 7.21925 71.9015 7.20854C71.7662 7.0926 72.9171 7.20289 73.1956 7.19096C73.2447 7.18869 73.2763 7.0917 73.5485 7.08353C73.5488 7.08337 73.5491 7.08321 73.5494 7.08305ZM198.424 7.23588C198.507 7.16217 200.699 7.11336 200.68 7.20268C199.928 7.21375 199.177 7.22482 198.424 7.23588ZM197.307 7.22368C196.839 7.17153 197.933 7.15428 198.261 7.17729C198.265 7.22688 197.374 7.2313 197.307 7.22368ZM170.699 6.96292C170.478 6.98095 171.158 7.08851 171.006 7.10942C170.909 7.12244 170.415 7.08212 170.256 7.11576C170.211 7.12645 170.717 7.22756 170.862 7.22319C171.069 7.21736 170.868 7.13779 171.094 7.13725C171.841 7.13554 172.508 7.19228 173.21 7.19096C173.274 7.19069 172.78 7.1345 173.324 7.13529C173.408 7.13531 173.909 7.219 174.557 7.20659C175.985 6.94741 177.039 7.20189 178.853 7.10844C178.781 7.08403 177.429 7.01857 177.347 7.01615C175.831 6.97353 173.11 6.96885 171.521 6.9683C171.115 6.96807 171.313 7.02293 171.138 7.02494C170.999 7.02642 171.164 6.92485 170.699 6.96292ZM18.821 7.20512C18.6298 7.10367 17.9607 7.16788 17.5338 7.16264C17.6842 7.25415 18.4024 7.18264 18.821 7.20512ZM187.433 7.14506C187.214 7.14898 186.558 7.11842 186.501 7.14897C186.432 7.18886 187.383 7.21402 187.433 7.14506ZM84.0952 7.11186C84.1162 7.10909 84.6339 7.11452 84.6533 7.11772C85.1158 7.19914 83.5628 7.18246 84.0952 7.11186ZM96.4243 7.13139C96.8176 7.11886 97.2125 7.08716 97.3439 7.16948C97.0951 7.15687 96.3785 7.18872 96.4243 7.13139ZM113.435 7.12895C113.355 7.02115 114.533 7.09096 114.752 7.10063C114.671 7.14853 113.496 7.20662 113.435 7.12895ZM195.312 6.97953C196.028 6.9859 195.878 6.82262 196.336 6.89652C196.409 6.90901 196.655 7.24902 195.858 7.12162C195.716 7.09872 196.27 7.01792 195.312 6.97953ZM155.665 7.14311C155.847 7.07179 156.417 7.09296 156.806 7.09867C156.719 7.15166 155.937 7.13802 155.665 7.14311ZM14.3813 7.10014C14.0445 6.99946 12.4864 7.07414 12.8719 7.14067C12.9268 7.14934 14.163 7.09633 14.3813 7.10014ZM65.5781 7.13969C66.2198 7.06041 64.8909 7.03586 64.4692 7.11332C64.6601 7.10824 65.5351 7.14491 65.5781 7.13969ZM109.35 7.07035C109.381 7.0671 110.055 7.07475 110.084 7.07865C110.639 7.16144 108.729 7.14024 109.35 7.07035ZM92.3713 7.00052C92.6095 6.93528 94.2308 6.98793 94.5897 7.05326C94.2427 7.14866 92.0644 7.08201 92.3713 7.00052ZM192.353 7.02592C192.859 7.02254 193.357 7.04263 193.821 7.07084C193.727 7.12577 192.404 7.06695 192.353 7.02592ZM111.846 7.06351C111.882 7.06396 111.918 7.07017 111.952 7.07084C111.916 7.06851 111.881 7.06585 111.846 7.06351ZM180.868 6.98734C180.441 6.96564 180.529 7.06629 180.555 7.06937C180.878 7.10197 181.352 7.01183 180.868 6.98734ZM18.3292 7.0557C18.1802 6.96487 17.4579 7.03532 17.042 7.01371C17.1627 7.08544 17.9944 7.06523 18.3292 7.0557ZM145.794 7.06449C145.254 6.96601 147.453 6.85161 147.917 6.91507C147.943 6.97592 145.881 7.07797 145.794 7.06449ZM63.5856 7.00345C63.5429 6.93228 62.6215 7.01817 62.8172 7.0518C62.9414 7.07319 63.6114 7.04767 63.5856 7.00345ZM149.022 6.95658C149.225 6.93486 149.709 7.00509 149.539 7.04789C149.317 7.10275 148.97 6.9628 149.022 6.95658ZM167.546 6.89945C167.453 6.88857 166.243 6.96162 166.743 7.03422C167.09 7.08467 167.145 6.98179 167.227 6.98148C167.321 6.98181 169.268 7.10771 167.546 6.89945ZM133.489 7.00248C133.937 6.97511 134.506 7.00688 134.982 7.00492C134.79 7.04893 133.676 7.06094 133.489 7.00248ZM67.1435 6.98441C67.0357 6.95563 64.002 6.93829 65.7256 7.02689C65.8271 7.0319 67.4808 7.07158 67.1435 6.98441ZM195.312 6.97953C195.221 6.97872 195.116 6.97533 194.993 6.9683C195.115 6.97106 195.221 6.97589 195.312 6.97953ZM187.142 6.96878C187.307 6.91697 186.478 6.90312 186.229 6.9307C186.154 6.994 187.122 6.97603 187.142 6.96878ZM135.019 6.93265C135.296 6.903 135.788 6.93464 136.134 6.93119C136.07 6.97935 135.141 6.98158 135.019 6.93265ZM115.619 6.87845C116.173 6.90707 116.846 6.89391 116.856 6.83499C116.868 6.8442 116.894 6.85397 116.938 6.8638C116.983 6.87353 117.567 6.84613 117.819 6.86624C119.352 6.98569 111.918 6.9364 116.23 6.77005C116.027 6.80618 115.823 6.84231 115.619 6.87845ZM90.1896 6.86185C89.8752 6.79013 89.0113 6.88 89.2356 6.90824C89.3917 6.92758 90.5008 6.93405 90.1896 6.86185ZM102.171 6.81936C102.074 6.80656 101.228 6.85679 101.206 6.89456C101.688 6.93436 102.599 6.87883 102.171 6.81936ZM87.7997 6.77786C87.6037 6.76704 87.3531 6.88268 87.3761 6.88773C87.576 6.92994 88.1288 6.84225 87.7997 6.77786ZM193.819 6.66799C193.535 6.63488 192.6 6.71858 192.403 6.79495C192.365 6.78018 192.264 6.76093 192.078 6.73782C192.079 6.73782 192.079 6.73782 192.08 6.73782C191.826 6.70697 184.341 6.67327 189.362 6.82034C189.519 6.82505 189.301 6.7565 189.946 6.76858C189.988 6.76946 190.009 6.82543 190.14 6.82815C190.436 6.83407 192.04 6.86929 192.364 6.82425C192.367 6.83462 192.387 6.84449 192.431 6.85355C192.82 6.93426 194.048 6.69353 193.819 6.66799ZM103.861 6.80911C103.691 6.78837 103.149 6.80807 103.093 6.85745C103.363 6.88166 104.257 6.85749 103.861 6.80911ZM67.0499 6.78177C66.7024 6.74114 65.8184 6.81709 66.0855 6.85745C66.2499 6.88228 67.4512 6.8284 67.0499 6.78177ZM98.4277 6.83548C100.429 6.89386 98.9042 6.83076 99.2105 6.75833C98.9453 6.78404 98.6879 6.80976 98.4277 6.83548ZM203.086 6.85501C202.764 6.83834 203.146 6.69543 203.489 6.77298C203.598 6.7976 203.265 6.86407 203.086 6.85501ZM217.493 6.81058C217.22 6.68385 218.551 6.75831 218.032 6.84524C218.008 6.84817 217.513 6.8154 217.493 6.81058ZM207.427 6.75882C207.205 6.8451 207.07 6.85534 206.459 6.83401C207.362 6.8097 206.524 6.73339 207.427 6.75882ZM116.85 6.82571C116.854 6.8292 116.857 6.83178 116.856 6.83499C116.852 6.83182 116.851 6.82881 116.85 6.82571ZM85.9181 6.80032C85.6686 6.72723 84.9659 6.73261 85.1752 6.80618C85.1956 6.81299 85.8159 6.85433 85.9181 6.80032ZM192.403 6.79495C192.436 6.80804 192.419 6.81651 192.364 6.82425C192.361 6.81448 192.376 6.80526 192.403 6.79495ZM89.6856 6.74075C89.6573 6.79528 90.7317 6.81649 90.7746 6.81009C91.3917 6.71551 90.122 6.73747 89.6856 6.74075ZM59.9842 6.7051C59.9292 6.71079 60.2839 6.85157 60.501 6.79641C60.6691 6.75362 60.1903 6.68344 59.9842 6.7051ZM209.496 6.72366C209.84 6.72375 210.307 6.72369 210.401 6.79056C210.172 6.78029 209.493 6.77272 209.496 6.72366ZM216.972 6.71878C216.572 6.79739 215.659 6.79716 215.075 6.78421C215.064 6.68073 216.597 6.74311 216.972 6.71878ZM194.739 6.70657C194.713 6.70236 193.863 6.67148 193.978 6.74075C194.151 6.84232 194.976 6.74423 194.739 6.70657ZM61.6322 6.77981C62.0129 6.73211 61.1363 6.58552 60.7355 6.69875C60.5286 6.75674 61.5683 6.7878 61.6322 6.77981ZM83.7212 6.70461C83.2208 6.7447 84.464 6.8161 84.6388 6.74368C84.4079 6.73787 83.8983 6.69042 83.7212 6.70461ZM100.767 6.63137C99.1886 6.42249 100.048 6.80355 100.328 6.77005C100.368 6.76526 100.805 6.63628 100.767 6.63137ZM10.4655 6.68264C10.2423 6.71167 11.0744 6.8168 11.1826 6.74758C11.2491 6.70427 10.6082 6.66414 10.4655 6.68264ZM124.529 6.76712C124.463 6.76779 124.397 6.76847 124.332 6.76907C124.381 6.76566 124.445 6.76455 124.529 6.76712ZM79.1798 6.42482C80.2892 6.71974 80.1711 6.49243 80.2676 6.49367C80.4736 6.49684 80.9609 6.57659 81.3557 6.5635C80.9031 6.5967 80.4517 6.6299 80.0045 6.66311C80.3512 6.6844 83.4565 6.79296 83.5133 6.74514C83.6059 6.67704 82.6375 6.69841 82.6087 6.69241C82.568 6.68386 82.4163 6.49452 82.3261 6.48732C82.1781 6.47581 79.5909 6.47189 79.1798 6.42482ZM97.4667 6.66409C97.7204 6.68659 97.7923 6.76161 97.9099 6.74368C97.9499 6.73754 97.9564 6.66599 98.0931 6.64748C97.8847 6.65302 97.6759 6.65855 97.4667 6.66409ZM77.1868 6.68997C76.871 6.60253 78.2846 6.63574 78.3303 6.64553C78.5735 6.7048 77.44 6.76139 77.1868 6.68997ZM89.1546 6.67727C89.104 6.67217 88.0217 6.64487 88.0298 6.69338C88.3182 6.73037 89.7612 6.74114 89.1546 6.67727ZM98.2617 6.6426C98.6384 6.65095 99.3589 6.723 99.2771 6.61526C99.2765 6.61526 99.2759 6.61526 99.2753 6.61526C98.9318 6.62437 98.5992 6.63349 98.2617 6.6426ZM62.9322 6.55226C62.2276 6.38067 62.5618 6.5975 63.1851 6.65285C63.3738 6.57582 63.0477 6.58019 62.9322 6.55226ZM60.6731 6.42433C60.4792 6.39345 58.4594 6.42729 58.7672 6.51808C58.8773 6.55044 60.0386 6.46884 60.0915 6.47511C60.1724 6.48442 59.8028 6.58486 60.4208 6.56496C60.3847 6.53093 60.74 6.43464 60.6731 6.42433ZM62.3489 6.4424C61.6477 6.3119 61.4896 6.55259 62.0175 6.55324C62.2236 6.55367 62.4489 6.46123 62.3489 6.4424ZM65.21 6.46291C64.9586 6.44008 64.2802 6.40679 63.8219 6.48683C64.4367 6.49367 65.0639 6.50051 65.6824 6.50734C65.7538 6.46199 65.431 6.48297 65.2083 6.46291C65.2089 6.46291 65.2094 6.46291 65.21 6.46291ZM221.182 6.10205C220.625 6.0338 221.908 6.00764 221.962 6.02441C222.123 6.08008 221.431 6.13254 221.182 6.10205ZM6.11769 4.49603C5.96304 4.46883 5.86194 4.37931 5.52152 4.42621C5.86394 4.49229 6.20633 4.55837 6.54867 4.62446C6.81471 4.47304 6.28672 4.52605 6.11769 4.49603ZM4.8101 3.94279C4.85847 3.93912 4.59423 3.70629 5.21918 3.86173C5.64155 3.96669 3.34486 4.06898 2.93071 3.96574C3.3885 3.91777 4.39367 3.97268 4.8101 3.94279ZM0.788114 2.93494C0.761641 2.91637 1.634 2.88914 1.73496 2.90222C2.26514 2.97122 0.931364 3.03442 0.788114 2.93494ZM3.57087 2.97938C3.16178 2.93416 4.0681 2.90501 4.3383 2.93103C4.36453 2.97437 3.63399 2.98596 3.57087 2.97938ZM215.545 2.72985C215.103 2.57161 214.706 2.91226 215.388 2.84363C215.42 2.8404 215.564 2.7376 215.545 2.72985ZM1.64095 2.70007C2.05006 2.74528 1.14376 2.77443 0.873654 2.74841C0.848536 2.70512 1.57867 2.69346 1.64095 2.70007ZM215.234 2.35289C215.025 2.31254 214.916 2.33447 214.867 2.3803C214.807 2.43464 214.83 2.52257 214.867 2.5801C214.886 2.61099 214.909 2.63312 214.926 2.63659C215.229 2.69741 216.267 2.54741 216.478 2.51012C214.925 2.56747 215.51 2.40655 215.234 2.35289ZM212.522 2.58239C211.979 2.62316 213.371 2.70114 213.637 2.5946C213.367 2.59969 212.676 2.5706 212.522 2.58239ZM209.214 2.45982C208.923 2.44614 208.046 2.41336 207.903 2.4735C208.217 2.46261 209.092 2.5217 209.214 2.45982ZM208.55 2.27964C208.091 2.19793 207.977 2.436 208.511 2.36509C208.531 2.36235 208.567 2.28419 208.55 2.27964ZM205.973 2.1937C205.677 2.09903 205.326 2.32958 205.818 2.3358C205.962 2.33722 206.004 2.20455 205.973 2.1937ZM214.498 1.94174C214.067 1.90108 213.513 2.06619 214.432 2.08432C214.109 2.10955 213.786 2.13478 213.463 2.16001C214.595 2.24702 214.585 2.04982 214.867 2.03379C214.885 2.03277 214.904 2.03248 214.924 2.03305C215.408 2.0465 215.369 2.23545 215.272 2.29478C215.669 2.17902 217.351 2.17717 218.325 2.15513C217.47 2.10654 216.082 2.02232 215.239 1.99154C215.111 1.98685 214.986 1.99903 214.867 2.01075C214.758 2.02126 214.656 2.0314 214.559 2.02866C214.23 2.01909 214.522 1.94448 214.499 1.94174C214.499 1.94174 214.498 1.94174 214.498 1.94174ZM202.586 2.19028C201.7 2.08304 202.267 2.31459 202.758 2.27329C202.779 2.27012 202.608 2.1929 202.586 2.19028ZM0.468822 1.99643C1.64978 2.09321 0.791506 2.22149 3.2618 2.0267C2.22401 2.1646 3.20441 2.12587 3.00184 2.18149C2.83934 2.2255 2.2304 2.18905 2.58436 2.27769C2.11914 2.18122 0.0990066 2.2079 0.00893711 2.19224C0.00978404 2.19224 0.010631 2.19224 0.0114779 2.19224C-0.0426144 2.18296 0.0919655 1.96565 0.468822 1.99643ZM209.21 1.85433C208.914 1.57338 208.801 2.01931 208.218 1.78646C207.446 2.1246 210.353 1.78651 210.703 2.07211C207.551 2.03893 212.787 2.35511 210.583 1.92758C212.399 2.08275 211.178 1.87463 211.458 1.82015C211.754 1.76212 212.785 1.82519 212.73 1.72054C212.729 1.72054 212.729 1.72054 212.728 1.72054C212.101 1.72786 211.476 1.73519 210.848 1.74251C211.462 1.96826 210.179 1.90057 209.746 1.71663C209.566 1.76253 209.39 1.80843 209.21 1.85433ZM212.758 2.06625C212.694 2.06109 211.334 2.09273 211.421 2.13803C211.602 2.16693 213.538 2.13228 212.758 2.06625ZM218.762 2.01694C218.271 2.01639 217.514 1.97235 217.247 2.05747C217.738 2.05804 218.495 2.1021 218.762 2.01694ZM193.541 2.00082C192.917 2.07067 194.839 2.09136 194.283 2.00864C194.255 2.00474 193.569 1.99756 193.541 2.00082ZM207.789 1.89681C207.159 1.81095 207.452 2.08425 207.926 2.01303C207.954 2.00883 207.819 1.90073 207.789 1.89681ZM1.42584 1.96322C1.46833 1.89627 3.18171 1.9433 3.48535 1.94272C3.31286 2.00495 1.37715 2.03998 1.42584 1.96322ZM219.624 1.76644C218.649 1.52567 217.326 1.80377 217.181 1.79769C217.037 1.7915 217.264 1.68625 217.23 1.68343C217.156 1.67752 215.619 1.68636 215.545 1.69368C215.492 1.69939 215.771 1.84729 215.453 1.89389C216.071 1.80985 218.879 1.86242 219.025 1.84603C219.138 1.83294 218.287 1.67763 219.622 1.76644C219.622 1.76644 219.623 1.76644 219.624 1.76644ZM216.819 1.76546C217.202 1.82746 216.127 1.83522 215.866 1.81234C215.288 1.76114 216.77 1.75812 216.819 1.76546ZM214.231 1.70833C214.109 1.69443 212.999 1.68179 212.905 1.75081C213.431 1.84035 214.509 1.74073 214.231 1.70833ZM201.892 1.71761C201.609 1.72645 200.813 1.67341 200.769 1.73372C201.053 1.72493 201.851 1.77792 201.892 1.71761ZM7.27168 1.43684C6.79318 1.38637 7.90203 1.36576 8.22563 1.38996C8.24323 1.43019 7.31234 1.44117 7.27168 1.43684ZM207.681 1.32013C207.571 1.30811 206.044 1.32363 204.855 1.34369C204.24 1.35425 203.715 1.36606 203.543 1.3758C203.713 1.39166 204.24 1.40243 204.855 1.4088C206.029 1.42073 207.522 1.41717 207.626 1.40266C207.671 1.39599 207.702 1.32302 207.681 1.32013ZM215.204 1.2923C215.523 1.20349 215.73 1.31001 215.771 1.31134C216.165 1.32493 216.984 1.30491 216.804 1.39045C216.109 1.35594 214.568 1.46867 215.204 1.2923ZM201.647 1.31574C200.46 1.3487 202.736 1.44226 202.437 1.34943C202.419 1.34382 201.766 1.31228 201.647 1.31574ZM208.071 1.29425C208.332 1.22249 211.807 1.28438 212.369 1.28449C211.868 1.41685 211.464 1.31631 210.794 1.32306C210.613 1.32504 210.66 1.38011 210.641 1.38019C210.328 1.38274 210.563 1.31914 210.369 1.31818C210.243 1.31774 207.702 1.39536 208.071 1.29425ZM215.386 1.23077C215.58 1.17986 217.754 1.15816 217.841 1.17169C218.495 1.27232 215.555 1.2485 215.386 1.23077ZM207.75 1.17657C208.123 1.02274 209.853 1.12576 208.669 1.20245C208.56 1.20943 208.083 1.14274 207.75 1.17657ZM201.772 1.16925C201.715 1.16472 200.485 1.13397 200.459 1.18292C200.643 1.20194 202.43 1.21901 201.772 1.16925ZM202.412 1.00371C202.381 1.00489 202.673 1.09916 202.091 1.08721C202.039 1.08609 201.961 0.980025 201.226 1.01885C201.08 1.02685 200.854 1.09701 200.87 1.10137C201.628 1.26783 203.899 0.94903 202.412 1.00371ZM215.426 1.14483C215.309 1.10006 215.591 0.967185 215.846 1.03448C215.955 1.06353 215.751 1.14328 215.426 1.14483ZM197.865 1.12628C198.583 1.04569 196.333 1.03045 196.221 1.05108C196.293 1.10128 197.794 1.13415 197.865 1.12628ZM8.39251 0.814743C8.39194 0.814743 8.39138 0.814743 8.39081 0.814743C8.99326 0.833003 8.6201 0.900043 8.64832 0.902148C9.9314 1.00062 9.59096 0.848776 9.79159 0.830856C10.2217 0.792102 10.1524 0.976751 10.8777 0.900195C9.6788 1.01325 10.7701 0.965855 10.804 1.03155C10.9385 1.29963 9.2077 0.906018 8.60936 0.962209C8.52602 0.96999 9.14135 1.05555 8.92783 1.07989C8.23372 1.15876 6.08032 0.744913 8.39251 0.814743ZM216.042 1.02276C216.322 0.944013 218.441 1.02039 217.879 1.08526C217.788 1.09566 215.632 1.13754 216.042 1.02276ZM117.042 0.906543C117.549 0.838396 116.374 0.758284 116.152 0.811324C116.044 0.837749 116.82 0.936451 117.042 0.906543ZM108.766 0.615028C108.161 0.628862 107.517 0.913045 108.275 0.868944C108.356 0.864124 108.836 0.654448 108.766 0.615028ZM148.508 0.761029C147.875 0.659472 147.912 0.848167 148.377 0.845505C148.541 0.844596 148.528 0.764243 148.508 0.761029ZM124.387 0.785444C124.324 0.778858 123.594 0.790906 123.621 0.834275C123.892 0.860294 124.793 0.83066 124.387 0.785444ZM148.708 0.734173C148.334 0.768182 148.977 0.904661 149.433 0.771284C149.2 0.782224 148.747 0.730698 148.708 0.734173ZM206.447 0.759565C206.149 0.831137 205.384 0.81662 204.855 0.824483C204.813 0.825132 204.772 0.825934 204.734 0.82695C204.723 0.806798 204.77 0.792755 204.855 0.783033C205.209 0.744325 206.146 0.774111 206.447 0.759565ZM111.335 0.72929C110.762 0.800039 111.99 0.857962 111.876 0.764448C111.861 0.759368 111.358 0.726273 111.335 0.72929ZM168.895 0.723919C168.478 0.783799 169.803 0.864327 169.438 0.759076C169.42 0.754785 168.919 0.720588 168.895 0.723919ZM174.671 0.758588C174.351 0.738389 173.009 0.744604 173.532 0.803023C173.615 0.812001 174.645 0.813435 174.671 0.758588ZM9.82715 0.758588C9.65695 0.65547 10.6449 0.680016 10.7863 0.698039C10.8418 0.705535 10.0492 0.892752 9.82715 0.758588ZM144.403 0.744916C144.07 0.757817 143.229 0.7333 143.079 0.787398C143.476 0.7762 144.51 0.852679 144.403 0.744916ZM113.948 0.728802C113.45 0.616749 112.587 0.627808 112.8 0.774214C113.75 0.764403 112.686 0.64262 113.948 0.728802ZM150.813 0.613563C150.552 0.605015 150.351 0.745617 150.381 0.75224C150.665 0.815261 151.071 0.668267 150.813 0.613563ZM131.137 0.72929C131.122 0.669205 130.282 0.696476 130.394 0.73515C130.432 0.748133 131.149 0.777916 131.137 0.72929ZM195.437 0.725384C195.052 0.67054 196.229 0.616923 196.576 0.680948C196.747 0.773205 195.483 0.731683 195.437 0.725384ZM158.084 0.648721C158.119 0.559551 156.813 0.609966 157.328 0.683878C157.457 0.702372 158.068 0.678536 158.084 0.648721ZM170.663 0.541783C169.782 0.648118 173.482 0.723611 172.51 0.591101C172.441 0.58166 170.739 0.532803 170.663 0.541783ZM176.707 0.608192C176.556 0.596475 176.629 0.296841 177.259 0.412384C177.342 0.427368 176.954 0.506576 177.022 0.524693C177.063 0.535017 178.431 0.577099 178.493 0.570104C178.561 0.562161 178.481 0.466126 178.55 0.455354C178.63 0.443315 179.47 0.527677 179.911 0.528599C180.746 0.530181 180.832 0.450248 180.9 0.449983C181.096 0.449453 181.436 0.506207 181.837 0.506137C183.862 0.505499 186.968 0.437744 188.577 0.607215C187.146 0.53916 185.783 0.611366 184.358 0.633583C184.776 0.466733 182.263 0.762141 183.731 0.569616C183.052 0.611377 177.207 0.644774 176.708 0.608192C176.708 0.608192 176.707 0.608192 176.707 0.608192ZM106.376 0.53104C106.749 0.428735 104.839 0.451748 104.672 0.570104C104.928 0.58653 106.332 0.542636 106.376 0.53104ZM115.173 0.281519C115.345 0.26386 115.523 0.0638869 116.453 0.165304C116.454 0.165304 116.455 0.165304 116.456 0.165304C116.728 0.194921 116.418 0.243648 116.468 0.261011C116.487 0.2681 117.332 0.367576 116.63 0.383574C115.555 0.408118 116.529 0.234806 115.955 0.232689C115.883 0.232525 114.798 0.34077 114.863 0.36453C114.87 0.367298 115.193 0.3444 115.246 0.354276C115.449 0.3914 115.351 0.453847 115.379 0.456819C115.477 0.464434 117.194 0.358047 117.437 0.450959C117.527 0.48092 114.698 0.550035 114.6 0.534458C114.531 0.524642 114.56 0.351303 114.489 0.334255C114.453 0.325764 113.322 0.39072 113.172 0.374784C113.129 0.370175 113.096 0.365207 113.072 0.361112C113.242 0.414741 112.219 0.410879 112.252 0.350369C112.269 0.326586 112.969 0.340353 112.998 0.34451C113.009 0.34627 113.019 0.348696 113.028 0.350369C112.886 0.285013 115.27 0.287961 114.755 0.190696C115.441 0.137412 114.658 0.333381 115.173 0.281519ZM118.502 0.174582C118.43 0.192811 118.359 0.211041 118.287 0.229271C119.502 0.184651 120.899 0.272407 122.289 0.271753C122.64 0.27172 122.236 0.160229 122.696 0.190696C123.072 0.215111 123.485 0.318523 123.282 0.34158C123.233 0.347333 122.47 0.279978 122.097 0.286891C120.983 0.307354 121.262 0.402964 121.198 0.405547C121.128 0.408265 120.412 0.341027 120.033 0.344022C119.078 0.35176 118.622 0.410461 117.308 0.333767C118.063 0.270754 117.648 0.133864 118.502 0.174582ZM163.634 0.378202C163.679 0.318023 164.471 0.371416 164.761 0.362577C164.716 0.422905 163.919 0.369359 163.634 0.378202ZM45.551 0.300075C45.3083 0.398829 47.1293 0.423281 46.6494 0.341092C46.5434 0.322851 45.7803 0.300777 45.551 0.300075ZM53.7442 0.360136C53.9875 0.332832 53.0077 0.261731 53.0093 0.338162C53.0108 0.362671 53.713 0.363686 53.7442 0.360136ZM134.152 0.271753C134.199 0.268661 134.873 0.290656 134.893 0.29568C135.342 0.400537 133.117 0.339932 134.152 0.271753ZM63.708 0.238549C62.8582 0.303278 65.4175 0.331333 64.635 0.248803C64.5947 0.244783 63.7481 0.235403 63.708 0.238549ZM67.2659 0.220482C67.0632 0.223951 66.1595 0.191812 66.1473 0.221947C66.1296 0.270563 67.1638 0.303781 67.2659 0.220482ZM150.988 0.240502C150.885 0.129232 152.091 0.213497 152.501 0.199485C152.601 0.310832 151.405 0.22645 150.988 0.240502ZM143.454 0.158468C148.49 0.0707526 147.369 0.308486 143.156 0.212669C143.15 0.141285 143.138 0.163992 143.454 0.158468ZM149.9 0.171652C149.716 0.242935 149.143 0.221797 148.76 0.216087C148.829 0.166527 149.618 0.184463 149.9 0.171652ZM43.3763 0.147237C43.6923 0.0571892 45.093 0.168202 44.8438 0.205344C44.7866 0.213366 43.2592 0.196757 43.3763 0.147237ZM134.576 0.176535C134.462 0.0683212 135.965 0.112462 136.082 0.136494C136.545 0.233159 134.702 0.152651 134.576 0.176535ZM158.133 0.145283C158.403 0.0605214 159.157 0.104118 159.645 0.105243C159.42 0.177721 158.551 0.146808 158.133 0.145283ZM154.612 0.0788748C154.644 0.0756214 155.327 0.0832739 155.357 0.0871758C155.916 0.169965 153.984 0.148762 154.612 0.0788748ZM7.55717 0.000746727C7.57985 -0.0019846 8.09501 0.00342011 8.11296 0.00660634C8.57278 0.087986 7.02658 0.0713573 7.55717 0.000746727Z" fill="#636363"/>
</svg>
