<svg width="156" height="117" viewBox="0 0 156 117" fill="none" xmlns="http://www.w3.org/2000/svg">
<path d="M1 16.1498C1.30047 16.6501 2.41341 18.1993 8.97944 27.2709C14.0449 34.2692 15.0365 36.5539 16.2251 38.5329C17.2784 40.3424 18.4017 42.2236 19.7766 43.6597C20.1854 44.001 20.632 44.3054 21.092 44.619" stroke="black" stroke-width="2" stroke-linecap="round"/>
<path d="M67.7269 1C67.7269 1.0348 67.7269 1.0696 67.8546 4.9659C67.9823 8.86221 68.2377 16.619 68.2006 23.2715C68.1635 29.9241 67.8263 35.2374 67.5947 39.6081" stroke="black" stroke-width="2" stroke-linecap="round"/>
<path d="M122.994 40.619C122.994 40.6063 122.994 40.5935 125.929 36.9583C128.864 33.3231 134.733 26.0658 137.882 22.1741C141.28 17.976 141.833 17.1961 142.42 16.3502C142.71 15.9684 142.986 15.6832 143.659 15.2051" stroke="black" stroke-width="2" stroke-linecap="round"/>
<path d="M29.6266 84.8951C29.6011 84.8951 27.0078 87.9273 22.4617 93.2355C16.7647 99.8876 13.6191 104.333 12.2041 105.888C11.9138 106.186 11.6418 106.475 11.3103 106.832C10.9787 107.189 10.5959 107.605 9.71875 108.439" stroke="black" stroke-width="2" stroke-linecap="round"/>
<path d="M66.9336 85.069C66.9336 85.1204 66.9336 85.1719 66.9667 90.2152C66.9998 95.2585 67.0659 105.292 67.1341 115.09" stroke="black" stroke-width="2" stroke-linecap="round"/>
<path d="M120.649 87.1201C120.741 87.1201 121.484 87.2892 125.254 88.9885C128.384 90.3993 133.756 93.4047 137.789 95.8315C144.472 99.854 147.214 102.434 148.478 103.502C150.759 105.263 152.54 106.602 153.38 107.15C153.872 107.443 154.499 107.766 154.819 107.704" stroke="black" stroke-width="2" stroke-linecap="round"/>
<path d="M23.1765 79.9801C23.2569 79.9386 23.5871 80.0255 23.7284 80.0051C23.5788 80.4251 22.8864 80.1306 23.1765 79.9801ZM36.868 49.3919C36.754 49.4981 36.6399 49.6042 36.5257 49.7104C36.8607 49.7675 37.3053 49.6789 37.6161 49.7674C37.6669 49.7823 37.545 50.0837 37.6646 50.0935C37.7844 50.1031 37.7486 49.6972 37.9218 49.6486C38.1162 49.5953 39.0181 49.852 39.3261 49.8358C40.4813 49.7737 41.6356 49.506 42.8021 49.6386C41.6147 49.9766 42.8309 50.2454 43.1608 50.1045C43.2346 50.0719 43.1966 49.3167 44.4021 49.469C45.1681 49.5655 44.5005 50.6686 45.7515 50.0864C44.7533 49.3619 45.7097 49.3842 46.4777 49.334C46.6108 49.3252 47.6783 49.4038 48.1471 49.3546C48.3084 49.3375 48.541 48.9334 48.7543 48.9158C48.9011 48.904 49.0196 49.1167 49.2371 49.0983C50.2466 49.0152 51.2524 48.9635 52.2701 49.0006C51.7092 50.0391 52.7541 49.4176 52.8028 49.4644C53.0558 49.732 51.9593 49.8498 52.4004 50.007C53.0084 49.9539 53.6076 49.9007 54.2146 49.8469C53.711 49.7403 54.8437 48.9661 55.0671 49.291C54.9391 48.3962 57.8513 49.9694 58.277 49.6512C58.3642 49.5842 57.7575 49.1635 59.1353 49.3124C59.2841 49.329 59.239 49.6024 59.3156 49.5741C59.3616 49.557 59.6068 48.6839 59.9291 49.1479C60.0454 49.3172 59.3675 49.9121 60.9005 49.6213C60.2501 48.7699 63.0179 49.0571 63.5308 49.2541C63.4244 49.1407 63.3167 49.0273 63.2112 48.9138C63.7268 49.2099 63.8043 48.9076 63.9177 48.919C64.3768 48.9642 65.0032 49.2373 65.4304 49.1904C65.9245 49.1363 65.9013 48.5908 66.4841 48.7764C66.3427 48.6624 66.2011 48.5484 66.0593 48.4343C66.4574 48.445 66.8516 48.4556 67.2536 48.4656C66.3632 49.2312 67.4553 48.4907 67.527 48.4716C67.6432 48.4397 67.4886 48.7433 67.6832 48.6971C67.7031 48.6901 67.6609 48.4132 67.961 48.3674C68.5869 48.2727 68.5031 48.6274 68.7702 48.6104C68.7944 48.6074 68.6974 48.3609 69.1536 48.2789C70.5961 48.0175 69.1574 48.4714 69.1016 48.5088C69.0306 48.558 69.5818 49.5815 68.3245 49.2705C68.7414 49.3688 68.8115 49.8301 68.8579 49.8393C68.9008 49.8468 69.6189 49.7457 69.657 49.7277C70.0017 49.5526 69.6756 49.2513 69.7414 49.1911C69.7941 49.1427 70.6814 49.5116 70.8366 48.548C71.2982 49.4053 70.6353 49.3592 69.9503 49.5292C69.8575 49.7148 70.629 49.8514 70.6708 49.8487C71.6577 49.7961 71.0732 49.1013 71.2644 48.6281C71.3645 48.3804 71.7883 48.8527 71.3867 48.2238C72.2684 48.1086 71.7512 48.5126 71.8116 48.5652C71.9003 48.6424 72.2069 48.4397 72.2467 48.4624C72.3063 48.4959 72.1182 48.7311 72.3494 48.7979C72.3878 48.8074 72.7319 48.4016 72.2513 48.2423C72.883 48.2634 72.8116 47.9368 73.0599 48.5888C73.4196 47.3098 73.4116 49.3137 73.5843 49.3747C74.0506 49.5348 73.8625 48.5565 73.884 48.5071C73.988 48.2849 74.6424 48.3498 75.1211 48.3533C75.3304 48.3546 75.5077 48.3447 75.5979 48.2967C75.5624 48.6135 75.3646 48.6633 75.1373 48.6329C74.8563 48.5943 74.5288 48.4276 74.425 48.5106C73.8057 49.0056 75.3531 48.8135 74.9366 49.7322C75.0184 49.6169 75.0998 49.5016 75.1811 49.3863C75.2828 49.2452 75.3842 49.1041 75.4851 48.963C75.8805 49.515 75.3852 49.7955 76.3417 49.5281C76.4707 49.0237 75.6613 49.6472 75.8072 49.2472C75.8945 49.0125 76.4516 48.9298 76.4547 48.8085C76.4574 48.6627 75.9618 48.8651 76.0281 48.637C76.1689 48.1456 78.0574 48.49 76.6559 48.8399C77.0505 48.8076 77.3153 49.7533 77.6374 49.4334C77.8447 49.2256 76.5266 47.9802 78.3954 48.1056C78.4609 48.5559 77.6632 48.2864 77.6447 48.322C77.6193 48.3739 77.8246 49.3862 77.8523 49.4351C77.9456 49.5966 79.8098 48.927 80.2515 49.4114C80.055 48.8325 81.6762 49.2083 81.841 49.0154C81.8837 48.9625 81.6854 48.6133 81.7321 48.5716C82.0243 48.3224 82.8992 48.9079 83.2898 48.8958C83.7228 48.8829 83.644 48.5749 83.6683 48.5737C83.8582 48.5771 83.7233 48.7998 83.8385 48.7906C84.013 48.777 85.227 48.7279 85.2793 48.6791C85.296 48.6639 85.0726 48.3228 85.3289 48.2349C85.373 48.2196 85.3812 48.6445 86.1441 48.4005C87.058 48.1068 85.4544 47.9267 85.8068 47.4535C86.457 48.0358 86.3856 47.4131 86.5511 47.4492C86.6095 47.4625 87.0769 47.9589 87.5275 47.8879C87.2096 48.0008 86.8866 48.1138 86.5642 48.2264C86.8964 48.2935 87.5138 48.127 87.7839 48.2103C87.9167 48.2508 87.8449 48.6956 88.1279 48.6602C88.189 48.6501 88.3328 47.5692 87.6394 48.1065C87.5502 47.7321 87.9157 47.9505 88.0727 47.8293C88.0961 47.8105 88.1407 47.1691 88.3813 47.5451C88.4384 47.6376 88.0555 49.5316 89.3368 48.0751C89.3784 48.0281 89.2007 47.8104 89.2409 47.7586C89.2687 47.7235 89.6354 47.786 89.6717 47.7498C89.709 47.711 89.5145 47.4735 89.5582 47.4197C89.7821 47.1422 90.192 48.1155 89.6782 48.0835C89.8589 48.1925 90.039 48.3014 90.2184 48.4103C89.9718 47.6714 90.4629 48.1748 90.6995 48.1302C92.1887 47.8464 91.1377 47.4462 91.3728 47.169C91.7487 46.7236 91.5526 48.0438 92.1348 47.5989C92.1878 47.5572 91.3943 47.0787 92.8748 47.2524C92.6579 47.2943 92.4512 47.3352 92.2379 47.3765C92.4287 48.0949 93.0072 47.2541 93.0576 47.2389C93.621 47.0843 93.2563 47.3848 94.0701 46.9273C94.143 46.8862 94.3262 47.0501 94.4792 46.9445C95.1154 46.509 93.5653 46.8069 93.5001 46.5145C93.4627 46.3727 95.1387 46.2463 95.2071 46.3082C95.4816 46.5886 94.4604 46.5174 94.6895 46.8764C94.7719 47.0052 97.1307 46.4896 97.6291 46.5847C98.1978 46.6983 98.5543 47.6596 98.4404 46.549C98.7129 47.6222 98.7725 46.8639 98.8439 46.8639C99.7091 46.8735 99.7167 46.8837 100.441 46.6993C100.602 46.6587 100.776 46.9741 100.827 46.912C100.857 46.8746 100.756 46.5277 100.907 46.4006C101.115 46.2271 102.531 46.4372 102.658 46.6206C102.783 46.8045 102.083 46.771 102.243 47.0785C102.745 47.0551 103.205 46.9226 103.712 46.8991C103.922 46.8904 103.841 47.1275 103.931 47.1217C103.968 47.1204 104.665 46.8399 104.625 46.7604C104.525 46.577 102.335 46.9571 102.871 46.4975C102.974 46.4088 103.428 46.8823 103.294 46.2591C105.287 46.1777 107.288 46.0876 109.328 45.9953C108.222 46.6014 106.879 46.3314 105.687 46.514C105.525 46.5384 104.96 46.5419 105.066 46.8525C106.092 46.8178 107.342 46.5038 108.355 46.5962C108.387 46.5994 108.304 46.899 108.428 46.9306C108.657 46.9896 109.328 46.4438 109.463 46.5491C109.488 46.5745 109.12 46.9995 109.273 47.2246C109.666 47.8023 109.586 46.4309 109.868 46.4146C110.029 46.4057 110.92 46.6782 111.49 46.6259C111.685 46.6079 111.842 46.553 111.921 46.4375C112.101 46.1758 111.771 46.1558 111.434 46.136C111.148 46.1185 110.857 46.101 110.887 45.9273C111.052 45.8437 111.22 45.7832 111.389 45.7395C112.194 45.533 113.034 45.7001 113.801 45.577C113.817 45.574 113.643 45.3054 113.846 45.2426C114.201 45.1331 114.342 45.526 114.525 45.5712C114.72 45.6192 115.391 45.4874 115.495 45.625C115.509 45.6431 115.416 46.0581 115.397 46.0716C115.122 46.2684 114.96 45.7605 114.933 45.7568C114.829 45.7482 114.754 45.9577 114.662 45.9559C114.51 45.9526 114.407 45.7777 114.206 45.7834C114.067 45.7867 114.239 46.1255 114.104 46.124C114.054 46.122 113.445 45.3728 113.487 46.2021C113.499 46.4607 117.808 46.3301 118.218 46.081C117.842 46.0201 117.461 45.96 117.085 45.8996C117.857 46.0615 118.687 45.3099 118.849 46.2781C121.63 46.0721 124.415 45.8833 127.255 45.7281C127.771 45.7696 127.542 46.4193 128.362 46.1704C128.133 45.9872 127.897 45.8048 127.666 45.6223C128.103 45.7259 130.039 45.8557 130.351 45.7065C130.39 45.6869 130.407 45.114 130.896 45.0329C131.335 44.9612 131.425 45.3838 131.672 45.4508C131.875 45.5062 132.093 45.3818 132.156 45.402C132.203 45.4182 132.236 45.6778 132.348 45.7173C132.704 45.8393 132.385 45.12 132.778 45.945C132.695 45.9814 132.611 46.0179 132.526 46.0546C132.66 46.0849 132.807 46.1392 132.929 46.2064C133.215 46.357 133.374 46.5717 132.954 46.7237C132.949 46.7254 132.945 46.7271 132.94 46.7289C132.836 46.7667 132.914 46.5099 132.835 46.5143C130.062 46.7139 131.792 47.0137 132.955 46.7455C133.087 46.7164 133.208 46.6807 133.315 46.6375C133.606 46.9939 135.265 46.7164 135.336 46.7942C135.417 46.8999 135.127 47.2032 135.517 47.4559C135.567 47.4958 137.989 47.3191 137.108 47.8032C136.92 47.8983 135.791 47.7862 135.534 47.8076C136.141 48.5854 137.69 47.4784 137.869 47.5204C138.545 47.6685 136.533 48.1618 138.061 48.3082C139.09 48.4252 138.168 47.8533 138.555 47.6447C138.656 47.5867 138.948 47.711 138.841 47.7436C138.74 47.7755 138.422 47.7559 138.414 47.3789C138.399 47.3769 138.384 47.3758 138.371 47.3753C138.083 47.3685 138.313 47.7126 138.275 47.7446C138.259 47.759 138.112 47.7296 138.037 47.7113C137.955 47.6937 137.936 47.6826 137.96 47.7584C137.966 47.7773 138.065 48.1573 138.074 48.1881C138.069 48.248 138.19 48.1289 138.203 48.0883C138.199 48.0653 138.046 47.7541 138.037 47.6689C138.013 47.5775 138.273 47.5686 138.262 47.4659C138.216 47.3262 137.972 47.5194 137.898 47.1367C138.02 47.1988 138.191 46.8553 138.184 46.5203C138.19 46.6147 138.036 46.6923 137.98 46.6804C137.786 46.1535 138.117 46.0213 138.179 46.4793C138.163 46.2258 138.059 46.1324 138.012 45.9065C137.999 45.8496 138.107 45.7889 138.089 45.6895C138.083 45.6712 137.881 45.5286 137.858 45.4136C137.808 45.2117 138.182 45.0885 138.243 45.1175C138.398 45.2134 138.168 45.5305 138.245 45.7554C138.253 45.793 138.723 46.0847 138.75 46.1167C138.957 46.5071 138.508 46.3688 138.713 46.7105C138.825 46.7512 138.94 46.7892 139.058 46.8253C138.903 47.3507 138.316 47.3759 138.39 47.8343C138.682 47.5778 139.194 47.3517 139.64 48.2798C139.827 48.6715 139.716 49.0046 139.771 49.1006C139.968 49.4451 140.099 48.9078 140.119 48.9202C140.139 48.9372 140.154 48.956 140.164 48.9765C140.164 48.9765 140.164 48.9765 140.164 48.9765C140.264 49.1863 139.886 49.5497 139.909 49.6531C139.947 49.842 140.473 50.4495 140.548 50.6026C140.555 50.6382 140.293 50.9574 140.529 51.1774C140.769 51.4004 141.085 51.2587 141.109 51.2809C141.247 51.4162 140.768 51.8212 140.796 51.9227C140.807 51.977 141.242 52.1416 141.293 52.2218C141.341 52.3048 141.197 52.6003 141.226 52.9158C141.247 53.1511 141.521 53.2158 141.5 53.2636C141.482 53.2996 140.928 53.535 140.917 53.579C140.899 53.6495 141.13 53.8428 141.137 53.9121C141.146 54.0126 140.929 53.9967 140.989 54.0786C141.024 54.1489 142.117 54.6811 142.223 54.899C142.389 55.2867 141.177 54.7624 142.612 55.94C142.622 55.9475 142.764 55.7541 142.773 55.7609C143.021 55.9814 142.59 56.6961 143.321 56.2679C142.104 57.4016 143.402 56.9263 143.483 57.6642C143.512 57.9515 142.954 58.3138 142.965 58.351C143.156 58.6445 143.248 58.3158 143.38 58.4422C143.457 58.5134 143.04 59.0824 143.254 59.2488C143.37 59.3357 143.952 59.0375 143.983 59.0474C144.308 59.1468 144.12 59.4959 144.236 59.6182C144.315 59.7004 144.68 59.5428 144.697 59.5553C144.732 59.5845 144.416 60.2028 144.366 60.3886C144.331 60.5314 144.71 60.5634 144.674 60.6347C144.457 61.0674 143.385 60.6706 144.543 61.3633C144.615 61.4053 144.88 61.2602 144.893 61.2688C145.188 61.4749 144.691 61.7236 144.692 61.9951C144.698 62.4652 145.367 61.915 144.85 62.4683C145.443 62.5251 145.705 62.3947 146.199 62.0733C144.823 62.9548 144.616 64.2491 146.394 63.4363C145.839 63.6713 146.149 64.2238 145.981 64.3099C145.88 64.3648 144.76 64.142 145.702 65.2865C145.825 65.4284 146.276 64.9931 146.25 65.3975C144.887 65.8627 146.316 65.6232 146.333 65.6645C146.745 66.4435 142.866 67.1842 141.528 67.4046C141.175 67.4998 140.807 67.6361 140.429 67.7748C139.552 68.0948 138.907 68.403 138.748 68.4047C137.991 68.3945 138.617 68.0702 138.454 67.945C138.365 67.8837 137.878 67.9965 137.618 68.1237C137.344 68.2511 137.172 68.3952 137.151 68.3769C137.024 68.2309 137.173 67.8409 137.16 67.8205C136.996 67.5673 136.105 67.8636 135.808 67.7794C135.825 68.0348 136.359 68.0532 136.026 68.4663C135.645 68.9494 135.593 67.8214 135.584 67.7714C135.078 67.7833 134.543 67.8056 133.983 67.8357C132.425 67.9206 130.726 68.0553 129.026 68.2038C129.109 68.7993 130.577 68.2272 130.612 68.3051C130.856 68.7539 128.31 68.9504 127.973 68.7699C128.228 68.8782 128.469 68.9879 128.723 69.0969C128.377 69.8198 127.395 69.0034 126.829 69.3615C126.645 69.4776 127.04 69.7098 127.033 69.7288C126.84 70.0158 126.481 69.8409 126.704 69.4584C126.213 69.8502 126.25 69.4641 125.846 69.4728C125.825 69.4736 126.025 69.7352 125.716 69.8803C125.57 69.948 124.77 70.0249 124.689 70.2782C124.655 70.3847 125.161 71.4232 125.124 70.4912C126.033 70.8611 125.359 70.0425 125.7 70.0319C125.753 70.032 125.683 70.56 126.508 70.2383C126.429 71.1865 125.392 70.5794 125.235 70.7087C124.914 70.9735 126.375 71.3217 126.571 70.5706C126.517 71.3103 126.679 70.6596 126.999 70.6609C127.348 70.6621 127.217 70.8928 127.403 70.8773C127.913 70.8374 127.659 70.3415 128.116 70.7688C127.581 69.3685 128.821 70.5166 129.175 70.8666C128.65 70.9837 128.125 71.1025 127.595 71.223C127.633 71.2956 127.67 71.3683 127.708 71.441C127.564 71.443 127.425 71.4446 127.283 71.4466C127.299 71.3723 127.315 71.298 127.331 71.2238C126.643 71.7591 126.42 71.248 126.358 71.2477C125.587 71.2571 124.699 71.3466 123.919 71.4215C123.801 71.433 123.93 71.8938 123.038 71.6116C122.754 71.5219 122.975 71.1309 122.672 71.2167C122.387 72.2478 122.311 71.4561 122.197 71.4664C121.87 71.4999 121.691 71.7667 121.661 71.7724C121.258 71.8526 120.656 71.8738 120.21 71.9578C120.202 71.9625 120.469 72.2424 120.167 72.1832C120.062 72.1616 119.005 70.9583 118.245 71.47C118.461 71.5353 118.683 71.6001 118.901 71.6654C118.639 71.5689 116.955 72.085 117.414 72.387C117.693 72.5714 118.236 71.6642 118.391 72.4629C117.834 72.2948 115.088 72.901 114.49 72.8614C114.446 72.8583 114.413 72.8515 114.395 72.8403C114.372 72.8268 114.427 72.7204 114.464 72.6305C114.49 72.5692 114.507 72.5155 114.486 72.5042C114.482 72.5018 114.469 72.5015 114.449 72.5027C114.296 72.5121 113.715 72.6183 113.617 72.5392C113.552 72.4863 113.858 72.2888 113.82 72.1977C113.789 72.1333 112.865 72.1266 112.849 72.4605C113.06 72.3027 113.701 72.345 113.403 72.6591C113.365 72.6983 113.121 72.5125 113.074 72.562C112.64 73.0188 114.063 72.7567 114.282 72.7352C113.434 73.2549 111.983 72.9254 110.958 73.3205C110.501 73.0975 111.542 72.8298 111.033 72.6603C109.98 72.3085 110.811 73.0681 110.784 73.1064C110.569 73.4102 109.547 72.0355 109.677 73.1572C109.294 73.0306 109.392 72.8759 108.896 73.0821C108.973 73.152 109.049 73.2218 109.126 73.2917C108.632 74.0076 107.225 72.5083 107.301 72.3727C107.511 72.0096 108.197 72.4595 108.253 72.4403C108.332 72.4123 108.419 71.2489 109.41 72.1653C109.678 71.3605 107.969 71.8101 108.699 71.1982C108.174 71.3461 105.906 71.0675 105.625 71.4379C105.592 71.486 105.857 72.2269 105.263 71.9014C104.981 71.7464 105.61 71.6667 105.471 71.5068C105.05 71.0199 100.089 71.9041 99.1345 72.0235C99.0727 72.0306 99.0713 71.7919 99.0106 71.8002C98.8221 71.8262 98.1806 72.2472 97.8336 72.1716C98.5726 72.5401 97.2238 72.7089 96.8795 72.6933C96.3515 72.6706 96.3384 72.2515 96.1089 72.1842C95.2166 71.9259 93.9528 73.04 93.2042 72.175C93.3225 73.0896 92.0012 71.8291 91.453 71.8679C91.0203 71.8987 90.4599 72.5581 91.0649 72.8793C90.3246 72.9 89.5606 73.136 88.8683 73.2482C88.7534 73.2669 88.8907 72.9825 88.6953 73.023C88.6781 73.0286 88.6727 73.2969 88.5093 73.3379C87.1457 73.6798 87.7715 73.0606 87.4995 72.9149C87.3464 72.8332 87.2331 72.7954 87.1545 72.7862C87.9666 72.671 88.8797 72.4919 89.1329 72.4635C88.869 71.8941 87.3508 72.7203 86.8769 72.597C86.8605 72.5925 86.8909 72.2642 86.8746 72.2632C86.8743 72.2632 86.8739 72.2632 86.8736 72.2632C86.7028 72.2518 85.6036 72.4551 85.8603 72.8243C85.9295 72.9229 86.4429 72.8842 87.0366 72.8029C86.8807 72.8879 87.0294 73.2415 87.002 73.2592C86.6734 73.4652 85.7769 73.1768 85.4791 73.1506C85.4095 73.1453 85.4317 73.3775 85.4204 73.3789C85.1417 73.3464 85.2059 72.6739 84.9733 73.3796C84.4139 72.5886 85.8979 73.1878 85.7546 72.6576C85.6556 72.2512 82.4787 72.7023 82.5378 73.3514C82.5221 73.2823 82.4727 73.1988 82.3766 73.1064C82.1666 72.901 81.2733 73.0299 81.1348 73.1596C81.1108 73.1849 81.1629 73.8174 81.1315 73.8254C81.0567 73.8452 79.9324 73.4198 79.5561 73.8191C79.777 73.8943 80.0038 73.9689 80.2296 74.0435C78.908 74.1334 79.1286 74.3079 79.5769 74.47C79.5988 74.4704 79.6216 74.493 79.6426 74.4943C79.9869 74.6131 80.4429 74.7191 80.4509 74.7687C80.4832 74.9591 78.253 75.2054 78.6457 74.5907C78.703 74.5067 79.7541 74.7036 79.2157 74.3164C79.1224 74.2486 78.4613 74.4096 78.4223 74.3655C78.1705 74.0729 79.6009 73.5743 79.3936 73.1488C79.0699 73.5865 78.6027 73.3957 78.201 73.5279C78.0222 73.5874 77.9964 73.9077 77.9743 73.9151C77.6425 74.0183 77.8114 73.6739 77.6994 73.689C77.6403 73.6984 77.0126 74.4468 77.0814 73.4623C76.891 73.5369 76.7288 73.6041 76.5927 73.6647C75.6928 74.072 75.9778 74.178 76.6221 74.1689C76.9765 74.1636 77.434 74.1245 77.8616 74.0811C77.5713 74.3563 77.048 74.3692 76.6352 74.3942C76.4795 74.4037 76.3404 74.415 76.2377 74.4439C76.1054 74.4816 76.2038 74.8031 75.9805 74.8813C75.5183 75.0433 73.2583 74.7911 72.6809 74.7318C73.0301 74.5979 72.9076 74.2482 72.6347 74.2871C72.3614 74.3261 72.6168 74.7883 72.5659 74.842C72.5126 74.898 71.2039 74.7407 70.997 74.8124C71.9538 74.5919 71.7185 74.2487 70.8968 74.2529C71.0105 74.1449 71.1239 74.0369 71.2371 73.9288C70.7675 74.0965 69.714 73.6066 69.4502 73.7804C69.408 73.8084 69.5786 74.0988 69.5549 74.1145C69.3189 74.2529 68.4723 73.9888 68.4377 74.0922C68.4088 74.1784 68.7764 74.4113 68.6503 74.5406C68.6243 74.5678 68.2606 74.1814 67.9282 74.2962C67.8058 74.3384 67.8937 74.6167 67.8632 74.6345C67.6086 74.7822 67.7411 74.3005 67.2665 74.3989C66.9186 74.4714 66.6771 74.9474 66.1824 74.8157C67.8109 75.3344 66.4482 75.1491 65.7959 75.3577C65.6906 75.391 65.8057 75.8986 65.1565 75.6777C66.4717 74.6926 64.7498 75.206 64.3878 75.2113C64.3683 75.209 64.3471 74.8719 64.173 74.874C64.1583 74.8749 64.1894 75.102 64.0284 75.1264C62.4968 75.357 63.4695 75.0573 63.1675 74.845C63.0387 74.7545 62.3001 75.1084 62.1014 75.1244C62.0552 75.1271 62.0668 74.8893 61.8882 74.906C61.5723 74.9361 61.2978 75.1999 61.0884 75.2285C61.0638 75.2306 61.048 74.8568 60.6536 74.9942C60.5437 75.0326 60.4247 75.1703 60.5866 75.2715C61.1302 75.6038 62.1007 74.9511 62.7092 75.279C63.2646 75.5777 61.5588 75.6792 61.4692 75.6845C61.4366 75.687 61.7631 75.4877 61.4222 75.4648C61.1315 75.4461 60.6237 76.1135 60.1901 75.9899C60.1569 75.9808 59.791 75.447 59.8055 75.4144C59.8192 75.3905 60.3424 75.2506 60.2593 75.0952C60.2496 75.0776 59.9143 75.0946 59.8656 74.9784C59.8062 74.8369 59.6056 73.4334 59.5324 73.4009C59.3448 73.3209 59.4774 73.6376 59.3572 73.6199C59.0986 73.583 58.1969 73.2006 58.1881 73.6901C58.335 73.7135 58.4818 73.7368 58.6283 73.7602C57.8201 73.8418 58.1731 74.0363 58.0618 74.1324C57.9417 74.2363 57.9602 73.8056 57.6844 73.7757C57.6254 73.7692 56.4758 73.9024 56.5062 74.0816C57.1279 73.7711 56.9151 74.3105 56.9441 74.3189C57.0572 74.3492 57.1885 74.0462 57.3382 74.0464C58.3905 74.0529 57.3493 74.5632 57.6018 74.6745C57.6888 74.7119 57.849 74.4513 57.8856 74.463C58.0047 74.5005 58.0194 74.8332 58.0967 74.8033C58.277 74.7338 58.0456 74.2712 58.0591 74.2461C58.2113 73.9452 58.8634 74.287 58.4861 74.8147C58.7315 74.9901 58.7358 74.3664 58.9365 74.6078C59.3359 75.0858 58.7602 74.9816 58.6118 75.0693C58.0752 75.3857 57.9037 75.1531 57.1256 75.2645C56.8439 75.304 56.5256 75.6188 56.3963 75.6403C56.3152 75.6538 55.5031 74.6302 55.5405 76.278C55.2331 76.1297 54.7194 75.0617 54.4139 75.1224C54.1383 75.1777 54.2474 75.7572 54.2223 75.7807C54.184 75.8175 53.8463 75.7837 53.7353 75.8701C53.6054 75.9722 53.68 76.1922 53.4713 76.2904C52.9515 76.5342 52.9436 75.9389 52.8882 75.9021C52.2474 75.4774 52.5507 76.3137 52.4143 76.3865C52.2889 76.4535 50.4561 76.1908 50.0841 76.4175C50.2355 76.2931 50.3868 76.1687 50.5378 76.0443C50.2477 75.6828 49.9732 76.2979 49.9455 75.6328C49.9255 76.7088 49.326 76.0102 49.1536 76.0437C49.0857 76.0574 49.0972 76.2403 49.012 76.251C48.6805 76.2943 47.9286 76.1732 47.7506 76.272C46.9843 76.6972 48.9977 77.2963 49.1576 77.331C48.8421 77.3298 47.0736 77.6288 47.9078 78.1183C48.0369 78.1938 48.2448 77.7058 48.3151 77.6846C48.7905 77.545 48.4277 77.9882 48.4666 78.0279C48.5328 78.092 48.8343 77.6651 48.919 77.7119C48.9477 77.7269 48.7799 78.123 49.2407 78.1158C49.0248 78.5017 47.7318 78.236 47.5638 78.3303C47.5047 78.3639 47.9085 79.1597 46.7791 78.4107C46.7942 78.4853 46.8094 78.5599 46.8246 78.6345C46.214 78.6852 45.6011 78.7358 44.9863 78.7862C45.0477 78.6112 45.3823 78.2531 44.9493 78.3406C44.701 78.3911 44.8979 78.7702 44.8754 78.7821C44.6587 78.8957 40.6826 78.8902 39.9196 78.9552C39.6592 78.977 38.939 79.3081 38.8833 79.3155C38.5514 79.3563 37.3727 79.1894 37.1383 79.2399C36.9925 79.2722 37.1413 79.5899 37.0098 79.5787C36.8876 79.5677 37.0048 79.253 36.9682 79.241C36.6651 79.1372 34.4044 79.6105 33.8589 79.3321C34.1889 79.411 35.8191 78.7424 35.7787 78.5239C35.7708 78.4941 35.3643 78.2689 35.2851 78.3867C35.1412 78.1213 34.6962 78.9547 34.4367 78.8008C34.4075 78.7834 34.5076 78.3202 34.0521 78.2496C33.8952 78.2255 33.4964 78.5956 33.0728 78.2053C32.4792 78.4156 29.3303 77.9057 29.1291 78.4056C29.1235 78.4319 29.5693 78.59 29.2768 78.801C28.8879 79.0814 29.219 78.1636 28.7548 78.0979C28.6845 78.0879 27.4019 78.2148 27.3618 78.2721C26.9867 78.7923 28.1141 78.9685 28.1 79.0281C28.0649 79.1784 27.1354 79.2939 27.0963 79.2598C27.0593 79.2242 27.8016 78.5282 26.8945 78.8091C27.0014 78.8869 27.1083 78.9648 27.2152 79.0427C26.7895 79.2115 26.7358 78.7454 26.6309 78.7197C26.3046 78.638 25.9723 79.3572 25.431 78.4945C25.2877 78.2656 25.5083 78.0012 25.4902 77.9667C25.3172 77.6581 25.1296 78.5013 24.8651 77.8832C24.8452 77.8371 25.4117 77.4474 24.4041 77.4734C24.475 77.5314 24.546 77.5895 24.6169 77.6475C24.4785 77.7851 23.4596 77.8918 23.3222 77.8638C22.9192 77.782 23.2571 77.3428 22.8558 77.4049C23.1299 77.9873 21.9067 78.0967 21.9637 77.5875C21.8088 78.2292 20.7564 77.7652 20.2667 77.7629C19.9579 77.762 19.3352 78.0566 19.2367 78.0266C19.1163 77.9899 19.1411 77.5543 18.9231 77.4632C18.8609 77.4372 18.2276 77.7727 17.6523 77.3375C17.5408 77.2537 17.2921 76.5224 17.4903 76.3329C17.8295 76.0085 18.5021 76.5852 18.4823 76.1498C18.4603 75.6841 17.5825 75.9844 17.3425 75.9298C16.2358 75.6772 16.8577 75.1653 16.8255 75.0158C16.7427 74.6533 16.1423 74.6803 16.1164 74.6482C16.0087 74.5054 16.4268 74.2059 16.4274 73.9833C16.4276 73.6935 15.835 73.186 15.9641 73.085C16.1489 72.9414 16.6923 73.3631 16.7255 73.3414C17.1572 73.049 16.5379 72.3957 16.3634 72.0713C16.3105 71.9715 16.5065 71.8001 16.464 71.7715C15.8159 71.3381 16.3545 72.7153 15.9287 72.6335C15.5488 72.5606 16.0233 72.1083 16.0082 72.0844C15.9889 72.0583 15.5366 72.0461 15.4619 71.8924C15.425 71.8154 16.5765 70.9296 16.5174 70.5474C16.1452 70.6417 15.7729 70.7359 15.4005 70.8302C15.3581 70.331 15.9064 70.685 15.9608 70.632C16.0702 70.5256 15.7509 70.2808 15.7602 70.1224C15.7648 70.0216 16.1225 69.6533 15.787 69.5141C15.6717 69.466 15.4416 69.8228 15.0171 69.4755C16.4499 68.9804 15.4414 68.7255 15.3942 68.5495C15.3479 68.3735 16.0267 67.9387 15.1915 68.0343C15.1298 67.0623 15.2015 67.7263 15.4349 67.5491C15.7208 67.3313 15.039 67.0285 16.1103 67.2437C16.0378 66.7898 15.1827 66.8444 15.1364 66.8092C15.0964 66.7773 15.2808 66.5483 15.211 66.4741C14.3855 65.6149 14.9472 66.0024 14.7001 65.4464C14.6782 65.3967 13.9144 65.2081 14.4896 65.1112C15.5376 64.9349 15.9941 65.569 16.1348 64.1843C15.3413 63.6052 14.4216 64.5205 14.1856 64.5418C13.8242 64.573 14.1918 64.2818 14.1452 64.2041C14.129 64.179 13.8177 64.2104 13.8129 64.1881C13.563 63.1414 15.2011 64.1344 15.7037 63.9382C15.5636 63.7841 15.4235 63.63 15.2834 63.4759C15.4677 63.4648 15.652 63.4537 15.8363 63.4426C14.9493 63.1486 15.8022 63.3234 15.999 62.4654C16.0432 62.2726 15.4746 62.6161 16.1191 62.0667C15.6303 61.9565 15.7806 61.7783 15.3471 62.03C15.3496 61.6881 16.329 61.277 16.7144 61.0915C15.3261 60.7436 16.1449 61.9761 14.9355 61.3442C14.7255 61.773 15.2924 61.6758 15.2478 61.7468C15.0879 62.0022 14.6871 61.6138 14.2394 62.5056C14.1665 62.6521 14.5025 63.0881 14.022 63.0792C13.9688 63.0775 13.6531 62.7056 13.6566 62.6779C13.6894 62.3794 13.9949 62.483 14.0042 62.3585C14.0128 62.2406 13.677 62.3201 13.675 62.2875C13.6549 61.9151 13.953 62.1378 13.9076 62.0222C13.8093 61.7708 12.5739 61.0004 14.1651 61.194C12.8595 61.6497 14.0073 61.6099 14.5157 61.4347C14.6453 61.3907 14.6726 61.1672 14.857 61.0851C15.0941 60.9788 15.3774 61.0783 15.5003 61.0342C15.6325 60.9857 14.861 60.4792 15.961 60.6077C15.3897 60.0988 14.4188 60.6826 13.8614 60.3293C12.7367 59.6154 14.6085 59.4071 14.8022 59.33C14.8537 59.3091 14.6713 59.013 14.7055 58.9937C14.7616 58.964 15.8301 59.0751 15.9285 58.8236C16.0267 58.5723 15.5388 58.8452 15.4992 58.5868C15.4724 58.4129 16.7484 58.0698 16.0502 57.9687C15.569 57.8994 14.7037 58.6239 14.5352 57.8738C15.2386 57.793 15.9417 57.7122 16.6445 57.6313C16.2515 57.3545 15.8583 57.0777 15.4651 56.8009C16.2537 56.6893 16.9457 56.9953 17.6863 56.5649C15.8569 55.6929 18.2533 55.8159 18.2763 55.7034C18.2834 55.6362 17.5536 54.9087 17.4357 54.7752C18.0576 54.4717 19.9663 54.2812 18.8229 53.3892C19.0316 53.5919 19.51 53.0655 19.5025 53.0269C19.4294 52.6215 18.3634 52.9136 18.5288 52.5414C18.7201 52.1095 19.0197 52.6808 19.3304 52.6263C20.9243 52.3432 20.4284 50.23 22.0416 50.5237C22.0078 50.4489 21.9738 50.3741 21.9399 50.2993C23.6849 50.3735 25.4326 50.4472 27.1758 50.5202C27.8411 49.8529 29.6408 49.4081 30.5341 49.455C30.7142 49.464 31.6012 49.78 31.6702 49.8378C31.7962 49.9488 31.1219 50.0114 31.433 50.2174C31.4985 50.2597 32.9938 50.3608 32.8763 50.0007C32.7085 49.9634 32.1912 50.1606 32.1031 50.0774C31.4869 49.4842 36.088 49.8414 36.3094 49.588C36.2042 49.4731 36.099 49.3581 35.9938 49.2432C36.2855 49.2928 36.577 49.3423 36.868 49.3919ZM24.3295 78.9196C24.1645 79.2886 23.7185 79.0267 23.4631 79.1358C23.1098 79.2885 22.5394 80.7073 22.7637 79.2945C23.2857 79.1696 23.8066 79.0446 24.3295 78.9196ZM32.0215 79.2532C31.664 79.0673 31.9152 78.2745 32.2126 78.5929C32.2456 78.6291 32.5049 79.5032 32.0215 79.2532ZM28.317 78.9824C28.3316 78.9716 28.6369 78.9841 28.6479 78.9961C28.9298 79.3039 28.0092 79.2646 28.317 78.9824ZM46.1725 78.0554C45.7844 78.1018 46.0893 78.8065 46.3216 78.505C46.3362 78.4859 46.198 78.053 46.1725 78.0554ZM45.8951 78.0454C45.5725 77.416 45.0031 78.7307 45.4842 78.5848C45.5309 78.5702 45.9101 78.0761 45.8951 78.0454ZM30.7568 78.976C30.7898 78.7299 31.1568 78.8381 31.3136 78.8924C31.3156 79.1162 30.9085 78.9444 30.7568 78.976ZM39.9788 78.643C39.9891 78.45 38.7226 78.4984 38.6434 78.7547C38.8406 78.6411 39.9699 78.8165 39.9788 78.643ZM43.2164 78.2737C43.1834 78.2414 42.7456 78.3056 42.7645 78.4751C42.9848 78.6914 43.3661 78.4199 43.2164 78.2737ZM49.6766 78.0765C49.6988 78.033 49.3346 76.9629 50.1359 77.6483C50.2535 77.7486 49.8556 78.0449 49.8974 78.0823C49.9849 78.1551 50.0533 78.1881 50.1074 78.1926C49.7486 78.2945 49.3727 78.3493 49.3341 78.2849C49.1524 77.9809 49.6668 78.0947 49.6766 78.0765ZM53.0416 77.1539C53.1105 76.9749 53.592 77.0522 53.7031 77.1209C53.7223 77.1339 53.6575 77.6003 53.8712 77.5579C54.0426 77.5231 53.7681 77.0577 54.1065 77.1216C54.4481 77.1856 54.0075 77.5402 54.0379 77.5633C54.0789 77.5936 54.5951 77.3615 54.5887 77.6381C54.5842 77.843 54.0178 77.725 53.8799 77.7735C53.7037 77.8357 53.9321 78.1687 53.6314 78.1061C53.4423 78.0671 53.5248 77.4643 53.4842 77.4354C53.4504 77.4122 52.8062 77.7803 53.0427 77.1557C53.0424 77.1551 53.042 77.1545 53.0416 77.1539ZM50.2044 78.1628C50.1778 78.184 50.1462 78.1958 50.1074 78.1926C50.1399 78.1834 50.1723 78.1728 50.2044 78.1628ZM25.3396 78.6295C25.5275 78.8094 24.9909 79.061 24.7787 78.8243C24.77 78.6292 25.3098 78.6015 25.3396 78.6295ZM50.523 77.6635C51.0641 77.7953 50.6775 78.0152 50.2044 78.1628C50.3522 78.0449 50.3411 77.6195 50.523 77.6635ZM35.2851 78.3867C35.309 78.4307 35.3254 78.5 35.3305 78.6144C35.2674 78.4909 35.2601 78.4238 35.2851 78.3867ZM36.5407 78.5549C36.9597 78.1938 36.0892 78.2331 36.1022 78.4824C36.1075 78.5766 36.5241 78.5693 36.5407 78.5549ZM46.672 78.0734C46.6317 78.0406 47.2066 76.968 46.3479 77.7867C46.8241 77.8955 46.3296 78.0262 46.3399 78.1182C46.3678 78.3826 47.1524 78.1022 47.3341 78.2109C47.457 77.7323 46.8037 78.1817 46.673 78.0734C46.6727 78.0734 46.6723 78.0734 46.672 78.0734ZM59.1782 77.1813C59.0805 77.4633 58.7322 77.3874 58.5022 77.3799C58.5987 77.098 58.9444 77.1741 59.1782 77.1813ZM119.894 72.3015C118.393 72.7201 118.072 71.6167 119.521 71.9112C119.549 71.9175 119.974 72.1775 119.894 72.3015ZM106.559 73.5201C106.353 73.0469 106.841 72.9117 107.184 73.0774C107.263 73.1146 107.593 73.5798 107.292 73.7126C107.234 73.1173 106.733 72.9447 106.559 73.5201ZM50.8152 77.3374C50.9587 77.0032 51.4526 77.2206 51.7081 77.2612C51.5629 77.5373 51.0419 77.4327 50.8152 77.3374ZM114.796 72.2689C114.63 72.2502 114.569 72.6892 114.601 72.7215C114.745 72.8699 115.008 72.4907 114.796 72.2689ZM49.2583 77.339C49.2298 77.1432 49.8628 76.9325 49.9235 77.4169C49.786 77.3864 49.2784 77.4618 49.2583 77.339ZM58.7346 77.0509C58.6305 76.9549 59.1405 76.7559 59.3005 76.8489C59.2966 77.0585 58.801 77.1134 58.7346 77.0509ZM112.194 72.7155C112.043 72.6956 111.675 72.727 111.655 72.9041C111.629 73.1254 112.158 72.9894 112.194 72.7155ZM137.583 70.2239C137.592 70.2633 137.42 70.4154 137.275 70.5414C137.127 70.6672 136.994 70.7671 136.916 70.6934C136.772 70.5529 136.891 70.4177 137.069 70.3272C137.236 70.2362 137.559 70.1953 137.583 70.2239ZM116.302 71.8763C116.804 72.2311 116.253 71.8947 116.321 72.3197C116.63 72.3006 117.395 72.2374 116.823 71.8754C116.712 71.8054 116.449 71.8879 116.302 71.8763ZM115.864 71.7806C115.831 71.9244 115.552 72.3977 115.832 72.3345C115.962 72.3046 116.118 71.7962 115.864 71.7806ZM135.034 70.3955C134.708 70.0217 136.175 70.1912 136.175 70.2654C136.195 70.3006 136.206 70.3338 136.214 70.3619C136.265 70.241 136.499 70.2212 136.52 70.5269C136.454 70.5005 136.262 70.5262 136.238 70.4925C136.228 70.4781 136.22 70.4645 136.215 70.4508C136.154 70.7112 135.116 70.4617 135.034 70.3955ZM132.275 70.1491C132.676 69.5598 132.814 70.5081 132.779 70.5411C132.33 70.9613 132.594 70.239 132.576 70.207C132.542 70.1542 132.224 70.5026 132.277 70.149C132.276 70.149 132.276 70.1491 132.275 70.1491ZM134.505 70.2582C134.522 70.2448 134.848 70.2616 134.861 70.2764C135.139 70.5866 134.215 70.5408 134.505 70.2582ZM55.5793 76.3939C55.8736 76.478 55.6014 76.8395 55.4031 76.7204C55.3867 76.7085 55.3195 76.3196 55.5793 76.3939ZM115.651 71.8998C115.602 71.8613 114.852 71.8218 114.386 71.9477C114.147 72.0127 113.984 72.1222 114.039 72.2983C114.073 72.2784 114.224 72.2669 114.421 72.2549C115.004 72.2191 115.987 72.1801 115.651 71.8998ZM102.885 73.2283C103.19 73.1994 102.913 73.7327 102.729 73.565C102.661 73.5027 102.809 73.236 102.885 73.2283ZM48.3833 76.9137C48.0781 77.1988 48.1127 76.2751 48.3955 76.582C48.4066 76.594 48.3953 76.9026 48.3833 76.9137ZM105.358 73.2445C104.343 73.663 104.412 72.0602 105.839 72.4382C105.805 72.5132 105.77 72.5882 105.735 72.6632C107.335 72.7213 105.856 72.7623 105.479 72.8939C105.336 72.944 105.489 73.1932 105.359 73.2463C105.359 73.2457 105.358 73.2451 105.358 73.2445ZM101.27 73.371C100.129 72.3595 102.152 72.8833 102.696 72.6761C102.207 73.1966 101.489 73.2026 102.502 73.5724C101.111 73.8142 101.648 73.3054 101.588 73.2745C101.517 73.24 101.319 73.4145 101.27 73.371ZM103.953 73.0735C104.006 73.0346 104.475 73.2132 104.631 73.1583C104.448 73.5656 103.589 73.3383 103.953 73.0735ZM129.169 70.6469C129.177 70.3439 129.248 70.1152 129.583 70.2008C129.496 70.3598 129.294 70.507 129.169 70.6469ZM23.9553 77.3434C23.7166 77.3282 23.2419 77.2272 23.395 77.5401C23.4115 77.5666 23.9591 77.5212 23.9553 77.3434ZM110.735 72.2206C110.683 72.1894 109.378 72.3162 109.866 72.5942C110.013 72.6781 111.189 72.4982 110.735 72.2206ZM117.371 71.5008C117.265 71.5092 116.836 71.6137 116.835 71.6856C116.833 71.9337 117.351 71.7401 117.371 71.5008ZM22.7498 77.067C22.7178 77.0366 21.994 77.1111 22.0776 77.2551C22.2363 77.5275 22.8598 77.1718 22.7498 77.067ZM56.6083 75.6494C56.6686 75.636 56.7611 75.96 56.7822 75.9629C56.832 75.9658 57.9473 75.7974 57.5355 76.2335C57.4648 76.3069 55.8552 76.2058 55.6441 76.1719C55.5469 75.7259 56.2487 76.1276 56.413 76.0752C56.442 76.0653 56.4468 75.689 56.6079 75.6513C56.608 75.6507 56.6082 75.65 56.6083 75.6494ZM130.838 70.1951C130.866 69.9055 132.066 69.6294 132.072 69.977C131.663 70.0479 131.254 70.1206 130.838 70.1951ZM130.212 70.196C129.934 70.0152 130.546 69.8999 130.73 69.9756C130.748 70.1667 130.252 70.2223 130.212 70.196ZM114.838 70.7102C114.718 70.7941 115.157 71.1637 115.079 71.2541C115.028 71.3106 114.726 71.1878 114.649 71.3277C114.628 71.3718 114.964 71.7279 115.045 71.7016C115.162 71.6656 115.012 71.3724 115.142 71.3556C115.578 71.2995 115.983 71.4753 116.392 71.4246C116.428 71.4194 116.119 71.2348 116.433 71.2029C116.482 71.1975 116.806 71.4878 117.177 71.3984C117.893 70.3092 118.61 71.223 119.619 70.7513C119.57 70.6613 118.758 70.4931 118.711 70.4889C117.816 70.4188 116.239 70.5746 115.318 70.6768C115.08 70.7027 115.219 70.9009 115.118 70.9203C115.039 70.935 115.09 70.5331 114.838 70.7102ZM24.0757 77.1225C23.9519 76.7326 23.5614 76.9919 23.3077 76.9783C23.4063 77.3304 23.8251 77.0421 24.0757 77.1225ZM124.576 70.3898C124.455 70.4167 124.061 70.3361 124.042 70.457C124.016 70.6148 124.576 70.6582 124.576 70.3898ZM62.9137 75.5109C62.9257 75.4997 63.2358 75.5077 63.2479 75.5196C63.5375 75.8231 62.6072 75.7977 62.9137 75.5109ZM70.3038 75.2505C70.5371 75.1904 70.7675 75.0559 70.8622 75.3705C70.7106 75.3292 70.2873 75.4737 70.3038 75.2505ZM80.5553 74.6614C80.4801 74.2478 81.2067 74.4714 81.3411 74.4999C81.3052 74.6884 80.6115 74.9595 80.5553 74.6614ZM129.013 69.3441C129.421 69.335 129.286 68.7113 129.565 68.9759C129.61 69.0209 129.853 70.3228 129.369 69.8671C129.281 69.7853 129.571 69.4471 129.013 69.3441ZM106.062 72.4263C106.138 72.1396 106.493 72.1818 106.725 72.1777C106.697 72.3875 106.223 72.3883 106.062 72.4263ZM21.4316 76.7858C21.2215 76.4011 20.3053 76.7147 20.5407 76.9664C20.5742 76.9992 21.3017 76.7745 21.4316 76.7858ZM51.8635 76.0403C52.2349 75.72 51.4403 75.6524 51.1996 75.961C51.3126 75.9375 51.8386 76.0614 51.8635 76.0403ZM78.0706 74.5898C78.087 74.5762 78.4999 74.5807 78.5203 74.5946C78.8767 74.8943 77.7098 74.883 78.0706 74.5898ZM67.8465 74.8607C67.9776 74.6016 68.9607 74.7593 69.1868 75.0018C68.9986 75.3812 67.6756 75.1849 67.8465 74.8607ZM127.347 69.6684C127.641 69.629 127.919 69.6828 128.2 69.7682C128.16 69.9851 127.393 69.8237 127.347 69.6684ZM79.5769 74.47C79.5988 74.4704 79.6216 74.493 79.6426 74.4943C79.6203 74.4867 79.5983 74.4777 79.5769 74.47ZM120.734 70.1621C120.476 70.1045 120.569 70.4869 120.585 70.4972C120.785 70.6034 121.027 70.227 120.734 70.1621ZM23.7686 76.5515C23.6706 76.2021 23.2496 76.4863 23.0007 76.4092C23.0797 76.6851 23.5708 76.5937 23.7686 76.5515ZM100.104 72.7683C99.7407 72.4225 101.012 71.8444 101.32 72.0585C101.365 72.2912 100.159 72.8155 100.104 72.7683ZM50.6575 75.5536C50.6227 75.2789 50.0856 75.6302 50.2065 75.7564C50.2833 75.8368 50.6788 75.7244 50.6575 75.5536ZM102 72.1478C102.116 72.0507 102.435 72.29 102.351 72.4659C102.243 72.6914 101.97 72.1752 102 72.1478ZM112.978 70.676C112.92 70.6401 112.242 71.0038 112.568 71.2492C112.794 71.4197 112.781 71.02 112.829 71.0132C112.884 71.008 114.071 71.3621 112.978 70.676ZM92.6438 73.2452C92.9144 73.1147 93.2612 73.2073 93.5488 73.1736C93.4478 73.3541 92.7839 73.4603 92.6438 73.2452ZM52.7747 75.4063C52.7064 75.2973 50.898 75.293 51.9361 75.6004C51.9972 75.6178 52.9874 75.7368 52.7747 75.4063ZM129.013 69.3441C128.962 69.3452 128.902 69.337 128.831 69.3156C128.9 69.3206 128.961 69.3343 129.013 69.3441ZM124.344 69.726C124.419 69.517 123.935 69.5101 123.804 69.6304C123.785 69.8787 124.331 69.7553 124.344 69.726ZM93.5454 72.8927C93.6999 72.7634 94.0145 72.8578 94.2216 72.8253C94.2031 73.0145 93.6326 73.0753 93.5454 72.8927ZM81.8112 73.6056C82.1517 73.6939 82.5534 73.6152 82.5439 73.387C82.5531 73.4221 82.5717 73.4588 82.6007 73.495C82.63 73.5308 82.9742 73.4006 83.1369 73.4673C84.0914 73.867 79.5852 73.9808 82.1505 73.1616C82.0378 73.3096 81.9247 73.4576 81.8112 73.6056ZM66.5177 74.3839C66.3161 74.1149 65.8131 74.486 65.9527 74.5893C66.0476 74.6601 66.718 74.6549 66.5177 74.3839ZM73.6935 73.8652C73.6351 73.8187 73.1293 74.0406 73.1264 74.1873C73.4269 74.3259 73.9626 74.0815 73.6935 73.8652ZM65.0728 74.1226C64.954 74.0859 64.824 74.5401 64.8386 74.559C64.9651 74.7173 65.2803 74.3632 65.0728 74.1226ZM128.065 68.2131C127.883 68.0998 127.388 68.469 127.296 68.7744C127.269 68.7193 127.206 68.6501 127.092 68.5704C127.092 68.5703 127.092 68.5703 127.093 68.5703C126.943 68.4588 122.621 68.7391 125.564 69.0317C125.656 69.0415 125.509 68.7884 125.88 68.8007C125.905 68.8019 125.937 69.0167 126.012 69.0203C126.187 69.0268 127.118 69.0791 127.284 68.8895C127.289 68.9294 127.304 68.9664 127.332 68.9991C127.588 69.2901 128.2 68.3006 128.065 68.2131ZM74.7046 73.7704C74.5981 73.6958 74.2775 73.7898 74.2541 73.9827C74.4211 74.0676 74.9524 73.9444 74.7046 73.7704ZM52.6912 74.6235C52.4789 74.4735 51.963 74.786 52.1275 74.9368C52.2287 75.0295 52.9365 74.7957 52.6912 74.6235ZM71.4463 74.0452C72.6643 74.2094 71.7332 74.0122 71.9036 73.7225C71.7516 73.83 71.5965 73.9378 71.4463 74.0452ZM133.282 68.5505C133.111 68.4958 133.277 67.9312 133.482 68.2208C133.546 68.3129 133.38 68.58 133.282 68.5505ZM144.558 67.3673C144.141 66.9939 145.525 66.8163 145.138 67.3095C145.122 67.3289 144.586 67.3791 144.558 67.3673ZM135.448 68.0864C135.354 68.423 135.288 68.4636 134.995 68.39C135.422 68.2833 135.02 67.9983 135.448 68.0864ZM82.5378 73.3514C82.5409 73.3647 82.5433 73.3745 82.5439 73.387C82.5407 73.3749 82.5388 73.3633 82.5378 73.3514ZM63.9506 74.2585C63.7896 73.982 63.3713 74.0207 63.5083 74.3002C63.5215 74.3261 63.8986 74.4703 63.9506 74.2585ZM127.296 68.7744C127.319 68.8233 127.312 68.8568 127.284 68.8895C127.279 68.8519 127.284 68.8156 127.296 68.7744ZM66.1926 73.9288C66.1873 74.1406 66.8339 74.1936 66.858 74.1676C67.2089 73.7847 66.4587 73.9042 66.1926 73.9288ZM48.4746 74.4704C48.4426 74.4935 48.6717 75.0317 48.7938 74.8138C48.8882 74.6447 48.5944 74.3824 48.4746 74.4704ZM136.372 67.9424C136.518 67.9436 136.71 67.947 136.741 68.207C136.65 68.1647 136.371 68.1323 136.372 67.9424ZM143.902 67.2025C143.572 67.6254 142.47 67.9273 141.519 68.028C141.52 67.6498 143.59 67.4267 143.902 67.2025ZM128.6 68.3173C128.581 68.3025 128.091 68.2243 128.179 68.4862C128.309 68.8699 128.749 68.4512 128.6 68.3173ZM49.4658 74.7269C49.6858 74.5346 49.1462 73.9844 48.9213 74.4309C48.806 74.6596 49.4289 74.7592 49.4658 74.7269ZM62.6236 73.9437C62.3292 74.1115 63.0866 74.3566 63.178 74.0718C63.039 74.0552 62.7283 73.8842 62.6236 73.9437ZM72.8094 73.1827C71.8231 72.4238 72.4139 73.8715 72.5753 73.7331C72.5981 73.7134 72.8336 73.2005 72.8094 73.1827ZM19.0673 75.2297C18.9379 75.3456 19.442 75.7399 19.4991 75.4701C19.5341 75.3013 19.15 75.1558 19.0673 75.2297ZM87.1545 72.7862C87.1149 72.7919 87.0756 72.7976 87.0366 72.8029C87.065 72.7875 87.1032 72.7802 87.1545 72.7862ZM59.8687 72.971C60.5751 74.0865 60.4697 73.2091 60.5273 73.2116C60.652 73.2189 60.9561 73.5159 61.1889 73.4556C60.9257 73.5951 60.6572 73.7348 60.3969 73.874C60.6117 73.9483 62.4768 74.2928 62.5045 74.1058C62.5482 73.8399 61.9745 73.9466 61.9563 73.9241C61.9306 73.892 61.81 73.1627 61.7551 73.137C61.6663 73.0963 60.1194 73.1438 59.8687 72.971ZM70.8378 73.4109C70.9939 73.4904 71.0516 73.7785 71.1184 73.7056C71.1412 73.6806 71.1311 73.4035 71.2092 73.3278C71.0856 73.3555 70.9619 73.3832 70.8378 73.4109ZM58.7202 74.0444C58.5187 73.7132 59.3686 73.8088 59.3965 73.8456C59.5499 74.0694 58.8856 74.315 58.7202 74.0444ZM65.8643 73.6973C65.8332 73.679 65.1826 73.602 65.1957 73.7895C65.3741 73.9252 66.2375 73.9284 65.8643 73.6973ZM71.3091 73.3038C71.5345 73.3248 71.9873 73.5811 71.9149 73.1667C71.9146 73.1667 71.9143 73.1668 71.9139 73.1668C71.7125 73.2125 71.507 73.2584 71.3091 73.3038ZM50.2092 73.8195C49.7677 73.1692 49.9948 74.0022 50.3729 74.204C50.475 73.9018 50.2816 73.9253 50.2092 73.8195ZM48.8484 73.3693C48.7284 73.2537 47.5327 73.4243 47.727 73.7699C47.7967 73.8931 48.4766 73.5543 48.5089 73.5775C48.5582 73.612 48.3513 74.0083 48.7162 73.919C48.6903 73.7879 48.8895 73.408 48.8484 73.3693ZM49.8479 73.4058C49.414 72.9145 49.3514 73.8498 49.6654 73.8417C49.788 73.8393 49.9099 73.4767 49.8479 73.4058ZM51.5534 73.4269C51.4005 73.3437 50.9941 73.2287 50.7297 73.5481C51.0992 73.5619 51.4711 73.5756 51.8403 73.5893C51.8767 73.4122 51.6876 73.5001 51.5524 73.427C51.5527 73.427 51.5531 73.427 51.5534 73.4269ZM146.602 63.5903C146.1 63.5329 146.953 63.0214 147.012 63.0613C147.217 63.2015 146.831 63.6151 146.602 63.5903ZM16.2691 66.827C16.1747 66.7239 16.1058 66.3787 15.9088 66.5657C16.1184 66.8164 16.3279 67.0671 16.5374 67.3177C16.6797 66.7271 16.3723 66.9406 16.2691 66.827ZM15.4385 64.7041C15.4668 64.6891 15.2867 63.7913 15.6726 64.3838C15.9334 64.7838 14.5832 65.2156 14.3274 64.822C14.5938 64.6291 15.1948 64.8263 15.4385 64.7041ZM12.9541 60.8621C12.9365 60.7906 13.4506 60.6716 13.5117 60.7208C13.8327 60.9799 13.049 61.2453 12.9541 60.8621ZM14.607 60.9913C14.3601 60.8225 14.894 60.6955 15.0567 60.7922C15.0766 60.9596 14.6451 61.0158 14.607 60.9913ZM139.017 52.5159C138.827 51.9289 138.986 53.24 139.071 52.9548C139.076 52.941 139.027 52.5444 139.017 52.5159ZM13.4356 59.9391C13.6825 60.108 13.1486 60.2349 12.9859 60.1382C12.9667 59.9709 13.398 59.9145 13.4356 59.9391ZM138.699 51.0897C138.635 50.6533 138.849 52.1187 138.864 52.1767C138.912 52.4107 139.012 51.7936 139.027 51.6371C138.743 51.9376 138.776 51.2838 138.699 51.0897ZM138.483 51.9562C138.33 52.0283 138.453 52.1494 138.598 52.1991C138.749 52.2491 138.843 52.2217 138.846 52.0149C138.851 52.0368 138.586 51.9159 138.483 51.9562ZM136.293 51.4196C136.092 51.365 135.501 51.2434 135.407 51.4787C135.618 51.4321 136.207 51.6582 136.293 51.4196ZM135.837 50.7225C135.515 50.4087 135.456 51.3321 135.812 51.0538C135.826 51.0431 135.848 50.74 135.837 50.7225ZM134.104 50.4288C133.887 50.0697 133.706 50.9711 134.021 50.9829C134.117 50.9848 134.126 50.4701 134.104 50.4288ZM138.572 49.5004C138.576 49.4956 138.58 49.4914 138.584 49.4878C138.737 49.3629 138.882 49.9634 138.648 50.048C138.746 50.1361 138.847 50.2328 138.832 50.331C138.833 50.4914 138.709 50.4062 138.662 50.2655C138.591 50.0942 138.543 49.8398 138.513 49.8645C138.455 49.9268 138.628 50.6404 138.66 50.868C138.621 50.6467 138.621 50.5329 138.717 50.435C138.808 50.3387 138.985 50.2559 139.12 50.1599C138.78 50.0896 138.368 49.8546 138.449 49.7121C138.465 49.6741 138.536 49.8658 138.59 49.8373C138.601 49.8313 138.61 49.8215 138.616 49.8091C138.643 49.7526 138.615 49.6393 138.592 49.5669C138.58 49.5301 138.57 49.5038 138.572 49.5005C138.572 49.5005 138.572 49.5004 138.572 49.5004ZM131.933 50.5229C131.357 50.1418 131.753 51.016 132.062 50.8374C132.074 50.8243 131.947 50.5321 131.933 50.5229ZM12.6702 57.2316C13.3795 57.5882 12.8841 58.0984 14.3277 57.3057C13.7269 57.8559 14.3037 57.6907 14.1893 57.9093C14.0975 58.0823 13.7331 57.9505 13.9518 58.2884C13.6665 57.9219 12.4725 58.0564 12.4175 57.9972C12.418 57.9971 12.4185 57.9971 12.419 57.9971C12.386 57.962 12.4438 57.1181 12.6702 57.2316ZM136.295 49.0733C136.082 47.9845 136.004 49.7117 135.588 48.8137C135.049 50.1257 137.117 48.8062 137.366 49.933C135.103 49.7592 138.831 51.0667 137.294 49.3708C138.586 50.0147 137.733 49.18 137.945 48.9757C138.055 48.8675 138.292 48.8828 138.46 48.873C138.633 48.8634 138.725 48.8269 138.723 48.6239C138.723 48.6238 138.723 48.6238 138.723 48.6238C138.468 48.6415 137.969 48.6442 137.508 48.6593C137.935 49.5478 137.001 49.2555 136.691 48.5423C136.556 48.7187 136.426 48.8957 136.295 49.0733ZM138.68 49.9628C138.672 49.9527 138.51 49.9712 138.289 50.011C138.074 50.051 137.841 50.1165 137.869 50.2055C137.931 50.2636 138.305 50.2746 138.523 50.2333C138.739 50.1915 138.809 50.0956 138.68 49.9628ZM139.065 49.6082C138.906 49.6681 138.661 49.5717 138.707 49.9024C138.811 49.8729 139.099 49.9497 139.065 49.6082ZM126.336 50.2098C125.981 50.5122 127.152 50.4916 126.788 50.2012C126.772 50.1874 126.354 50.1955 126.336 50.2098ZM135.293 49.2456C134.85 48.9215 135.079 49.9756 135.395 49.6944C135.414 49.6778 135.312 49.2605 135.293 49.2456ZM13.2338 57.0882C13.2522 56.8281 14.2718 56.9839 14.4516 56.9769C14.3557 57.2207 13.2127 57.3863 13.2338 57.0882ZM138.971 48.5996C138.306 47.8685 138.427 48.9603 138.39 48.947C138.359 48.9317 138.273 48.531 138.264 48.5224C138.255 48.5134 138.191 48.5362 138.173 48.5503C138.15 48.5657 138.19 48.572 138.198 48.585C138.205 48.6063 138.308 49.1703 138.362 49.3435C138.297 49.1899 138.316 49.1599 138.489 49.1059C138.651 49.0564 138.895 48.9982 138.903 48.9602C138.919 48.8987 138.441 48.444 138.97 48.5998C138.97 48.5998 138.971 48.5997 138.971 48.5996ZM138.299 48.8443C138.418 49.06 138.278 49.1311 138.281 49.0376C138.266 48.9393 138.241 48.891 138.243 48.8659C138.243 48.8411 138.291 48.832 138.299 48.8443ZM138.597 48.5903C138.618 48.5609 138.777 48.5271 138.828 48.5425C138.886 48.5576 138.799 48.6107 138.779 48.7434C138.861 48.9204 138.867 48.9073 138.754 48.8416C138.65 48.776 138.536 48.6582 138.597 48.5903ZM131.385 48.7216C131.201 48.7673 130.694 48.5951 130.681 48.8304C130.862 48.7837 131.368 48.9567 131.385 48.7216ZM16.6428 54.9587C16.3544 54.7707 17.0089 54.6736 17.2029 54.7624C17.2175 54.9179 16.6674 54.9749 16.6428 54.9587ZM135.179 47.0127C135.078 46.9604 133.774 47.0743 132.977 47.2061C132.684 47.254 132.446 47.3022 132.364 47.3367C132.449 47.3809 132.692 47.4041 132.988 47.4149C133.781 47.4391 135.056 47.3949 135.145 47.3331C135.177 47.3067 135.194 47.0236 135.179 47.0127ZM137.975 47.0442C137.806 46.7253 137.858 47.1377 137.854 47.1437C137.787 47.2137 137.797 47.1321 137.887 47.4508C137.846 47.3932 137.884 47.4593 137.97 47.4486C138.053 47.4388 138.15 47.3613 137.975 47.0442ZM131.127 47.1777C130.39 47.3533 131.85 47.6227 131.64 47.2763C131.625 47.2553 131.207 47.1589 131.127 47.1777ZM135.458 46.9079C135.577 46.6077 138.411 46.8965 138.631 46.9284C138.331 47.4282 138.036 47.0228 137.515 47.0335C137.377 47.0372 137.407 47.2516 137.392 47.2515C137.148 47.2553 137.337 47.0134 137.188 47.0062C137.072 46.9923 135.18 47.2977 135.458 46.9079ZM137.875 46.8204C137.822 46.7291 137.662 46.6943 137.653 46.6576C137.633 46.6234 137.712 46.5892 137.725 46.6119C137.842 46.7777 137.756 46.8867 137.732 46.9113C137.69 46.9395 137.842 46.8601 137.875 46.8204ZM135.218 46.4556C135.472 45.8512 136.788 46.2486 135.895 46.5479C135.814 46.5752 135.455 46.32 135.218 46.4556ZM131.172 46.6059C131.132 46.5905 130.343 46.5237 130.344 46.7142C130.453 46.7795 131.609 46.771 131.172 46.6059ZM131.541 45.9402C131.524 45.9458 131.728 46.2992 131.358 46.2757C131.329 46.2732 131.236 45.8666 130.788 46.0469C130.696 46.084 130.567 46.3652 130.579 46.3814C131.091 46.9912 132.502 45.6707 131.541 45.9402ZM137.799 46.4959C137.807 46.3176 137.599 45.8335 137.601 46.1011C137.608 46.2155 137.704 46.509 137.799 46.4959ZM128.706 46.6143C129.127 46.2682 127.725 46.3185 127.664 46.4047C127.72 46.5948 128.663 46.6478 128.706 46.6143ZM17.2434 52.5316C17.2431 52.5316 17.2427 52.5316 17.2424 52.5316C17.6009 52.593 17.3868 52.8585 17.4037 52.8662C18.1733 53.2277 17.9564 52.6448 18.0733 52.5723C18.324 52.4155 18.3018 53.1318 18.7233 52.824C18.0251 53.2806 18.6663 53.08 18.693 53.334C18.7999 54.3704 17.7353 52.8725 17.3868 53.0995C17.3382 53.1309 17.7112 53.4528 17.5872 53.5504C17.1843 53.8667 15.8674 52.2969 17.2434 52.5316ZM137.553 46.0659C137.487 45.9245 137.414 45.9433 137.464 45.9985C137.506 46.056 137.617 46.1617 137.62 46.294C137.621 46.3152 137.565 46.3871 137.57 46.3746C137.567 46.3643 137.643 46.2726 137.553 46.0659ZM81.0763 50.4609C81.3498 50.1774 80.6525 49.9142 80.5391 50.1278C80.4835 50.2343 80.9564 50.5854 81.0763 50.4609ZM76.2223 49.6414C75.8772 49.7158 75.5704 50.837 75.9977 50.6405C76.0432 50.6191 76.2716 49.7915 76.2223 49.6414ZM99.1437 48.3086C98.7393 47.9559 98.8378 48.6807 99.1036 48.6421C99.1973 48.6285 99.1564 48.3198 99.1437 48.3086ZM85.279 49.683C85.2413 49.6604 84.8262 49.7392 84.854 49.9055C85.0177 49.9942 85.526 49.8396 85.279 49.683ZM99.2475 48.1928C99.0474 48.3467 99.4711 48.8334 99.6834 48.2907C99.5529 48.3474 99.2672 48.1772 99.2475 48.1928ZM134.237 44.8637C134.022 45.1704 133.391 45.1038 133.05 45.1721C132.99 44.7845 133.976 44.9408 134.237 44.8637ZM77.7347 49.9923C77.4214 50.2866 78.1431 50.4662 78.0549 50.1086C78.0448 50.0896 77.7471 49.9798 77.7347 49.9923ZM111.032 46.8116C110.81 47.0706 111.634 47.2902 111.37 46.9099C111.358 46.8946 111.044 46.7972 111.032 46.8116ZM114.506 46.5555C114.307 46.4986 113.503 46.6121 113.842 46.8022C113.893 46.8315 114.516 46.7682 114.506 46.5555ZM18.087 52.2918C17.9758 51.895 18.5631 51.9747 18.6486 52.0424C18.6823 52.0705 18.2321 52.8081 18.087 52.2918ZM96.776 48.4931C96.5938 48.562 96.0919 48.5173 96.03 48.7341C96.2508 48.6684 96.8822 48.9021 96.776 48.4931ZM79.244 49.8937C78.9289 49.4793 78.436 49.5539 78.5948 50.1121C79.1391 50.0389 78.4962 49.6077 79.244 49.8937ZM100.41 47.5972C100.255 47.5808 100.2 48.1348 100.219 48.1585C100.407 48.3837 100.585 47.7913 100.41 47.5972ZM89.1453 49.1494C89.1173 48.9182 88.6456 49.0644 88.7222 49.2082C88.748 49.2566 89.1687 49.3365 89.1453 49.1494ZM127.076 45.1867C126.819 44.9947 127.533 44.727 127.768 44.9573C127.898 45.3052 127.109 45.2081 127.076 45.1867ZM104.636 47.2601C104.618 46.9143 103.877 47.1958 104.21 47.446C104.292 47.5088 104.641 47.3757 104.636 47.2601ZM112.009 45.9896C111.528 46.4585 113.777 46.4992 113.137 46.0546C113.094 46.0225 112.049 45.9498 112.009 45.9896ZM115.664 45.8427C115.569 45.8074 115.488 44.6482 115.917 45.0522C115.973 45.1046 115.773 45.4349 115.821 45.5003C115.85 45.5372 116.688 45.6113 116.725 45.5802C116.763 45.5453 116.675 45.1803 116.712 45.1344C116.755 45.0829 117.293 45.3544 117.562 45.3298C118.063 45.2833 118.085 44.9698 118.126 44.9644C118.247 44.9498 118.471 45.1475 118.713 45.1223C119.938 44.9926 121.793 44.545 122.836 45.1064C121.94 44.9266 121.14 45.2862 120.286 45.4584C120.475 44.7893 119.067 46.0825 119.884 45.2499C119.488 45.4496 115.978 45.9488 115.665 45.8426C115.665 45.8426 115.664 45.8427 115.664 45.8427ZM74.8206 49.3977C75.013 48.9897 73.9163 49.1416 73.845 49.6047C73.9969 49.6601 74.7978 49.4441 74.8206 49.3977ZM79.8371 48.1175C79.9351 48.0423 79.9823 47.2627 80.542 47.6185C80.5425 47.6185 80.543 47.6184 80.5434 47.6184C80.7069 47.7223 80.5424 47.9228 80.5755 47.9879C80.588 48.0147 81.099 48.366 80.7006 48.4554C80.0906 48.5923 80.6038 47.8843 80.2741 47.8984C80.2348 47.9005 79.6341 48.3612 79.6771 48.4505C79.6807 48.461 79.8651 48.3598 79.8986 48.3959C80.0262 48.5315 79.985 48.7768 80.0024 48.7872C80.0611 48.8131 81.0171 48.3348 81.1821 48.684C81.2419 48.7968 79.6347 49.1744 79.5695 49.1176C79.5274 49.0822 79.4998 48.4109 79.4545 48.3477C79.4321 48.3163 78.799 48.61 78.7091 48.5538C78.6833 48.5376 78.6632 48.5196 78.6484 48.5046C78.7617 48.7056 78.1642 48.7289 78.1692 48.4936C78.1719 48.4011 78.5866 48.428 78.6016 48.4432C78.6084 48.4496 78.6146 48.4586 78.6202 48.4647C78.5229 48.2176 79.8909 48.1392 79.5703 47.7825C79.9549 47.55 79.5488 48.3381 79.8371 48.1175ZM81.7225 47.5726C81.6864 47.646 81.6502 47.7193 81.614 47.7927C82.2945 47.5716 83.1291 47.8521 83.9214 47.7902C84.1266 47.7746 83.8585 47.3616 84.1357 47.4591C84.3576 47.5372 84.624 47.9188 84.5148 48.0167C84.4891 48.041 84.0299 47.8141 83.8157 47.8569C83.1846 47.9834 83.3713 48.3409 83.3351 48.3536C83.2946 48.3672 82.8706 48.1371 82.6479 48.1647C82.0965 48.2345 81.8623 48.4794 81.0762 48.2361C81.4991 47.962 81.2226 47.4496 81.7225 47.5726ZM107.758 45.8428C107.757 45.6081 108.251 45.7589 108.416 45.7052C108.417 45.9404 107.924 45.789 107.758 45.8428ZM39.1492 49.932C39.0176 50.3188 40.094 50.3812 39.8015 50.0714C39.7369 50.0026 39.2845 49.9307 39.1492 49.932ZM43.9853 50.0161C44.1252 49.9058 43.5396 49.6486 43.5498 49.9446C43.5537 50.0395 43.9673 50.0304 43.9853 50.0161ZM90.7234 47.2314C90.7491 47.2171 91.1408 47.2674 91.1542 47.2857C91.4464 47.6675 90.1572 47.5473 90.7234 47.2314ZM49.834 49.3525C49.3425 49.6203 50.853 49.6772 50.3814 49.3734C50.358 49.3587 49.8565 49.3395 49.834 49.3525ZM51.9226 49.2098C51.8041 49.2275 51.2691 49.1216 51.2661 49.2386C51.2622 49.4272 51.8741 49.5346 51.9226 49.2098ZM100.356 46.1489C100.253 45.7264 100.976 45.9757 101.207 45.8954C101.31 46.3181 100.592 46.0685 100.356 46.1489ZM96.0002 46.2877C98.8522 45.6532 98.3073 46.6367 95.8511 46.5138C95.82 46.2389 95.822 46.3272 96.0002 46.2877ZM99.7015 45.9517C99.6271 46.2376 99.286 46.192 99.0635 46.1935C99.0799 45.9986 99.5481 46.0183 99.7015 45.9517ZM37.8491 49.3781C38.0259 49.0239 38.8638 49.4293 38.7213 49.5775C38.6885 49.6096 37.7865 49.572 37.8491 49.3781ZM90.932 46.8422C90.8284 46.4307 91.7024 46.5231 91.7805 46.6092C92.0814 46.9579 90.9925 46.7442 90.932 46.8422ZM104.442 45.3187C104.56 44.9745 105.016 45.092 105.303 45.0632C105.205 45.3573 104.682 45.297 104.442 45.3187ZM102.375 45.2947C102.392 45.2802 102.788 45.2654 102.807 45.2785C103.164 45.561 102.044 45.6046 102.375 45.2947ZM16.6664 49.3914C16.6795 49.3804 16.985 49.3934 16.996 49.4055C17.2764 49.7136 16.3594 49.6731 16.6664 49.3914Z" fill="#FAE187"/>
</svg>
