<svg width="133" height="33" viewBox="0 0 133 33" fill="none" xmlns="http://www.w3.org/2000/svg">
<path d="M10.4084 32.2402C10.4894 32.2 10.8175 32.2921 10.9588 32.274C10.8029 32.6915 10.1166 32.3861 10.4084 32.2402ZM24.5935 1.88226C24.4774 1.98644 24.3613 2.09063 24.2451 2.19482C24.5796 2.25768 25.0264 2.17692 25.3362 2.27082C25.3869 2.2866 25.2594 2.58581 25.379 2.59767C25.4987 2.60946 25.4706 2.20298 25.644 2.15739C25.8397 2.10749 26.7387 2.3801 27.0476 2.36946C28.2045 2.32797 29.3682 2.08129 30.5335 2.23556C29.3369 2.55156 30.551 2.84267 30.8843 2.708C30.9586 2.67684 30.9358 1.92091 32.1401 2.09591C32.9064 2.20688 32.2157 3.2971 33.4813 2.73897C32.494 1.9954 33.4539 2.03598 34.2235 2.00068C34.3568 1.99449 35.4277 2.09392 35.897 2.05406C36.0592 2.04022 36.3008 1.64079 36.5152 1.62748C36.6628 1.61861 36.7774 1.83363 36.9961 1.81961C38.0111 1.75689 39.0219 1.7259 40.0412 1.78452C39.4557 2.81096 40.5184 2.21157 40.5663 2.25952C40.8147 2.53236 39.711 2.62691 40.1505 2.79348C40.7617 2.75316 41.3668 2.71282 41.9747 2.6723C41.4711 2.55474 42.6263 1.80537 42.8437 2.13518C42.7353 1.23743 45.6267 2.87577 46.0593 2.56818C46.1487 2.50327 45.5481 2.06832 46.9308 2.24958C47.0802 2.26977 47.0282 2.54203 47.1059 2.51548C47.1533 2.4995 47.4188 1.63252 47.7318 2.10411C47.8447 2.27621 47.1478 2.85439 48.6979 2.60101C48.0643 1.73368 50.8439 2.0894 51.3521 2.30014C51.2469 2.18403 51.1447 2.06785 51.0413 1.9517C51.5482 2.26106 51.6377 1.9609 51.7509 1.97517C52.2119 2.03237 52.839 2.32193 53.2664 2.28664C53.7663 2.24588 53.7582 1.69996 54.3411 1.90149C54.2017 1.78361 54.062 1.66573 53.922 1.54784C54.325 1.56938 54.7173 1.59101 55.1243 1.61227C54.2061 2.35257 55.3262 1.64294 55.4002 1.62591C55.5186 1.59733 55.3536 1.89644 55.5515 1.85578C55.5718 1.84932 55.5372 1.57132 55.8418 1.53412C56.4773 1.45731 56.3812 1.80953 56.6494 1.80029C56.6739 1.79799 56.5832 1.54876 57.0469 1.48012C58.5139 1.26151 57.0448 1.67263 56.9874 1.70842C56.9152 1.75558 57.4369 2.7946 56.1825 2.44725C56.602 2.55747 56.6532 3.02072 56.7013 3.0313C56.7444 3.03995 57.4728 2.96 57.5119 2.94319C57.8656 2.77837 57.5452 2.46757 57.6136 2.40933C57.6702 2.36239 58.5487 2.75791 58.738 1.79957C59.179 2.67062 58.5055 2.60415 57.8143 2.75349C57.7167 2.93613 58.4853 3.09606 58.5295 3.09462C59.529 3.07222 58.9601 2.35996 59.1685 1.89276C59.2777 1.64829 59.6918 2.13351 59.3052 1.49243C60.202 1.40486 59.6651 1.79248 59.7245 1.84691C59.8133 1.92683 60.1238 1.73407 60.1652 1.75796C60.2244 1.79338 60.0262 2.02245 60.2582 2.09662C60.2968 2.1073 60.6588 1.71262 60.177 1.53817C60.8165 1.5793 60.7552 1.25071 60.9852 1.9104C61.3928 0.643772 61.3174 2.6464 61.49 2.71302C61.9493 2.88847 61.7976 1.90446 61.8198 1.85581C61.9487 1.60734 62.7842 1.75309 63.2684 1.74734C63.3956 1.74581 63.4997 1.73435 63.5634 1.70381C63.5298 1.92676 63.4186 2.01352 63.2751 2.03175C62.9663 2.07174 62.5021 1.77948 62.3686 1.8774C61.723 2.35125 63.2998 2.2115 62.8448 3.11557C62.9928 2.92422 63.1402 2.73285 63.2871 2.54147C63.333 2.48289 63.3789 2.42432 63.4248 2.36574C63.8065 2.93121 63.2933 3.1941 64.2741 2.96057C64.4237 2.46107 63.5789 3.0556 63.7416 2.66106C63.8388 2.42952 64.4079 2.36655 64.4156 2.24547C64.4237 2.0998 63.9126 2.28457 63.9883 2.05896C64.1536 1.57232 66.0446 1.98531 64.6188 2.28405C65.0115 2.26617 65.2513 3.22075 65.5891 2.91297C65.8065 2.71315 64.52 1.41928 66.4066 1.61453C66.4585 2.06683 65.6602 1.76756 65.6392 1.80256C65.6114 1.8535 65.7812 2.87275 65.8073 2.92261C65.8964 3.08701 67.8149 2.489 68.2368 2.99142C68.0636 2.40472 69.6865 2.846 69.865 2.6604C69.9108 2.60933 69.7242 2.25224 69.7735 2.21248C70.0845 1.97544 70.9391 2.59768 71.3396 2.60252C71.7808 2.60844 71.7146 2.29736 71.7394 2.29722C71.9326 2.3089 71.7851 2.52551 71.9027 2.52139C72.0739 2.5154 73.3148 2.52071 73.3698 2.47457C73.3872 2.46022 73.1773 2.10921 73.4406 2.03316C73.4863 2.01993 73.4689 2.44462 74.2592 2.23633C75.2046 1.98577 73.5796 1.73084 73.9616 1.27464C74.596 1.88658 74.5538 1.26139 74.7206 1.30521C74.7756 1.32135 75.2263 1.83936 75.6895 1.79028C75.3612 1.88763 75.0197 1.98528 74.6956 2.08221C75.0205 2.16514 75.6649 2.02834 75.9343 2.12481C76.0669 2.17173 75.974 2.61241 76.2573 2.59107C76.3193 2.58406 76.5208 1.51139 75.7924 2.01405C75.7201 1.63582 76.0837 1.87158 76.2435 1.75852C76.2681 1.74091 76.3468 1.10236 76.5728 1.4899C76.6247 1.58527 76.1421 3.45714 77.5146 2.0672C77.5585 2.0224 77.3925 1.79584 77.4352 1.7462C77.462 1.71267 77.8343 1.79367 77.8728 1.75934C77.9129 1.72257 77.7273 1.47544 77.7748 1.42387C78.0182 1.15819 78.3834 2.15126 77.8616 2.09296C78.0399 2.21104 78.2175 2.32911 78.3942 2.44717C78.1836 1.69648 78.6551 2.22461 78.8949 2.19262C80.4278 1.98785 79.3796 1.53271 79.6345 1.26833C80.0417 0.843727 79.7627 2.15156 80.3826 1.7387C80.4377 1.70011 79.6617 1.1786 81.1528 1.43333C80.9366 1.46298 80.7191 1.49262 80.5003 1.52225C80.6563 2.24984 81.2842 1.44246 81.3392 1.43003C81.9213 1.30707 81.5381 1.58628 82.3852 1.17578C82.4621 1.13888 82.639 1.31297 82.8012 1.2163C83.4735 0.817932 81.8848 1.02652 81.833 0.731347C81.8046 0.587241 83.5172 0.556738 83.5773 0.623114C83.8376 0.91901 82.8102 0.788511 83.0197 1.16035C83.0895 1.29316 85.5252 0.917264 86.0187 1.04382C86.5926 1.19188 86.8836 2.17389 86.842 1.05824C87.0496 2.14626 87.1591 1.39319 87.2318 1.39762C88.105 1.46157 88.1167 1.47206 88.8559 1.33456C89.0216 1.30443 89.1772 1.63037 89.2334 1.57168C89.2661 1.53628 89.1865 1.18363 89.349 1.06653C89.5726 0.906421 90.9838 1.20925 91.099 1.40078C91.2111 1.59261 90.5129 1.51274 90.652 1.83017C91.1543 1.84019 91.6326 1.73826 92.1418 1.74897C92.3535 1.75437 92.2555 1.98547 92.3467 1.98578C92.386 1.98678 93.1007 1.75417 93.0677 1.6721C92.9846 1.48188 90.7518 1.71484 91.3233 1.29207C91.4341 1.21041 91.858 1.71316 91.7652 1.08246C93.777 1.13428 95.7888 1.18283 97.8175 1.23134C96.6788 1.75982 95.3569 1.3976 94.1507 1.49853C93.9839 1.51184 93.4226 1.47675 93.5056 1.79381C94.5367 1.82894 95.808 1.60179 96.8085 1.76378C96.8407 1.76919 96.7375 2.06241 96.8587 2.10239C97.0852 2.17699 97.7862 1.67893 97.9144 1.79317C97.9368 1.82013 97.5415 2.21886 97.6785 2.454C98.0301 3.0574 98.0471 1.68353 98.3234 1.68682C98.5041 1.6893 99.5594 2.10422 100.1 1.98864C100.208 1.96568 100.296 1.9219 100.353 1.84994C100.509 1.64927 100.329 1.58293 100.08 1.54243C99.7565 1.48914 99.3148 1.48034 99.3658 1.27059C99.5955 1.1724 99.827 1.11725 100.059 1.08905C100.807 0.998496 101.555 1.18369 102.263 1.117C102.279 1.1151 102.125 0.835613 102.329 0.786332C102.683 0.700677 102.799 1.10181 102.977 1.15888C103.168 1.2195 103.834 1.1318 103.93 1.27575C103.942 1.29464 103.824 1.70279 103.804 1.715C103.52 1.89363 103.393 1.37627 103.367 1.37071C103.267 1.3553 103.178 1.55957 103.087 1.5517C102.937 1.5385 102.846 1.35719 102.647 1.34974C102.511 1.34388 102.658 1.69322 102.527 1.68283C102.479 1.67752 101.924 0.889813 101.912 1.72C101.907 1.98057 106.168 2.12878 106.583 1.9036C106.217 1.81933 105.845 1.73549 105.479 1.6515C106.227 1.86202 107.09 1.16299 107.193 2.13927C109.94 2.10456 112.691 2.07686 115.459 2.0635C115.959 2.13035 115.704 2.76847 116.515 2.55886C116.299 2.36512 116.079 2.17161 115.864 1.97804C116.285 2.10409 118.149 2.32166 118.449 2.18421C118.49 2.1661 118.523 1.59492 118.994 1.53322C119.403 1.47908 119.491 1.90403 119.711 1.98032C119.903 2.04305 120.111 1.92626 120.166 1.94857C120.208 1.96646 120.234 2.227 120.339 2.27014C120.67 2.40355 120.385 1.67456 120.731 2.51138C120.65 2.54526 120.574 2.57909 120.496 2.61298C120.698 2.67214 120.955 2.80136 121.059 2.94033C121.126 3.02361 121.14 3.11025 121.063 3.18713C121.024 3.22806 120.96 3.26621 120.864 3.29969C120.764 3.33441 120.845 3.0801 120.77 3.08211C118.002 3.19267 119.992 3.59282 121.065 3.2689C121.116 3.25385 121.165 3.23726 121.211 3.21901C121.479 3.58644 122.98 3.33816 123.037 3.41325C123.108 3.51954 122.853 3.82053 123.192 4.07628C123.256 4.12587 125.342 3.92334 124.588 4.41772C124.43 4.51813 123.438 4.41075 123.206 4.42813C123.757 5.2151 125.087 4.08594 125.245 4.11925C125.845 4.25031 124.077 4.79286 125.434 4.90152C126.445 4.98939 125.509 4.44352 125.898 4.2243C126.004 4.16267 126.341 4.28387 126.525 4.32126C126.715 4.35868 126.751 4.31328 126.743 3.93588C126.81 3.85327 126.784 4.25417 126.793 4.2827C126.795 4.28581 126.798 4.28492 126.803 4.28126C126.819 4.25774 127.036 4.0866 127.169 4.21222C127.186 4.23041 127.178 4.62593 127.196 4.65636C127.222 4.71082 127.642 4.58244 127.663 4.5447C127.671 4.5204 127.52 4.19326 127.553 4.10488C127.584 4.00527 128.051 4.01998 128.067 3.91691C128.075 3.76684 127.531 3.94364 127.576 3.54839C127.827 3.61343 128.234 3.28928 128.366 2.95191C128.335 3.0473 128.071 3.1037 127.979 3.0861C127.93 2.52544 128.494 2.43785 128.376 2.90985C128.461 2.65231 128.353 2.542 128.385 2.30719C128.393 2.24783 128.57 2.20424 128.588 2.10175C128.589 2.08204 128.367 1.90599 128.384 1.78671C128.41 1.57325 128.968 1.51561 129.028 1.55806C129.188 1.68358 128.764 1.95547 128.77 2.19514C128.77 2.23287 129.252 2.6143 129.268 2.65248C129.376 3.0814 128.87 2.8548 128.995 3.23492C129.12 3.29682 129.248 3.3578 129.376 3.41809C129.011 3.9019 128.212 3.82861 128.104 4.30568C128.663 4.08323 129.348 3.96623 129.544 4.97762C129.626 5.40382 129.385 5.70835 129.416 5.8145C129.531 6.19516 129.856 5.69604 129.875 5.71311C129.892 5.73427 129.902 5.75612 129.907 5.77848C129.907 5.77849 129.907 5.7785 129.907 5.77851C129.951 6.00627 129.403 6.28033 129.394 6.3882C129.378 6.58182 129.778 7.29252 129.811 7.45977C129.807 7.49578 129.418 7.75237 129.614 8.01947C129.812 8.28985 130.193 8.22415 130.212 8.25191C130.319 8.41549 129.685 8.70177 129.684 8.80853C129.682 8.86383 130.1 9.12283 130.129 9.21349C130.156 9.30558 129.919 9.56095 129.862 9.87615C129.82 10.1107 130.089 10.2363 130.053 10.2782C130.026 10.308 129.379 10.4158 129.355 10.4581C129.317 10.5232 129.512 10.7618 129.501 10.8312C129.485 10.9312 129.26 10.8699 129.303 10.963C129.328 11.0357 130.314 11.8004 130.357 12.0403C130.423 12.4556 129.35 11.6635 130.481 13.1446C130.489 13.1543 130.676 13.0008 130.684 13.0097C130.869 13.2847 130.279 13.8706 131.089 13.6363C129.644 14.4378 131.009 14.2931 130.91 15.0285C130.869 15.3127 130.268 15.5298 130.27 15.5695C130.387 15.8992 130.543 15.6022 130.638 15.7568C130.694 15.8437 130.189 16.2969 130.353 16.5089C130.44 16.6192 131.037 16.4724 131.065 16.4906C131.343 16.6681 131.093 16.9583 131.174 17.1055C131.228 17.2045 131.596 17.1455 131.608 17.1623C131.632 17.199 131.211 17.7146 131.129 17.882C131.068 18.0111 131.403 18.1374 131.356 18.1974C131.07 18.5584 130.202 17.9151 131.092 18.8678C131.147 18.9262 131.41 18.8528 131.421 18.8643C131.641 19.1381 131.151 19.2517 131.101 19.515C131.018 19.9699 131.705 19.6068 131.151 20.0112C131.655 20.2138 131.907 20.1567 132.411 19.9797C131.013 20.4652 130.629 21.6638 132.302 21.3407C131.774 21.4199 131.94 22.0331 131.782 22.0725C131.685 22.0974 130.784 21.6048 131.379 22.9424C131.455 23.1097 131.907 22.8054 131.815 23.1882C130.611 23.2931 131.83 23.4206 131.838 23.4664C132.006 24.3033 128.822 24.0784 127.985 24.1778C127.863 24.2013 127.741 24.236 127.62 24.2779C126.909 24.5165 126.408 24.9805 126.299 24.9813C125.858 24.9759 126.225 24.6471 126.13 24.5231C125.98 24.3998 125.072 25.0215 125.047 24.9871C124.888 24.844 125.057 24.4508 125.04 24.4307C124.842 24.1834 123.707 24.4888 123.369 24.4012C123.385 24.6571 124.034 24.6753 123.63 25.0886C123.157 25.5711 123.121 24.4416 123.106 24.3918C122.576 24.399 122.033 24.4099 121.482 24.4233C119.742 24.4664 117.932 24.53 116.131 24.5988C116.181 25.1985 117.714 24.6947 117.753 24.7732C117.973 25.2343 115.359 25.3116 115.027 25.1122C115.274 25.2335 115.528 25.3546 115.773 25.4762C115.383 26.1814 114.426 25.3163 113.83 25.6439C113.64 25.75 114.021 26.003 114.016 26.0215C113.807 26.2979 113.448 26.1041 113.697 25.734C113.171 26.0993 113.239 25.7153 112.824 25.7023C112.803 25.7019 112.992 25.974 112.668 26.1021C112.52 26.1617 111.703 26.1942 111.604 26.4424C111.564 26.5468 112.017 27.6121 112.032 26.6795C112.938 27.0989 112.3 26.2444 112.644 26.2526C112.695 26.2556 112.599 26.7793 113.453 26.5024C113.323 27.4453 112.301 26.7825 112.132 26.9028C111.789 27.1495 113.261 27.5776 113.499 26.8377C113.401 27.5735 113.608 26.9322 113.93 26.9505C114.286 26.9701 114.14 27.1935 114.331 27.1877C114.85 27.1744 114.621 26.6658 115.067 27.1159C114.597 25.6903 115.795 26.8998 116.147 27.2658C115.599 27.3576 115.058 27.4498 114.509 27.5429C114.543 27.6174 114.577 27.6919 114.61 27.7664C114.467 27.7609 114.322 27.7554 114.176 27.75C114.197 27.6766 114.218 27.6033 114.238 27.53C113.51 28.0285 113.304 27.5061 113.245 27.5023C112.458 27.4703 111.549 27.5102 110.755 27.5401C110.633 27.5448 110.739 28.0124 109.852 27.6788C109.571 27.5725 109.817 27.1952 109.505 27.2631C109.149 28.2757 109.127 27.4806 109.009 27.4842C108.675 27.4981 108.475 27.7537 108.446 27.7575C108.035 27.8133 107.425 27.7977 106.968 27.8541C106.959 27.8583 107.21 28.1542 106.91 28.0763C106.807 28.0483 105.814 26.7819 105.016 27.2438C105.232 27.3227 105.447 27.4017 105.665 27.4805C105.409 27.3679 103.674 27.7749 104.117 28.1057C104.389 28.3077 104.992 27.4372 105.098 28.244C104.591 28.0581 102.172 28.403 101.322 28.3971C101.179 28.3959 101.08 28.3848 101.043 28.3593C101.007 28.3341 101.208 28.0614 101.158 28.0301C101.122 28.0061 100.382 28.1028 100.282 28.0065C100.221 27.9492 100.539 27.773 100.508 27.6795C100.482 27.6131 99.5533 27.5438 99.515 27.8757C99.737 27.7327 100.38 27.8184 100.059 28.1116C100.017 28.1481 99.7841 27.9461 99.7335 27.9923C99.2671 28.4186 100.712 28.2538 100.936 28.2468C100.047 28.7085 98.615 28.2803 97.5675 28.6038C97.1278 28.3498 98.1798 28.1547 97.6867 27.9503C96.661 27.5269 97.4379 28.342 97.4085 28.3783C97.1708 28.6667 96.2514 27.2246 96.3031 28.3527C95.9285 28.2001 96.0404 28.0523 95.533 28.224C95.6045 28.2989 95.6758 28.3739 95.7471 28.4488C95.2048 29.1292 93.9144 27.537 93.9986 27.407C94.2297 27.0591 94.8853 27.5547 94.9373 27.5396C95.0148 27.5172 95.1866 26.3621 96.1048 27.3448C96.4251 26.5604 94.6982 26.8913 95.4655 26.331C94.9341 26.4422 92.703 26.0098 92.4033 26.3608C92.3671 26.4066 92.5801 27.1635 92.0137 26.799C91.7469 26.6254 92.3718 26.5881 92.2454 26.4192C91.8578 25.9027 86.9101 26.4625 85.9635 26.5271C85.9019 26.5305 85.9148 26.2921 85.8542 26.2967C85.6636 26.3112 85.0142 26.6923 84.6732 26.5965C85.3795 27.0084 84.0466 27.0962 83.705 27.0609C83.1822 27.0076 83.2027 26.5882 82.977 26.5079C82.1041 26.1987 80.8133 27.2405 80.1157 26.3367C80.1821 27.2563 78.9522 25.9266 78.4046 25.9373C77.9851 25.9453 77.3914 26.5756 77.975 26.9272C77.2396 26.9101 76.4835 27.1074 75.7914 27.1859C75.6783 27.199 75.8247 26.9216 75.6339 26.9525C75.6166 26.9572 75.6015 27.2249 75.4373 27.2579C74.0742 27.5344 74.7211 26.946 74.4588 26.7875C74.3105 26.6987 74.2066 26.6555 74.1284 26.6426C74.9292 26.5654 75.8374 26.431 76.0903 26.4151C75.8566 25.8331 74.3172 26.5856 73.8624 26.4407C73.8465 26.4355 73.8914 26.109 73.8753 26.1072C73.875 26.1072 73.8746 26.1072 73.8743 26.1072C73.705 26.0877 72.6108 26.2409 72.8496 26.6213C72.9078 26.7231 73.4212 26.7074 74.0111 26.6538C73.853 26.7315 73.9841 27.0916 73.9563 27.108C73.6195 27.2986 72.7564 26.9694 72.4602 26.9302C72.3916 26.9217 72.4034 27.1547 72.3922 27.1556C72.1181 27.1108 72.2106 26.4418 71.9501 27.1365C71.4307 26.3216 72.8729 26.9859 72.7542 26.45C72.6722 26.0382 69.5148 26.3522 69.552 27.0043C69.5393 26.9347 69.4937 26.8492 69.4023 26.7529C69.2006 26.5391 68.3192 26.6316 68.1758 26.7558C68.1511 26.7802 68.1781 27.4143 68.1468 27.421C68.0724 27.4376 66.9746 26.9687 66.593 27.3535C66.8114 27.4369 67.023 27.5204 67.2463 27.6036C65.9454 27.6425 66.1505 27.8259 66.5894 28.0047C66.6111 28.0059 66.6328 28.0294 66.6535 28.0315C66.9898 28.1632 67.4298 28.287 67.4376 28.3368C67.4596 28.5277 65.2564 28.6896 65.6641 28.0904C65.7238 28.0085 66.7561 28.2447 66.2378 27.8376C66.1484 27.7662 65.487 27.9026 65.4522 27.8571C65.2112 27.5552 66.6466 27.1103 66.457 26.6774C66.1219 27.1025 65.6595 26.8947 65.2668 27.0118C65.0876 27.0648 65.0507 27.384 65.0286 27.3905C64.6965 27.4816 64.8759 27.1436 64.7644 27.1546C64.7055 27.1618 64.0581 27.8874 64.1603 26.906C64.0522 26.9444 63.953 26.9807 63.8626 27.0151C62.6339 27.4907 63.0672 27.6026 63.8763 27.5971C64.192 27.5949 64.5615 27.5753 64.9112 27.5523C64.6596 27.7762 64.25 27.8065 63.8814 27.8169C63.6519 27.8234 63.4392 27.8219 63.2958 27.8575C63.1636 27.8906 63.2501 28.2152 63.0265 28.2857C62.5614 28.4312 60.3414 28.1048 59.7703 28.028C60.1206 27.9052 60.01 27.5517 59.7382 27.582C59.4659 27.6125 59.705 28.0824 59.6529 28.1345C59.5966 28.1887 58.3105 27.9911 58.1012 28.0567C59.0568 27.8653 58.8339 27.515 58.0183 27.4944C58.1343 27.3899 58.25 27.2854 58.3656 27.1808C57.8933 27.3341 56.8669 26.8132 56.5988 26.9795C56.5561 27.0062 56.7172 27.3014 56.6932 27.3164C56.455 27.4478 55.6216 27.1596 55.5843 27.2621C55.5532 27.3474 55.9118 27.5907 55.7828 27.7163C55.7573 27.7427 55.4028 27.3462 55.0752 27.4515C54.9526 27.4903 55.0322 27.7709 55.0014 27.7879C54.7445 27.9284 54.8893 27.4506 54.4152 27.5358C54.0684 27.5987 53.8119 28.0679 53.3294 27.9229C54.9281 28.4857 53.5819 28.2632 52.9312 28.4543C52.8256 28.4848 52.9267 28.9952 52.2876 28.7572C53.6207 27.8073 51.8932 28.2748 51.5383 28.2708C51.5189 28.268 51.5064 27.9304 51.3334 27.928C51.3187 27.9286 51.3438 28.1564 51.1832 28.1767C49.655 28.368 50.6294 28.0934 50.3345 27.8733C50.2075 27.7796 49.4688 28.1149 49.2697 28.126C49.2237 28.1275 49.241 27.8901 49.063 27.9023C48.7481 27.9246 48.4687 28.1817 48.2597 28.2051C48.2358 28.2067 48.2266 27.8326 47.8347 27.9604C47.7249 27.9961 47.603 28.1309 47.7616 28.236C48.2895 28.5813 49.2764 27.9525 49.868 28.2957C50.4115 28.6082 48.718 28.667 48.6275 28.6703C48.595 28.672 48.9245 28.4807 48.586 28.4496C48.2963 28.4237 47.7796 29.0785 47.3503 28.9447C47.3176 28.9348 46.9662 28.3924 46.9814 28.3602C46.9956 28.3366 47.5193 28.2092 47.4403 28.0519C47.431 28.034 47.0971 28.043 47.0514 27.9257C46.9956 27.7829 46.8289 26.375 46.7568 26.3408C46.5718 26.2564 46.6964 26.5761 46.5772 26.5556C46.3197 26.5125 45.4344 26.1093 45.4134 26.5985C45.5592 26.6252 45.7047 26.652 45.8501 26.6787C45.0436 26.7416 45.3906 26.9443 45.2776 27.0377C45.1556 27.1388 45.1839 26.7087 44.9099 26.6725C44.8505 26.6646 43.7061 26.7718 43.7316 26.9517C44.3561 26.6552 44.1318 27.1897 44.1606 27.1987C44.2725 27.2316 44.4101 26.9316 44.5592 26.9353C45.6067 26.9658 44.5585 27.4521 44.8074 27.5692C44.8931 27.6086 45.0585 27.3517 45.0947 27.3642C45.2124 27.4045 45.2195 27.7374 45.2971 27.7092C45.4781 27.6439 45.2583 27.1761 45.2724 27.1514C45.4307 26.854 46.072 27.2109 45.6843 27.7297C45.9251 27.9107 45.9417 27.2873 46.1356 27.5334C46.5215 28.0206 45.9526 27.9029 45.8035 27.9871C45.2624 28.291 45.0971 28.0544 44.3202 28.1482C44.0391 28.1813 43.7173 28.4889 43.5876 28.5075C43.5067 28.5192 42.7206 27.4778 42.722 29.126C42.4185 28.971 41.9333 27.892 41.627 27.9462C41.3513 27.9955 41.4476 28.5772 41.4222 28.6001C41.3832 28.6361 41.0478 28.5951 40.9354 28.6791C40.8039 28.7783 40.8736 28.9999 40.6637 29.0936C40.1406 29.3263 40.1471 28.731 40.0927 28.6931C39.4635 28.2549 39.7481 29.0975 39.6107 29.1673C39.4839 29.2316 37.6668 28.9311 37.2911 29.1504C37.4444 29.0291 37.5975 28.9078 37.7504 28.7864C37.4688 28.4191 37.183 29.0285 37.1687 28.363C37.1273 29.4384 36.5441 28.7279 36.3717 28.7579C36.3039 28.7703 36.3116 28.9533 36.2267 28.9624C35.8976 28.9989 35.1496 28.8631 34.9707 28.9584C34.1988 29.3684 36.1941 30.007 36.3503 30.045C36.0383 30.0375 34.2698 30.3016 35.0914 30.8075C35.2184 30.8855 35.435 30.4016 35.5053 30.3818C35.9815 30.2516 35.6115 30.6876 35.6495 30.7281C35.7142 30.7934 36.0227 30.3726 36.1061 30.4211C36.1344 30.4366 35.9599 30.8293 36.4174 30.8313C36.1971 31.2127 34.9136 30.9216 34.7447 31.0126C34.6855 31.0451 35.0709 31.8486 33.9627 31.0778C33.9764 31.1527 33.9901 31.2276 34.0037 31.3024C33.3948 31.3413 32.7833 31.3801 32.1703 31.4189C32.2346 31.2451 32.5743 30.8934 32.1421 30.9726C31.8947 31.0185 32.0831 31.4012 32.0606 31.4127C31.8428 31.5218 27.8825 31.443 27.1216 31.4949C26.8616 31.512 26.1381 31.8302 26.0825 31.8366C25.7521 31.8716 24.5794 31.684 24.3451 31.7304C24.1992 31.7602 24.342 32.0805 24.2112 32.0669C24.0895 32.0539 24.2117 31.7412 24.1755 31.7286C23.8761 31.6195 21.6134 32.0539 21.0748 31.7665C21.4027 31.8509 23.0387 31.2102 23.0024 30.9911C22.9949 30.9611 22.5935 30.729 22.5125 30.8454C22.3737 30.5776 21.9153 31.4033 21.6599 31.2451C21.6311 31.2271 21.7387 30.7657 21.2857 30.6874C21.1296 30.6606 20.7257 31.0239 20.3097 30.6266C19.7149 30.8267 16.5821 30.2649 16.3731 30.7616C16.3671 30.7878 16.8093 30.9531 16.5141 31.1593C16.1214 31.4334 16.4668 30.521 16.0046 30.4478C15.9346 30.4367 14.6532 30.5427 14.6121 30.5994C14.2295 31.1134 15.3516 31.3078 15.3364 31.3672C15.2992 31.5169 14.3697 31.6174 14.3313 31.5826C14.2949 31.5464 15.0468 30.8626 14.1372 31.1287C14.2426 31.2083 14.348 31.2879 14.4534 31.3675C14.026 31.5294 13.9799 31.0625 13.8756 31.0351C13.5513 30.9482 13.2084 31.6619 12.6819 30.7907C12.5426 30.5595 12.7669 30.2986 12.7494 30.2639C12.5816 29.9525 12.381 30.7926 12.1269 30.1704C12.1078 30.124 12.6794 29.7434 11.6732 29.7533C11.7431 29.8125 11.813 29.8717 11.8829 29.9308C11.7426 30.0661 10.7241 30.1566 10.5873 30.1265C10.1863 30.0383 10.5305 29.6045 10.1289 29.6602C10.3933 30.2469 9.17062 30.3369 9.23546 29.8287C9.07072 30.4679 8.02748 29.9874 7.53857 29.9774C7.23029 29.9716 6.60397 30.2564 6.50605 30.2249C6.3864 30.1863 6.41802 29.7512 6.2017 29.6567C6.14002 29.6298 5.5024 29.9553 4.93463 29.5112C4.82461 29.4256 4.58765 28.6906 4.7885 28.5041C5.13231 28.1851 5.79501 28.7722 5.782 28.3366C5.76726 27.8705 4.886 28.1571 4.64722 28.0988C3.54584 27.829 4.17489 27.3268 4.14503 27.1769C4.06795 26.8132 3.46791 26.8308 3.44251 26.7983C3.33718 26.6538 3.75944 26.3608 3.7635 26.1383C3.7682 25.8486 3.18415 25.3319 3.31464 25.2329C3.50146 25.0922 4.03768 25.5223 4.07116 25.5011C4.50688 25.2155 3.89849 24.5526 3.72925 24.2256C3.67794 24.125 3.87638 23.9566 3.83441 23.9274C3.19371 23.4839 3.7103 24.8693 3.2863 24.7809C2.90797 24.7021 3.38897 24.2572 3.37429 24.2331C3.35538 24.2067 2.90383 24.1875 2.83152 24.0326C2.79592 23.955 3.95981 23.0872 3.90672 22.7042C3.53345 22.7927 3.1601 22.8811 2.7867 22.9696C2.75208 22.4698 3.2943 22.8323 3.34942 22.7801C3.46041 22.6755 3.1452 22.4257 3.15695 22.2675C3.16308 22.1668 3.5261 21.8041 3.19316 21.6597C3.07872 21.6098 2.84341 21.9629 2.42474 21.6091C3.86367 21.1364 2.86021 20.8658 2.81579 20.6891C2.77224 20.5124 3.45707 20.0882 2.62123 20.1708C2.57468 19.198 2.63603 19.863 2.87194 19.6894C3.16092 19.4761 2.48457 19.1627 3.55135 19.3946C3.48603 18.9396 2.63093 18.9809 2.58522 18.945C2.54576 18.9125 2.73357 18.6863 2.66496 18.6111C1.85361 17.7391 2.40872 18.1354 2.17054 17.5756C2.14937 17.5256 1.38937 17.3251 1.96542 17.2371C3.01509 17.0772 3.46132 17.7182 3.62333 16.3359C2.83958 15.7445 1.90663 16.6455 1.67056 16.6631C1.30905 16.6887 1.68082 16.4032 1.63541 16.3248C1.61966 16.2994 1.30817 16.326 1.30375 16.3037C1.07035 15.2531 2.69134 16.2715 3.19645 16.0831C3.05891 15.9269 2.92135 15.7706 2.78379 15.6144C2.9681 15.6061 3.15239 15.5979 3.33666 15.5896C2.45506 15.282 3.30446 15.47 3.5144 14.6151C3.56153 14.4231 2.9881 14.7577 3.64056 14.2183C3.1539 14.1005 3.30688 13.9247 2.86985 14.1697C2.87762 13.8279 3.86248 13.432 4.25045 13.2525C2.8688 12.883 3.66772 14.1281 2.46935 13.4776C2.25286 13.903 2.82071 13.8146 2.77507 13.885C2.61136 14.1378 2.217 13.7432 1.7559 14.628C1.68082 14.7733 2.00965 15.2145 1.52976 15.1981C1.47668 15.1956 1.16702 14.8188 1.17097 14.7912C1.20835 14.4932 1.51199 14.6015 1.52316 14.4772C1.53364 14.3595 1.19695 14.4338 1.19544 14.4012C1.18114 14.0285 1.47549 14.2557 1.43186 14.1394C1.33762 13.8866 0.115364 13.0971 1.70195 13.3154C0.390626 13.7507 1.53787 13.7288 2.04848 13.5615C2.1787 13.5195 2.20944 13.2965 2.39488 13.2172C2.63339 13.1146 2.91488 13.2185 3.03839 13.1764C3.1712 13.1299 2.40831 12.6115 3.5053 12.757C2.9424 12.2393 1.96333 12.8079 1.412 12.4461C0.299415 11.7148 2.17269 11.5355 2.36732 11.4615C2.41917 11.4414 2.24148 11.1425 2.27599 11.1237C2.33247 11.0949 3.39825 11.2227 3.50048 10.9727C3.6025 10.7229 3.11085 10.9882 3.07523 10.7293C3.05118 10.5549 4.33142 10.2317 3.63536 10.1197C3.15564 10.043 2.27992 10.754 2.12323 10.0013C2.82716 9.93146 3.53098 9.86159 4.2344 9.7917C3.846 9.50882 3.45749 9.22593 3.06891 8.94304C3.85853 8.84368 4.54526 9.16043 5.29197 8.74165C3.47757 7.84123 5.87022 8.00161 5.89501 7.88941C5.90312 7.82239 5.18517 7.08356 5.0694 6.94825C5.6956 6.65447 7.60615 6.49383 6.47736 5.58412C6.68279 5.79006 7.16917 5.27115 7.16225 5.23245C7.09547 4.82597 6.02558 5.10139 6.19673 4.7318C6.39462 4.30291 6.68509 4.87882 6.9965 4.82926C8.59414 4.57119 8.13157 2.45041 9.7399 2.76954C9.70719 2.6942 9.67448 2.61887 9.64176 2.54353C11.3852 2.64529 13.1317 2.74684 14.8744 2.84815C15.5505 2.19158 17.3584 1.77623 18.2518 1.83798C18.4317 1.84996 19.3147 2.18068 19.3823 2.23964C19.5063 2.35271 18.831 2.40403 19.1388 2.61517C19.203 2.65853 20.6983 2.78466 20.5868 2.42273C20.4194 2.38254 19.8983 2.57104 19.8115 2.48644C19.2045 1.88269 23.8048 2.31775 24.0306 2.06867C23.9272 1.95193 23.8239 1.83519 23.7205 1.71846C24.0118 1.77307 24.3028 1.82767 24.5935 1.88226ZM11.5759 31.1982C11.4053 31.5645 10.9645 31.2955 10.7078 31.4006C10.3528 31.5476 9.76109 32.9573 10.0072 31.5481C10.5302 31.4315 11.052 31.3149 11.5759 31.1982ZM19.2441 31.6567C18.8906 31.465 19.1543 30.6765 19.4457 30.9997C19.478 31.0365 19.7221 31.9148 19.2441 31.6567ZM15.5536 31.3251C15.5683 31.3145 15.8727 31.332 15.8834 31.3442C16.1597 31.6565 15.2419 31.6022 15.5536 31.3251ZM33.3654 30.7109C32.978 30.7498 33.2682 31.4602 33.5053 31.1632C33.5203 31.1444 33.3909 30.7089 33.3654 30.7109ZM33.0893 30.6955C32.7798 30.0601 32.1879 31.3637 32.6699 31.227C32.7167 31.2132 33.1037 30.7265 33.0893 30.6955ZM17.9873 31.3586C18.0242 31.1131 18.3885 31.2274 18.544 31.2843C18.5424 31.5081 18.1391 31.3295 17.9873 31.3586ZM27.1861 31.1837C27.1999 30.9909 25.936 31.0168 25.8537 31.2717C26.0512 31.1616 27.1744 31.357 27.1861 31.1837ZM30.4175 30.8734C30.3848 30.8405 29.949 30.8966 29.9643 31.0664C30.1783 31.2867 30.5642 31.0223 30.4175 30.8734ZM36.8522 30.8008C36.8752 30.7578 36.5339 29.6805 37.318 30.382C37.4331 30.4846 37.031 30.7728 37.0719 30.8111C37.1575 30.8856 37.2249 30.92 37.2787 30.9256C36.9195 31.0202 36.5443 31.0674 36.507 31.0023C36.3322 30.6947 36.842 30.8188 36.8522 30.8008ZM40.2182 29.9478C40.2899 29.7703 40.7679 29.8578 40.8769 29.9289C40.8957 29.9423 40.8214 30.4072 41.0349 30.3694C41.2062 30.3383 40.9429 29.8671 41.2783 29.9382C41.6169 30.0096 41.1709 30.3546 41.2006 30.3784C41.2408 30.4095 41.7594 30.1886 41.7471 30.465C41.7381 30.6698 41.1772 30.5396 41.039 30.5851C40.8624 30.6435 41.0826 30.9813 40.7847 30.9124C40.5974 30.8693 40.6922 30.2684 40.6524 30.2387C40.6187 30.2148 39.9722 30.569 40.2192 29.9497C40.2189 29.9491 40.2186 29.9484 40.2182 29.9478ZM37.3758 30.8978C37.349 30.9184 37.3173 30.9296 37.2787 30.9256C37.3113 30.917 37.3437 30.9071 37.3758 30.8978ZM12.5886 30.9242C12.7732 31.1071 12.2338 31.35 12.0257 31.1101C12.0201 30.9148 12.5592 30.8957 12.5886 30.9242ZM37.703 30.4051C38.239 30.5479 37.8497 30.7598 37.3758 30.8978C37.5253 30.7829 37.5228 30.3574 37.703 30.4051ZM22.5125 30.8454C22.5356 30.8899 22.5507 30.9594 22.5539 31.0739C22.4931 30.9493 22.487 30.8821 22.5125 30.8454ZM23.7616 31.0352C24.1843 30.6814 23.3173 30.7056 23.3256 30.9552C23.3293 31.0494 23.7447 31.0493 23.7616 31.0352ZM33.8625 30.7385C33.823 30.7048 34.4162 29.6436 33.5452 30.4455C34.0174 30.5635 33.5225 30.6847 33.5309 30.7769C33.5542 31.0417 34.3389 30.7766 34.5183 30.8888C34.6495 30.4126 33.9921 30.8493 33.8635 30.7385C33.8632 30.7385 33.8629 30.7385 33.8625 30.7385ZM46.3164 30.1118C46.2117 30.3914 45.8711 30.3074 45.6416 30.2946C45.745 30.0149 46.0832 30.0991 46.3164 30.1118ZM106.627 28.1775C105.083 28.5015 104.83 27.3797 106.274 27.7647C106.303 27.7728 106.716 28.0587 106.627 28.1775ZM93.1876 28.5014C93.0152 28.0153 93.5079 27.9133 93.8382 28.102C93.9131 28.1445 94.2046 28.6313 93.9024 28.7431C93.8849 28.1452 93.3985 27.939 93.1876 28.5014ZM38.0004 30.0849C38.1499 29.7538 38.6358 29.9813 38.8897 30.0271C38.7394 30.3002 38.223 30.1849 38.0004 30.0849ZM101.486 27.816C101.406 27.8018 101.343 27.8939 101.303 27.9976C101.26 28.1103 101.243 28.2367 101.258 28.2546C101.276 28.2751 101.296 28.2868 101.317 28.2913C101.46 28.321 101.659 28.021 101.486 27.816ZM36.4503 30.055C36.4258 29.8587 37.0604 29.6608 37.1111 30.1463C36.9748 30.113 36.4679 30.1782 36.4503 30.055ZM45.8802 29.971C45.7799 29.8726 46.2877 29.6856 46.4457 29.7823C46.4364 29.9918 45.9444 30.035 45.8802 29.971ZM98.8423 28.0853C98.6904 28.0551 98.3243 28.061 98.2907 28.2363C98.2509 28.4554 98.7856 28.3562 98.8423 28.0853ZM125.546 26.8216C125.553 26.8996 125.03 27.4521 124.827 27.3081C124.419 27.031 125.5 26.7642 125.546 26.8216ZM103.029 27.5239C103.513 27.9107 102.978 27.5391 103.018 27.9676C103.334 27.9688 104.106 27.9554 103.556 27.5569C103.449 27.4799 103.177 27.545 103.029 27.5239ZM102.596 27.3996C102.553 27.541 102.238 27.9948 102.526 27.9502C102.659 27.9289 102.851 27.4318 102.596 27.3996ZM122.419 27.0092C122.033 26.6325 123.782 26.8175 123.814 26.8875C123.84 26.9226 123.857 26.9558 123.867 26.9839C123.93 26.863 124.241 26.8417 124.277 27.147C124.184 27.1214 123.928 27.1481 123.898 27.1144C123.885 27.1 123.875 27.0865 123.868 27.0728C123.764 27.3358 122.502 27.0787 122.419 27.0092ZM119.398 26.684C119.85 26.11 119.95 27.0625 119.913 27.0942C119.425 27.4979 119.731 26.7856 119.715 26.753C119.679 26.6991 119.327 27.0354 119.399 26.684C119.399 26.684 119.398 26.684 119.398 26.684ZM121.813 26.862C121.828 26.8492 122.207 26.8723 122.219 26.8873C122.529 27.203 121.477 27.1387 121.813 26.862ZM42.758 29.2428C43.0491 29.3334 42.7703 29.6888 42.5756 29.5653C42.5596 29.5531 42.5011 29.1628 42.758 29.2428ZM102.372 27.5045C102.33 27.468 101.745 27.3946 101.277 27.4417C100.941 27.4757 100.668 27.5735 100.721 27.7946C100.768 27.7719 101.008 27.7763 101.293 27.7784C101.882 27.7824 102.661 27.7767 102.372 27.5045ZM89.5848 27.9661C89.8879 27.9569 89.58 28.4711 89.4091 28.2919C89.3458 28.2254 89.5084 27.9687 89.5848 27.9661ZM35.5884 29.6124C35.2789 29.8914 35.3314 28.9687 35.6071 29.281C35.6179 29.2933 35.6006 29.6015 35.5884 29.6124ZM92.0206 28.1454C90.9914 28.4953 91.1656 26.9002 92.5496 27.3732C92.5103 27.4457 92.4709 27.5182 92.4315 27.5907C94.0051 27.7569 92.5476 27.6975 92.1624 27.8038C92.0169 27.8441 92.1514 28.103 92.0217 28.1473C92.0213 28.1467 92.021 28.1461 92.0206 28.1454ZM87.9836 28.0049C86.9295 26.9231 88.8829 27.5738 89.4321 27.4027C88.912 27.8907 88.2175 27.8502 89.1844 28.2847C87.8039 28.4365 88.3596 27.9636 88.3034 27.9288C88.236 27.8898 88.0292 28.0514 87.9836 28.0049ZM90.6464 27.8814C90.7038 27.846 91.1487 28.0555 91.3081 28.0109C91.1 28.4052 90.2712 28.1216 90.6464 27.8814ZM116.153 27.046C116.179 26.7437 116.254 26.519 116.6 26.6202C116.5 26.775 116.288 26.9123 116.153 27.046ZM11.2273 29.6162C10.9894 29.5972 10.5171 29.4887 10.665 29.8039C10.6811 29.8308 11.2283 29.794 11.2273 29.6162ZM97.4209 27.4912C97.3689 27.4566 96.0641 27.4931 96.5299 27.804C96.6682 27.8979 97.8548 27.7994 97.4209 27.4912ZM104.133 27.2186C104.024 27.2203 103.587 27.2967 103.581 27.3683C103.562 27.6157 104.096 27.4562 104.133 27.2186ZM10.0285 29.3207C9.99697 29.2898 9.27325 29.3529 9.35441 29.4982C9.5086 29.773 10.1366 29.4272 10.0285 29.3207ZM43.7984 28.5213C43.8587 28.5093 43.9436 28.8353 43.9645 28.8386C44.0105 28.8426 45.1264 28.6996 44.7063 29.1263C44.6334 29.1979 43.0377 29.0607 42.8274 29.0223C42.7403 28.5742 43.43 28.9914 43.5946 28.9426C43.6237 28.9334 43.6368 28.5573 43.7979 28.5232C43.7981 28.5226 43.7983 28.522 43.7984 28.5213ZM117.896 26.6713C117.937 26.3838 119.194 26.1575 119.192 26.5042C118.76 26.5593 118.331 26.6149 117.896 26.6713ZM117.249 26.6444C116.971 26.4512 117.604 26.3639 117.795 26.4473C117.804 26.6392 117.288 26.6726 117.249 26.6444ZM101.635 26.2635C101.508 26.3393 101.926 26.7373 101.841 26.8223C101.786 26.8753 101.489 26.7326 101.401 26.8672C101.377 26.9097 101.692 27.2874 101.776 27.2666C101.897 27.2384 101.765 26.9359 101.897 26.9277C102.337 26.9009 102.737 27.1028 103.15 27.079C103.187 27.0762 102.887 26.8718 103.207 26.8605C103.257 26.8583 103.564 27.169 103.943 27.1039C104.736 26.0632 105.4 27.0209 106.448 26.6132C106.403 26.5205 105.597 26.3015 105.549 26.2943C104.652 26.168 103.052 26.2215 102.119 26.2622C101.879 26.2722 102.005 26.4793 101.903 26.4918C101.822 26.5012 101.901 26.1036 101.635 26.2635ZM11.351 29.3973C11.2336 29.0054 10.8399 29.2585 10.5868 29.2409C10.6797 29.5945 11.1021 29.3128 11.351 29.3973ZM111.483 26.5475C111.355 26.5677 110.966 26.4645 110.938 26.5841C110.903 26.7402 111.465 26.8156 111.483 26.5475ZM50.0655 28.5327C50.0778 28.5218 50.3858 28.5376 50.3975 28.5497C50.6778 28.8605 49.7538 28.8116 50.0655 28.5327ZM57.4007 28.4739C57.6338 28.4207 57.8664 28.2932 57.951 28.6105C57.8019 28.5647 57.3778 28.6966 57.4007 28.4739ZM67.5449 28.2337C67.4863 27.8174 68.1962 28.0693 68.3278 28.1033C68.285 28.2902 67.5892 28.5337 67.5449 28.2337ZM116.059 25.7372C116.475 25.7478 116.369 25.1183 116.644 25.3957C116.688 25.4427 116.874 26.7547 116.395 26.2767C116.31 26.1908 116.62 25.8671 116.059 25.7372ZM92.7711 27.3764C92.8661 27.0954 93.2103 27.1617 93.442 27.1732C93.4002 27.3807 92.9315 27.3493 92.7711 27.3764ZM8.71691 29.0187C8.51324 28.6308 7.59354 28.93 7.82462 29.1853C7.8575 29.2186 8.58744 29.0054 8.71691 29.0187ZM39.0695 28.8097C39.446 28.4972 38.656 28.4132 38.41 28.7168C38.523 28.6955 39.0442 28.8303 39.0695 28.8097ZM65.0999 28.0683C65.1184 28.0552 65.5199 28.075 65.5398 28.0896C65.879 28.4022 64.7353 28.3481 65.0999 28.0683ZM54.9786 28.0135C55.1151 27.7582 56.0843 27.9437 56.3025 28.1926C56.1035 28.5663 54.8016 28.3327 54.9786 28.0135ZM114.341 25.9774C114.635 25.9537 114.929 26.0211 115.203 26.1208C115.156 26.3354 114.376 26.1352 114.341 25.9774ZM66.5894 28.0047C66.6111 28.0059 66.6328 28.0294 66.6535 28.0315C66.6317 28.023 66.6103 28.0132 66.5894 28.0047ZM107.611 26.0939C107.356 26.0205 107.424 26.408 107.441 26.4193C107.635 26.5374 107.9 26.1766 107.611 26.0939ZM11.0535 28.8214C10.9614 28.4705 10.5365 28.748 10.2893 28.6669C10.3638 28.9441 10.8555 28.8605 11.0535 28.8214ZM86.8722 27.3303C86.5347 26.9625 87.826 26.4646 88.1145 26.6983C88.1411 26.9332 86.9262 27.3804 86.8722 27.3303ZM37.8796 28.2983C37.8504 28.0229 37.3083 28.3632 37.4262 28.4919C37.5011 28.5738 37.8973 28.4695 37.8796 28.2983ZM88.7801 26.8306C88.8971 26.7413 89.1992 27.0006 89.1044 27.1707C88.9816 27.3889 88.7498 26.856 88.7801 26.8306ZM99.7675 26.1041C99.7112 26.0645 99.01 26.3808 99.3183 26.6479C99.5317 26.8336 99.5461 26.4339 99.5945 26.4304C99.6503 26.429 100.819 26.8628 99.7675 26.1041ZM79.5104 27.3752C79.7756 27.2596 80.1193 27.3704 80.4035 27.3524C80.2954 27.5271 79.6296 27.5977 79.5104 27.3752ZM39.99 28.195C39.9243 28.0844 38.1233 28.0425 39.1509 28.3715C39.2113 28.39 40.1949 28.5299 39.99 28.195ZM116.059 25.7372C116.006 25.7358 115.945 25.7248 115.872 25.7C115.944 25.7083 116.005 25.7249 116.059 25.7372ZM111.285 25.8716C111.374 25.6672 110.887 25.6327 110.745 25.7453C110.711 25.9921 111.274 25.9001 111.285 25.8716ZM80.4151 27.0718C80.5769 26.951 80.8739 27.0627 81.0818 27.0416C81.0506 27.2296 80.4943 27.2587 80.4151 27.0718ZM68.823 27.2287C69.1564 27.3307 69.5568 27.2686 69.5565 27.0402C69.5643 27.0757 69.5812 27.1131 69.6085 27.1504C69.6366 27.1874 69.9806 27.0716 70.1351 27.1452C71.0612 27.5832 66.6197 27.5131 69.1763 26.7989C69.0589 26.9422 68.9411 27.0854 68.823 27.2287ZM53.6715 27.5003C53.4785 27.2259 52.9721 27.5833 53.1072 27.6903C53.201 27.7636 53.8619 27.7767 53.6715 27.5003ZM60.7977 27.1941C60.7394 27.1458 60.2382 27.3512 60.2288 27.4978C60.5187 27.6459 61.0577 27.419 60.7977 27.1941ZM52.2448 27.2005C52.1276 27.1606 51.9866 27.6113 52.0007 27.6306C52.1223 27.7921 52.4448 27.4465 52.2448 27.2005ZM115.147 24.5608C114.977 24.4383 114.441 24.782 114.337 25.082C114.313 25.0256 114.252 24.9531 114.14 24.8676C114.14 24.8676 114.14 24.8676 114.141 24.8676C113.99 24.7515 109.601 24.7906 112.563 25.2465C112.655 25.2612 112.519 25.0005 112.897 25.0331C112.922 25.0355 112.943 25.2518 113.019 25.2595C113.192 25.2757 114.137 25.3773 114.319 25.1963C114.322 25.2364 114.335 25.2741 114.362 25.3083C114.602 25.6125 115.282 24.655 115.147 24.5608ZM61.8032 27.1323C61.7001 27.0543 61.3792 27.1377 61.3498 27.3297C61.5126 27.42 62.0431 27.3145 61.8032 27.1323ZM39.9232 27.4106C39.7148 27.2561 39.1945 27.5578 39.3552 27.7119C39.4541 27.8068 40.1639 27.5879 39.9232 27.4106ZM58.5697 27.3034C59.7665 27.5051 58.8533 27.2793 59.03 26.995C58.8747 27.0978 58.7222 27.2007 58.5697 27.3034ZM120.532 25.1216C120.348 25.0614 120.55 24.5025 120.755 24.7984C120.819 24.8923 120.634 25.1542 120.532 25.1216ZM130.173 24.6882C129.895 24.231 130.994 24.3727 130.628 24.7629C130.611 24.7772 130.193 24.705 130.173 24.6882ZM122.945 24.7055C122.829 25.0412 122.756 25.0814 122.418 25.0034C122.914 24.9027 122.449 24.6126 122.945 24.7055ZM69.552 27.0043C69.5545 27.0178 69.5565 27.0277 69.5565 27.0402C69.5539 27.028 69.5525 27.0163 69.552 27.0043ZM51.128 27.3071C50.9748 27.0265 50.5578 27.0545 50.687 27.3374C50.6996 27.3636 51.0709 27.5174 51.128 27.3071ZM114.337 25.082C114.358 25.132 114.35 25.1651 114.319 25.1963C114.316 25.1585 114.323 25.1225 114.337 25.082ZM53.3629 27.0366C53.3496 27.2482 53.9908 27.3187 54.0155 27.2934C54.3754 26.9202 53.6231 27.0192 53.3629 27.0366ZM35.7273 27.1714C35.695 27.1939 35.9127 27.7365 36.0386 27.5211C36.1361 27.3539 35.8484 27.0858 35.7273 27.1714ZM124.055 24.5637C124.233 24.5641 124.481 24.5652 124.525 24.8247C124.406 24.7839 124.054 24.7537 124.055 24.5637ZM129.696 24.3881C129.398 24.7308 128.575 24.8131 127.943 24.7942C127.947 24.4017 129.418 24.5251 129.696 24.3881ZM115.688 24.6915C115.673 24.6757 115.173 24.5734 115.25 24.8393C115.365 25.229 115.832 24.8326 115.688 24.6915ZM36.7089 27.4477C36.9321 27.2598 36.4048 26.6988 36.1726 27.1408C36.0527 27.3671 36.6715 27.4792 36.7089 27.4477ZM49.8162 26.9586C49.5214 27.1189 50.2654 27.3831 50.3642 27.1007C50.2265 27.0805 49.9214 26.9018 49.8162 26.9586ZM59.9456 26.4837C58.9899 25.6943 59.5319 27.1598 59.6962 27.0265C59.7194 27.0075 59.969 26.5023 59.9456 26.4837ZM6.38057 27.4257C6.24958 27.5396 6.74669 27.9417 6.80795 27.6728C6.84553 27.5046 6.46435 27.3531 6.38057 27.4257ZM74.1284 26.6426C74.089 26.6464 74.0499 26.6503 74.0111 26.6538C74.0398 26.6397 74.078 26.6342 74.1284 26.6426ZM47.1017 25.9189C47.7786 27.051 47.6944 26.1714 47.7517 26.1753C47.8739 26.1856 48.1691 26.4898 48.4025 26.4353C48.1361 26.5683 47.8694 26.7014 47.6062 26.8343C47.814 26.9136 49.6645 27.3037 49.6954 27.1177C49.746 26.853 49.1722 26.9454 49.1547 26.9224C49.13 26.8897 49.0277 26.1576 48.9737 26.1306C48.8853 26.0876 47.3483 26.0975 47.1017 25.9189ZM57.9846 26.651C58.1373 26.7352 58.1859 27.025 58.2545 26.9541C58.2778 26.9298 58.276 26.6525 58.3558 26.5792C58.2323 26.6031 58.1086 26.6271 57.9846 26.651ZM45.9347 26.965C45.7417 26.6292 46.5836 26.7446 46.6111 26.7821C46.759 27.0095 46.0901 27.2394 45.9347 26.965ZM53.0429 26.7963C53.0125 26.7771 52.3676 26.6829 52.3757 26.8707C52.5496 27.011 53.4079 27.0373 53.0429 26.7963ZM58.4558 26.5582C58.6801 26.586 59.1158 26.8563 59.0582 26.4399C59.0578 26.4399 59.0575 26.4399 59.0571 26.4399C58.8539 26.4794 58.6554 26.5188 58.4558 26.5582ZM37.4679 26.5555C37.0409 25.8963 37.2506 26.7337 37.6233 26.9432C37.7311 26.6431 37.5379 26.6627 37.4679 26.5555ZM36.1213 26.078C36.0046 25.9599 34.8087 26.107 34.9959 26.4564C35.0629 26.5809 35.7473 26.2555 35.779 26.2794C35.8275 26.3148 35.6135 26.7069 35.979 26.6249C35.9558 26.4933 36.1615 26.1174 36.1213 26.078ZM37.1162 26.1345C36.6935 25.6346 36.6123 26.5684 36.9255 26.5667C37.0478 26.5667 37.1765 26.2067 37.1162 26.1345ZM38.8143 26.1905C38.664 26.1042 38.2597 25.9808 37.9921 26.2947C38.3576 26.3161 38.7296 26.3374 39.0969 26.3588C39.1368 26.1825 38.9465 26.2664 38.8133 26.1905C38.8137 26.1905 38.814 26.1905 38.8143 26.1905ZM132.451 21.5438C132.026 21.3546 132.871 21.092 132.917 21.1477C133.066 21.3382 132.642 21.6286 132.451 21.5438ZM3.71645 18.9804C3.62378 18.8759 3.56026 18.5297 3.36063 18.7135C3.56606 18.9674 3.77148 19.2213 3.97688 19.4753C4.12819 18.8869 3.81776 19.0956 3.71645 18.9804ZM2.91965 16.8448C2.94814 16.8303 2.78218 15.9298 3.15853 16.5282C3.41289 16.9322 2.05733 17.3429 1.80792 16.9455C2.07699 16.7567 2.67433 16.9633 2.91965 16.8448ZM0.497315 12.9647C0.480884 12.893 0.996234 12.782 1.05654 12.8321C1.37324 13.0961 0.586188 13.3493 0.497315 12.9647ZM2.1466 13.1195C1.90256 12.9469 2.43793 12.8283 2.59896 12.9274C2.61626 13.0952 2.18424 13.1447 2.1466 13.1195ZM127.287 9.09434C127.073 8.49471 126.992 9.8203 127.252 9.53867C127.265 9.52532 127.297 9.12371 127.287 9.09434ZM0.99263 12.0493C1.23668 12.222 0.701317 12.3406 0.540338 12.2414C0.5237 12.0738 0.955485 12.0241 0.99263 12.0493ZM127.074 7.64453C126.871 7.21379 127 8.68917 127.029 8.74785C127.141 8.98101 127.527 8.36657 127.603 8.21156C126.979 8.49233 127.192 7.84298 127.074 7.64453ZM125.958 8.5365C125.629 8.6882 126.459 9.0068 126.55 8.59299C126.439 8.61258 126.056 8.49273 125.958 8.5365ZM123.89 8.04141C123.707 7.98816 123.156 7.86414 123.072 8.09811C123.269 8.05401 123.81 8.28093 123.89 8.04141ZM123.47 7.34439C123.183 7.02929 123.119 7.95227 123.448 7.67563C123.46 7.66493 123.481 7.36195 123.47 7.34439ZM121.865 7.02843C121.677 6.66452 121.478 7.56151 121.779 7.58051C121.867 7.58458 121.885 7.07019 121.865 7.02843ZM126.812 6.06161C126.722 5.90628 126.553 6.54721 126.811 6.61432C126.735 6.71391 126.634 6.81218 126.488 6.90835C126.905 7.21843 126.831 6.60493 126.892 6.44741C126.899 6.42101 126.907 6.40705 126.919 6.41173C127.042 6.4577 127.094 7.18713 127.073 7.41901C127.151 6.96904 127.803 6.89901 128.252 6.74383C127.829 6.61719 127.213 6.35603 126.991 6.2468C126.949 6.2276 126.916 6.30065 126.888 6.35222C126.87 6.3827 126.853 6.40571 126.835 6.3979C126.758 6.36279 126.819 6.07206 126.813 6.0616C126.812 6.0616 126.812 6.0616 126.812 6.06161ZM119.797 7.05833C119.252 6.65642 119.615 7.54463 119.91 7.3773C119.922 7.36467 119.81 7.06816 119.797 7.05833ZM0.269951 9.3302C0.973066 9.69785 0.470203 10.2002 1.92469 9.43007C1.31594 9.97087 1.89477 9.81469 1.77712 10.0315C1.68271 10.203 1.32072 10.0656 1.53389 10.4068C1.25454 10.0359 0.0596478 10.1519 0.00567832 10.0918C0.00617974 10.0918 0.00668116 10.0918 0.00718258 10.0918C-0.0252215 10.0561 0.045581 9.21328 0.269951 9.3302ZM123.885 5.69513C123.691 4.60676 123.623 6.33462 123.252 5.43449C122.767 6.74632 124.615 5.42942 124.843 6.54266C122.82 6.40226 126.172 7.64981 124.771 5.98196C125.936 6.59612 125.158 5.78108 125.343 5.57198C125.549 5.34956 126.175 5.60592 126.141 5.19969C126.141 5.19968 126.141 5.19967 126.14 5.19967C125.779 5.22116 125.359 5.24189 124.948 5.26638C125.342 6.14522 124.507 5.8741 124.231 5.16177C124.116 5.33937 123.998 5.51716 123.885 5.69513ZM126.132 6.5394C126.114 6.51872 125.253 6.62633 125.301 6.80333C125.443 6.9163 126.578 6.80363 126.132 6.5394ZM128.372 6.18449C128.145 6.2177 127.799 6.09196 127.73 6.43204C127.931 6.41043 128.299 6.53 128.372 6.18449ZM114.345 6.49257C113.981 6.77619 115.133 6.81595 114.789 6.50724C114.773 6.49269 114.361 6.47933 114.345 6.49257ZM122.983 5.86413C122.583 5.53514 122.776 6.59217 123.073 6.31375C123.09 6.29734 123.002 5.87913 122.983 5.86413ZM0.83518 9.19556C0.857603 8.93585 1.87387 9.10739 2.0536 9.10324C1.95403 9.34548 0.809494 9.4933 0.83518 9.19556ZM128.614 5.16288C128.015 4.31876 127.645 5.4532 127.582 5.43602C127.524 5.41887 127.562 5.00352 127.548 4.99419C127.5 4.97952 126.989 5.06498 126.996 5.0897C126.982 5.1129 127.103 5.67876 127.026 5.86532C127.111 5.54666 128.309 5.59595 128.391 5.51152C128.434 5.45288 127.956 4.92075 128.613 5.16301C128.613 5.16297 128.613 5.16292 128.614 5.16288ZM127.43 5.328C127.6 5.55106 127.201 5.62522 127.123 5.5409C126.927 5.35886 127.392 5.30603 127.43 5.328ZM126.738 5.15847C126.725 5.1317 126.663 5.10699 126.544 5.12038C126.429 5.13389 126.264 5.18549 126.236 5.31875C126.378 5.49488 126.563 5.48763 126.649 5.41856C126.739 5.34963 126.765 5.22072 126.738 5.15847ZM119.329 5.23806C119.159 5.27669 118.67 5.0845 118.651 5.31889C118.82 5.27996 119.311 5.47225 119.329 5.23806ZM4.27429 7.1194C3.98898 6.92685 4.64451 6.84003 4.83705 6.93178C4.84912 7.08756 4.29855 7.13594 4.27429 7.1194ZM122.894 3.63018C122.822 3.58288 121.816 3.65713 121.075 3.75241C120.711 3.79941 120.406 3.85036 120.306 3.88911C120.407 3.9462 120.715 3.98015 121.079 3.99791C121.813 4.03189 122.796 4.00764 122.862 3.95026C122.889 3.92418 122.909 3.64123 122.894 3.63018ZM126.822 3.5425C126.849 3.19619 126.928 3.60382 126.938 3.60821C127.027 3.65492 127.284 3.54887 127.264 3.88437C126.983 3.78274 126.754 4.23059 126.822 3.5425ZM119.139 3.68527C118.422 3.83217 119.816 4.1579 119.625 3.80331C119.614 3.78177 119.211 3.6699 119.139 3.68527ZM123.143 3.52788C123.29 3.24266 125.627 3.49198 125.959 3.50628C125.64 4.01343 125.377 3.61899 124.929 3.64075C124.809 3.64732 124.839 3.86101 124.826 3.86122C124.616 3.86946 124.775 3.62422 124.647 3.61958C124.556 3.61403 122.907 3.91943 123.143 3.52788ZM126.837 3.30268C126.844 3.20331 126.953 3.12577 127.126 3.06765C127.294 3.01052 127.503 2.97427 127.523 2.99805C127.673 3.17394 127.457 3.28028 127.239 3.32232C127.013 3.36574 126.847 3.33653 126.837 3.30268ZM122.935 3.0735C123.168 2.47415 124.302 2.87066 123.53 3.16998C123.456 3.19724 123.146 2.94049 122.935 3.0735ZM119.201 3.1158C119.166 3.099 118.413 3.00048 118.403 3.19065C118.516 3.26082 119.606 3.29789 119.201 3.1158ZM119.576 2.46447C119.557 2.46951 119.744 2.83012 119.388 2.79292C119.357 2.78942 119.295 2.37966 118.853 2.54214C118.762 2.5756 118.634 2.85114 118.644 2.86778C119.119 3.4991 120.485 2.23006 119.576 2.46447ZM126.821 2.96996C126.793 2.79796 126.794 2.28204 126.867 2.5376C126.901 2.64768 126.877 2.96013 126.821 2.96996ZM116.827 3.01843C117.251 2.69249 115.889 2.67689 115.826 2.75931C115.875 2.95214 116.783 3.05016 116.827 3.01843ZM4.91223 4.7019C4.91189 4.7019 4.91156 4.7019 4.91122 4.70191C5.26856 4.76889 5.05044 5.03099 5.06723 5.03897C5.83071 5.41247 5.62297 4.82625 5.74098 4.75556C5.99392 4.60269 5.96055 5.3186 6.38664 5.01741C5.68173 5.463 6.32568 5.2725 6.34847 5.52683C6.43908 6.56476 5.39848 5.05046 5.04663 5.27194C4.99762 5.30261 5.36534 5.63028 5.23996 5.72593C4.83235 6.03588 3.54077 4.44581 4.91223 4.7019ZM126.906 2.48867C126.895 2.18889 127.643 2.39177 127.492 2.6643C127.478 2.68659 127.28 2.76435 127.13 2.77055C126.977 2.77746 126.88 2.71398 126.906 2.48867ZM69.0308 4.07319C69.3206 3.80099 68.6234 3.50976 68.4993 3.71871C68.4384 3.82282 68.904 4.19267 69.0308 4.07319ZM64.1488 3.06959C63.7955 3.13173 63.444 4.24157 63.8843 4.06014C63.9312 4.04035 64.1933 3.22131 64.1488 3.06959ZM87.4421 2.85826C87.0548 2.48099 87.1077 3.21057 87.3798 3.18858C87.4757 3.18093 87.4543 2.8702 87.4421 2.85826ZM73.3217 3.47751C73.2845 3.45315 72.8586 3.51304 72.8791 3.68052C73.0414 3.77643 73.5653 3.64521 73.3217 3.47751ZM87.555 2.74923C87.342 2.8903 87.7403 3.40253 87.9865 2.87451C87.8503 2.92286 87.5776 2.73479 87.555 2.74923ZM122.079 1.46731C121.888 1.75862 121.364 1.69435 121.035 1.74092C121.022 1.74275 121.01 1.74477 120.998 1.74698C120.992 1.69075 121.005 1.64646 121.032 1.61162C121.204 1.4054 121.876 1.53015 122.079 1.46731ZM65.6664 3.47507C65.3372 3.75761 66.0627 3.96383 65.987 3.60323C65.9775 3.58379 65.6795 3.46305 65.6664 3.47507ZM99.4494 2.16266C99.2122 2.40598 100.014 2.68109 99.7783 2.28376C99.767 2.26763 99.4625 2.14913 99.4494 2.16266ZM102.895 2.13984C102.7 2.07015 101.903 2.13018 102.224 2.3423C102.275 2.37482 102.889 2.35282 102.895 2.13984ZM5.75905 4.47531C5.65408 4.07682 6.23983 4.16572 6.32422 4.23467C6.35742 4.26337 5.896 4.99377 5.75905 4.47531ZM85.0349 2.89705C84.843 2.95501 84.345 2.88021 84.2663 3.09317C84.4962 3.04048 85.1152 3.31171 85.0349 2.89705ZM67.1982 3.43371C66.8949 3.00737 66.391 3.06326 66.5304 3.62716C67.0859 3.57471 66.4502 3.11923 67.1982 3.43371ZM88.768 2.22861C88.6139 2.20223 88.5201 2.75169 88.5386 2.77657C88.7156 3.01326 88.9289 2.43371 88.768 2.22861ZM77.2671 3.13033C77.2507 2.89795 76.763 3.0204 76.8335 3.16792C76.8572 3.21748 77.281 3.3184 77.2671 3.13033ZM115.311 1.51378C115.072 1.30924 115.775 1.07756 115.992 1.31878C116.107 1.6726 115.339 1.53716 115.311 1.51378ZM93.0442 2.17136C93.0491 1.82526 92.2892 2.05595 92.6056 2.32804C92.6844 2.39615 93.0407 2.28719 93.0442 2.17136ZM100.469 1.40892C99.963 1.84451 102.18 2.03598 101.578 1.54951C101.536 1.51474 100.512 1.37201 100.469 1.40892ZM104.083 1.50386C103.991 1.46246 103.983 0.300571 104.379 0.731381C104.432 0.787221 104.213 1.10401 104.257 1.17237C104.284 1.21116 105.105 1.33863 105.142 1.30994C105.182 1.27743 105.118 0.907716 105.157 0.864228C105.203 0.815541 105.717 1.12057 105.982 1.11288C106.48 1.09777 106.518 0.786214 106.559 0.783446C106.677 0.776409 106.888 0.987607 107.128 0.977304C108.337 0.923888 110.184 0.586867 111.175 1.20613C110.308 0.975709 109.503 1.28775 108.655 1.40847C108.878 0.752163 107.422 1.95765 108.27 1.17613C107.87 1.35335 104.387 1.63141 104.084 1.50382C104.084 1.50383 104.083 1.50385 104.083 1.50386ZM62.7389 2.77735C62.9484 2.37602 61.8305 2.49088 61.7427 2.9515C61.8946 3.0118 62.7141 2.82292 62.7389 2.77735ZM67.8695 1.68202C67.9705 1.61084 68.0522 0.833548 68.6072 1.21149C68.6077 1.21147 68.6082 1.21146 68.6087 1.21144C68.7708 1.3218 68.5949 1.51552 68.6258 1.58198C68.6374 1.60916 69.1427 1.98082 68.7335 2.05413C68.107 2.16645 68.6589 1.4795 68.3226 1.48048C68.2811 1.48102 67.6557 1.91746 67.6969 2.00843C67.7011 2.01905 67.8874 1.92529 67.9199 1.9627C68.0441 2.10327 67.992 2.34674 68.0093 2.35779C68.0677 2.38583 69.0611 1.94623 69.2134 2.30205C69.2699 2.41685 67.6191 2.72986 67.5603 2.67078C67.519 2.63383 67.5181 1.96193 67.4746 1.897C67.4531 1.8647 66.7973 2.13375 66.7081 2.07425C66.6825 2.05705 66.6628 2.0383 66.6483 2.02281C66.7537 2.22797 66.1519 2.22853 66.166 1.99359C66.1732 1.90123 66.5864 1.94396 66.6031 1.95962C66.6098 1.96627 66.6157 1.97552 66.6212 1.98187C66.5318 1.731 67.9272 1.70559 67.6155 1.33676C68.0112 1.11962 67.5736 1.891 67.8695 1.68202ZM69.807 1.21396C69.7671 1.28576 69.727 1.35757 69.687 1.42937C70.3923 1.23646 71.221 1.55256 72.0328 1.52553C72.2382 1.5192 71.9877 1.09455 72.2622 1.20435C72.4849 1.29225 72.7384 1.68537 72.6225 1.77831C72.5947 1.80148 72.1389 1.55426 71.9225 1.58753C71.2736 1.6863 71.4476 2.05168 71.4102 2.06283C71.3692 2.07459 70.9442 1.82647 70.7213 1.84454C70.1632 1.89071 69.904 2.12576 69.125 1.85022C69.5594 1.59381 69.304 1.07034 69.807 1.21396ZM96.2673 0.970969C96.2827 0.73679 96.7616 0.921345 96.9309 0.879083C96.9155 1.11383 96.4338 0.928818 96.2673 0.970969ZM26.8686 2.46246C26.7299 2.84685 27.8071 2.92852 27.5196 2.61351C27.4561 2.5436 27.0041 2.46355 26.8686 2.46246ZM31.7125 2.63503C31.8549 2.5274 31.2726 2.25929 31.2773 2.55542C31.2794 2.65037 31.6943 2.64902 31.7125 2.63503ZM78.9687 1.29629C78.9958 1.28334 79.3924 1.35427 79.4051 1.37327C79.6818 1.7699 78.374 1.58208 78.9687 1.29629ZM37.5901 2.08583C37.0919 2.34358 38.6045 2.43133 38.138 2.11797C38.1142 2.10273 37.6135 2.07332 37.5901 2.08583ZM39.689 1.98636C39.5696 2.00152 39.0346 1.88454 39.0291 2.0014C39.0213 2.18992 39.6334 2.30998 39.689 1.98636ZM88.8073 0.779867C88.7294 0.351739 89.4486 0.646799 89.6863 0.581788C89.7639 1.01025 89.0502 0.714713 88.8073 0.779867ZM84.3869 0.649167C87.3175 0.187774 86.6993 1.13597 84.2212 0.866099C84.2064 0.589859 84.2033 0.678053 84.3869 0.649167ZM88.1589 0.541234C88.0636 0.821886 87.7231 0.754694 87.4987 0.742212C87.5304 0.548639 87.9964 0.598036 88.1589 0.541234ZM25.5763 1.88571C25.7591 1.53458 26.5918 1.95477 26.4463 2.10045C26.4129 2.13195 25.5095 2.07842 25.5763 1.88571ZM79.203 0.918614C79.1215 0.502032 80.0036 0.640973 80.0774 0.731346C80.3621 1.09571 79.2729 0.8236 79.203 0.918614ZM92.9829 0.221292C93.1265 -0.114166 93.5762 0.0340376 93.8652 0.0249004C93.7442 0.311714 93.229 0.215807 92.9829 0.221292ZM90.9037 0.0591431C90.9216 0.0457239 91.3232 0.0571318 91.3414 0.0714273C91.684 0.376975 90.5474 0.34644 90.9037 0.0591431ZM4.38442 1.55307C4.39773 1.54235 4.70286 1.56006 4.71361 1.5723C4.9891 1.88474 4.07327 1.83 4.38442 1.55307Z" fill="#FAE187"/>
</svg>
